<svg width="45" height="59" viewBox="0 0 45 59" fill="none" xmlns="http://www.w3.org/2000/svg">
<path d="M19.4336 58.8677C26.1328 58.9212 45 59 45 59V47.6587H19.679C14.1441 47.6587 10.9125 46.3702 10.9125 41.4619C10.9125 36.5537 14.5437 35.5802 19.893 35.5802H44.9843L44.893 23.7537H19.1882C9.46507 23.6151 4.20076 28.7912 1.57646 34.7139C2.50787 30.0293 5.07237 24.7304 10.8087 21.7186V12.3211L44.9497 12.236L44.893 0.0252029C44.893 0.0252029 13.9836 -0.0315036 0 0.0252029C0 0.0252029 0.173065 27.7736 0.198238 38.5541C0.213971 45.0659 1.06986 50.2262 4.26998 53.4302C7.83512 56.9995 11.6268 58.8015 19.4336 58.8645V58.8677Z" fill="url(#paint0_linear_133_497)"/>
<defs>
<linearGradient id="paint0_linear_133_497" x1="0" y1="0" x2="45" y2="59" gradientUnits="userSpaceOnUse">
<stop stop-color="#ACD4F9"/>
<stop offset="1" stop-color="#5C75F9"/>
</linearGradient>
</defs>
</svg>
