<svg width="314" height="187" viewBox="0 0 314 187" fill="none" xmlns="http://www.w3.org/2000/svg">
<path d="M123.714 146.145V183H0.571777V3.32959H123.714V40.1851H46.2676V75.9199H119.107V109.538H46.2676V146.145H123.714ZM231.79 186.113C204.729 186.113 183.396 177.937 167.791 161.584C152.269 145.148 144.507 122.321 144.507 93.1025C144.507 63.9668 152.31 41.2227 167.916 24.8701C183.521 8.43457 204.812 0.216797 231.79 0.216797C246.814 0.216797 260.428 3.24658 272.63 9.30615C284.832 15.2827 294.502 23.7495 301.641 34.7065C308.863 45.5806 312.681 57.9902 313.096 71.9355H269.144C268.064 61.3936 264.08 52.9268 257.19 46.5352C250.301 40.0605 241.834 36.8232 231.79 36.8232C219.256 36.8232 209.336 41.8452 202.032 51.8892C194.727 61.9331 191.075 75.6294 191.075 92.978C191.075 110.576 194.727 124.396 202.032 134.44C209.336 144.484 219.297 149.506 231.915 149.506C241.958 149.506 250.342 146.435 257.066 140.292C263.873 134.15 267.981 125.808 269.393 115.266H313.345C312.266 136.516 304.214 153.657 289.19 166.689C274.166 179.638 255.032 186.113 231.79 186.113Z" fill="url(#paint0_linear_744_7)"/>
<defs>
<linearGradient id="paint0_linear_744_7" x1="-13" y1="92" x2="322" y2="92" gradientUnits="userSpaceOnUse">
<stop stop-color="#ABD2F9"/>
<stop offset="1" stop-color="#627CF9"/>
</linearGradient>
</defs>
</svg>
