<?xml version="1.0" encoding="UTF-8"?>
<svg id="Calque_2" data-name="Calque 2" xmlns="http://www.w3.org/2000/svg" viewBox="0 0 143.01 187.27">
  <defs>
    <style>
      .cls-1 {
        fill: #fff;
        strokeWidth: 0px;
      }
    </style>
  </defs>
  <g id="Calque_1-2" data-name="Calque 1">
    <path class="cls-1" d="m61.76,186.86c21.29.17,81.25.42,81.25.42v-36H62.54c-17.59,0-27.86-4.09-27.86-19.67s11.54-18.67,28.54-18.67h79.74l-.29-37.54H60.98c-30.9-.44-47.63,15.99-55.97,34.79,2.96-14.87,11.11-31.69,29.34-41.25v-29.83l108.5-.27-.18-38.76S44.44-.1,0,.08C0,.08.55,88.16.63,122.38c.05,20.67,2.77,37.05,12.94,47.22,11.33,11.33,23.38,17.05,48.19,17.25Z"/>
  </g>
</svg>