<svg width="5556" height="582" viewBox="0 0 5556 582" fill="none" xmlns="http://www.w3.org/2000/svg">
<path d="M0.818359 571V10.8506H395.989V141.28H165.408V230.562H381.626V351.676H165.408V440.57H395.989V571H0.818359Z" fill="#F4F4F4"/>
<path d="M472.85 571V10.8506H609.878L807.852 297.33H810.569V10.8506H975.159V571H839.683L640.157 279.862H637.439V571H472.85Z" fill="#F4F4F4"/>
<path d="M1045.03 571V467.743L1294.63 144.386V141.28H1047.36V10.8506H1486.4V113.719L1237.57 437.464V440.57H1495.71V571H1045.03Z" fill="#F4F4F4"/>
<path d="M1826.45 581.092C1652.93 581.092 1544.62 470.072 1544.62 291.119V290.343C1544.62 111.778 1653.7 0.757812 1826.45 0.757812C2000.35 0.757812 2109.04 112.167 2109.04 290.343V291.119C2109.04 469.684 2000.74 581.092 1826.45 581.092ZM1826.45 446.781C1897.48 446.781 1941.35 386.612 1941.35 291.119V290.343C1941.35 194.073 1896.32 135.069 1826.45 135.069C1757.74 135.069 1712.32 193.685 1712.32 290.343V291.119C1712.32 387.777 1757.35 446.781 1826.45 446.781Z" fill="#F4F4F4"/>
<path d="M2437.06 581.092C2265.09 581.092 2159.51 475.506 2159.51 290.731V290.343C2159.51 105.567 2266.26 0.757812 2437.06 0.757812C2592.72 0.757812 2697.14 101.686 2697.14 233.28V236.773H2539.54L2539.15 232.115C2534.49 176.605 2498 135.069 2437.06 135.069C2369.51 135.069 2327.2 191.744 2327.2 289.955V290.343C2327.2 390.106 2369.51 446.781 2437.45 446.781C2494.12 446.781 2534.49 408.351 2539.93 349.347L2540.32 345.077H2697.92V349.347C2697.92 480.553 2591.17 581.092 2437.06 581.092Z" fill="#F4F4F4"/>
<path d="M3028.26 581.092C2854.74 581.092 2746.44 470.072 2746.44 291.119V290.343C2746.44 111.778 2855.52 0.757812 3028.26 0.757812C3202.17 0.757812 3310.86 112.167 3310.86 290.343V291.119C3310.86 469.684 3202.56 581.092 3028.26 581.092ZM3028.26 446.781C3099.3 446.781 3143.16 386.612 3143.16 291.119V290.343C3143.16 194.073 3098.14 135.069 3028.26 135.069C2959.55 135.069 2914.14 193.685 2914.14 290.343V291.119C2914.14 387.777 2959.17 446.781 3028.26 446.781Z" fill="#F4F4F4"/>
<path d="M3600.83 581.092C3455.65 581.092 3365.59 518.983 3359.77 408.351L3359.38 400.975H3510.77L3511.55 404.469C3518.15 434.747 3556.19 454.933 3602.77 454.933C3652.07 454.933 3682.35 434.747 3682.35 406.798V406.41C3682.35 380.013 3659.84 369.144 3597.73 357.887L3541.44 347.794C3430.03 327.997 3369.09 271.71 3369.09 184.757V184.369C3369.09 71.7954 3466.13 0.757812 3598.89 0.757812C3748.73 0.757812 3828.31 67.5254 3832.97 172.335L3833.35 180.875H3681.96L3681.58 176.993C3678.47 146.327 3645.86 126.917 3600.83 126.917C3555.42 126.917 3532.12 146.715 3532.12 172.335V172.723C3532.12 197.955 3556.19 209.989 3612.09 220.082L3668.38 230.174C3788.33 251.913 3845.39 300.824 3845.39 391.659V392.047C3845.39 507.726 3755.33 581.092 3600.83 581.092Z" fill="#F4F4F4"/>
<path d="M4132.64 581.092C3987.46 581.092 3897.41 518.983 3891.58 408.351L3891.19 400.975H4042.59L4043.36 404.469C4049.96 434.747 4088 454.933 4134.59 454.933C4183.88 454.933 4214.16 434.747 4214.16 406.798V406.41C4214.16 380.013 4191.65 369.144 4129.54 357.887L4073.25 347.794C3961.84 327.997 3900.9 271.71 3900.9 184.757V184.369C3900.9 71.7954 3997.94 0.757812 4130.7 0.757812C4280.54 0.757812 4360.12 67.5254 4364.78 172.335L4365.17 180.875H4213.77L4213.39 176.993C4210.28 146.327 4177.67 126.917 4132.64 126.917C4087.23 126.917 4063.94 146.715 4063.94 172.335V172.723C4063.94 197.955 4088 209.989 4143.9 220.082L4200.19 230.174C4320.14 251.913 4377.2 300.824 4377.2 391.659V392.047C4377.2 507.726 4287.14 581.092 4132.64 581.092Z" fill="#F4F4F4"/>
<path d="M4706.77 581.092C4533.25 581.092 4424.95 470.072 4424.95 291.119V290.343C4424.95 111.778 4534.03 0.757812 4706.77 0.757812C4880.67 0.757812 4989.37 112.167 4989.37 290.343V291.119C4989.37 469.684 4881.06 581.092 4706.77 581.092ZM4706.77 446.781C4777.81 446.781 4821.67 386.612 4821.67 291.119V290.343C4821.67 194.073 4776.64 135.069 4706.77 135.069C4638.06 135.069 4592.64 193.685 4592.64 290.343V291.119C4592.64 387.777 4637.67 446.781 4706.77 446.781Z" fill="#F4F4F4"/>
<path d="M5053.42 571V10.8506H5190.44L5388.42 297.33H5391.14V10.8506H5555.73V571H5420.25L5220.72 279.862H5218.01V571H5053.42Z" fill="#F4F4F4"/>
</svg>
