<svg width="26" height="26" viewBox="0 0 26 26" fill="none" xmlns="http://www.w3.org/2000/svg">
<path d="M25.3868 18.5282C25.3868 18.5282 25.3814 6.29676 25.38 1.53104C25.38 1.13446 25.2184 0.77455 24.9576 0.513787C24.6969 0.253023 24.3383 0.092764 23.9404 0.0914059C19.1774 0.0900477 6.94595 0.0873306 6.94595 0.0873306C6.55345 0.0859721 6.19761 0.246234 5.93957 0.50428C5.67745 0.766401 5.51719 1.12767 5.51718 1.52696C5.51583 2.32147 6.15687 2.96795 6.94595 2.96659L20.4676 2.96659L0.513786 22.9204C-0.0484848 23.4827 -0.0484843 24.3954 0.513786 24.9576C1.07606 25.5199 1.98873 25.5199 2.551 24.9576L22.5048 5.00381L22.5048 18.5282C22.5048 19.3132 23.1513 19.9515 23.9445 19.9515C24.3465 19.9515 24.7091 19.7899 24.9699 19.5291C25.2279 19.2711 25.3854 18.918 25.3868 18.5282Z" fill="#121212"/>
</svg>
