<svg width="19" height="16" viewBox="0 0 19 16" fill="none" xmlns="http://www.w3.org/2000/svg">
<path d="M12.1656 15.7545C12.1656 15.7545 16.9172 10.6096 18.7688 8.60528C18.9229 8.43854 19 8.21927 19 8C19 7.78073 18.9229 7.5626 18.7688 7.39472C16.9182 5.39158 12.1656 0.247823 12.1656 0.247823C12.0136 0.082227 11.813 0 11.6124 0C11.4087 0 11.206 0.0845107 11.0508 0.252391C10.7415 0.585867 10.7394 1.12719 11.0466 1.45839L16.3017 7.14347H0.791755C0.354706 7.14347 0 7.52719 0 8C0 8.47281 0.354706 8.85653 0.791755 8.85653H16.3017L11.0455 14.5428C10.7404 14.8728 10.7436 15.413 11.0518 15.7465C11.2081 15.9155 11.4118 16 11.6145 16C11.8151 16 12.0136 15.9178 12.1656 15.7545Z" fill="#F9F9F9"/>
</svg>
