<svg width="33" height="33" viewBox="0 0 33 33" fill="none" xmlns="http://www.w3.org/2000/svg">
<path fill-rule="evenodd" clip-rule="evenodd" d="M16.5 13.9991L29.9805 0.516214C30.3246 0.172071 30.7796 0 31.2321 0C32.1844 0 33 0.763713 33 1.7655C33 2.22043 32.8279 2.673 32.4838 3.0195L19.0009 16.5L32.4814 29.9805C32.8279 30.327 33 30.7796 33 31.2321C33 32.2386 32.1774 33 31.2321 33C30.7796 33 30.3246 32.8279 29.9805 32.4838L16.5 19.0033L3.0195 32.4838C2.67536 32.8279 2.22043 33 1.76786 33C0.822643 33 0 32.2386 0 31.2321C0 30.7796 0.172071 30.327 0.518571 29.9805L13.9991 16.5L0.516214 3.0195C0.172071 2.673 0 2.22043 0 1.7655C0 0.763713 0.815571 0 1.76786 0C2.22043 0 2.67536 0.172071 3.0195 0.516214L16.5 13.9991Z" fill="#202020"/>
</svg>
