<svg width="34" height="34" viewBox="0 0 34 34" fill="none" xmlns="http://www.w3.org/2000/svg">
<path d="M16.9991 0C26.3821 0 34 7.6179 34 16.9991C34 26.3821 26.3821 34 16.9991 34C7.6179 34 0 26.3821 0 16.9991C0 7.6179 7.6179 0 16.9991 0ZM16.9991 2.55064C9.02416 2.55064 2.55064 9.02416 2.55064 16.9991C2.55064 24.9741 9.02416 31.4494 16.9991 31.4494C24.9741 31.4494 31.4494 24.9741 31.4494 16.9991C31.4494 9.02416 24.9741 2.55064 16.9991 2.55064ZM16.9991 13.6034C16.2952 13.6034 15.7238 14.1747 15.7238 14.8787V24.2311C15.7238 24.935 16.2952 25.5064 16.9991 25.5064C17.7031 25.5064 18.2745 24.935 18.2745 24.2311V14.8787C18.2745 14.1747 17.7031 13.6034 16.9991 13.6034ZM16.9957 8.50213C17.9344 8.50213 18.6962 9.26392 18.6962 10.2026C18.6962 11.1412 17.9344 11.903 16.9957 11.903C16.0571 11.903 15.2953 11.1412 15.2953 10.2026C15.2953 9.26392 16.0571 8.50213 16.9957 8.50213Z" fill="white"/>
</svg>
