<svg width="145" height="19" viewBox="0 0 145 19" fill="none" xmlns="http://www.w3.org/2000/svg">
<path d="M0.171875 18V1.08984H12.1016V5.02734H5.14062V7.72266H11.668V11.3789H5.14062V14.0625H12.1016V18H0.171875Z" fill="#F4F4F4"/>
<path d="M14.1523 18V5.0625H18.957V7.46484H19.0508C19.6836 5.71875 21.0078 4.78125 22.9648 4.78125C25.8125 4.78125 27.4062 6.58594 27.4062 9.69141V18H22.6016V10.7461C22.6016 9.44531 21.9922 8.64844 20.7852 8.64844C19.6484 8.64844 18.957 9.52734 18.957 10.7344V18H14.1523Z" fill="#F4F4F4"/>
<path d="M28.9297 18V15.5625L34.8242 8.625V8.53125H29.1172V5.0625H40.332V7.91016L35.1523 14.4375V14.5312H40.5898V18H28.9297Z" fill="#F4F4F4"/>
<path d="M48.6523 18.2812C44.4102 18.2812 41.8555 15.8438 41.8555 11.543V11.5195C41.8555 7.30078 44.5039 4.78125 48.6523 4.78125C52.8125 4.78125 55.4609 7.26562 55.4609 11.5195V11.543C55.4609 15.8555 52.8828 18.2812 48.6523 18.2812ZM48.6641 14.7188C49.8594 14.7188 50.5859 13.582 50.5859 11.543V11.5195C50.5859 9.51562 49.8242 8.34375 48.6523 8.34375C47.4688 8.34375 46.7305 9.51562 46.7305 11.5195V11.543C46.7305 13.5938 47.4453 14.7188 48.6641 14.7188Z" fill="#F4F4F4"/>
<path d="M64.5898 18.2695C59.9492 18.2695 56.9492 14.8359 56.9492 9.53906V9.52734C56.9492 4.21875 59.9258 0.820312 64.5898 0.820312C68.0938 0.820312 70.6836 2.97656 71.3164 6.14062L71.3398 6.25781H69.7344L69.6641 6.04688C69.0195 3.76172 67.2266 2.30859 64.5898 2.30859C60.9336 2.30859 58.5898 5.13281 58.5898 9.52734V9.53906C58.5898 13.9219 60.957 16.7812 64.5898 16.7812C67.2148 16.7812 68.9961 15.3398 69.6992 12.9375L69.7344 12.832H71.3398L71.3164 12.9492C70.6836 16.1367 68.1055 18.2695 64.5898 18.2695Z" fill="#F4F4F4"/>
<path d="M78.4062 18.2227C75.0781 18.2109 72.8516 15.7734 72.8516 11.9062V11.8828C72.8516 8.01562 75.0898 5.58984 78.4062 5.58984C81.7109 5.58984 83.9609 8.00391 83.9609 11.8828V11.9062C83.9609 15.7852 81.7227 18.2227 78.4062 18.2227ZM78.418 16.8398C80.7969 16.8398 82.3789 14.9883 82.3789 11.9062V11.8828C82.3789 8.80078 80.7852 6.97266 78.4062 6.97266C76.0273 6.97266 74.4453 8.8125 74.4453 11.8828V11.9062C74.4453 15 76.0156 16.8281 78.418 16.8398Z" fill="#F4F4F4"/>
<path d="M90.207 18.2227C87.4414 18.2227 85.6719 16.7461 85.4375 14.5898L85.4258 14.4844H86.9727L86.9961 14.5898C87.2422 15.9961 88.3789 16.9102 90.2188 16.9102C92.0586 16.9102 93.2305 16.0664 93.2305 14.7891V14.7773C93.2305 13.7227 92.6445 13.1484 91.0156 12.7617L89.1758 12.3164C86.8789 11.7656 85.7773 10.7578 85.7773 9.07031V9.05859C85.7773 7.03125 87.5703 5.58984 90.1133 5.58984C92.7148 5.58984 94.3789 7.10156 94.5781 9.19922L94.5898 9.32812H93.1016L93.0898 9.24609C92.8906 7.82812 91.8125 6.90234 90.1133 6.90234C88.4609 6.90234 87.3594 7.75781 87.3594 9V9.01172C87.3594 9.98438 88.0156 10.6055 89.6211 10.9922L91.4609 11.4258C93.8867 12.0117 94.8125 12.9609 94.8125 14.6719V14.6836C94.8125 16.7578 92.8789 18.2227 90.207 18.2227Z" fill="#F4F4F4"/>
<path d="M101.082 18.2227C98.3164 18.2227 96.5469 16.7461 96.3125 14.5898L96.3008 14.4844H97.8477L97.8711 14.5898C98.1172 15.9961 99.2539 16.9102 101.094 16.9102C102.934 16.9102 104.105 16.0664 104.105 14.7891V14.7773C104.105 13.7227 103.52 13.1484 101.891 12.7617L100.051 12.3164C97.7539 11.7656 96.6523 10.7578 96.6523 9.07031V9.05859C96.6523 7.03125 98.4453 5.58984 100.988 5.58984C103.59 5.58984 105.254 7.10156 105.453 9.19922L105.465 9.32812H103.977L103.965 9.24609C103.766 7.82812 102.688 6.90234 100.988 6.90234C99.3359 6.90234 98.2344 7.75781 98.2344 9V9.01172C98.2344 9.98438 98.8906 10.6055 100.496 10.9922L102.336 11.4258C104.762 12.0117 105.688 12.9609 105.688 14.6719V14.6836C105.688 16.7578 103.754 18.2227 101.082 18.2227Z" fill="#F4F4F4"/>
<path d="M112.719 18.2227C109.391 18.2109 107.164 15.7734 107.164 11.9062V11.8828C107.164 8.01562 109.402 5.58984 112.719 5.58984C116.023 5.58984 118.273 8.00391 118.273 11.8828V11.9062C118.273 15.7852 116.035 18.2227 112.719 18.2227ZM112.73 16.8398C115.109 16.8398 116.691 14.9883 116.691 11.9062V11.8828C116.691 8.80078 115.098 6.97266 112.719 6.97266C110.34 6.97266 108.758 8.8125 108.758 11.8828V11.9062C108.758 15 110.328 16.8281 112.73 16.8398Z" fill="#F4F4F4"/>
<path d="M120.336 18V5.8125H121.883V7.88672H121.93C122.539 6.57422 123.91 5.60156 125.879 5.60156C128.574 5.60156 130.168 7.33594 130.168 10.1953V18H128.621V10.4531C128.621 8.19141 127.496 6.98438 125.422 6.98438C123.301 6.98438 121.883 8.50781 121.883 10.7812V18H120.336Z" fill="#F4F4F4"/>
<path d="M144.664 6.9375V7.01953C144.664 10.4414 141.969 13.1367 138.547 13.1367H138.465C135.031 13.1367 132.348 10.4414 132.348 7.01953V6.9375C132.348 3.50391 135.031 0.820312 138.465 0.820312H138.547C141.969 0.820312 144.664 3.50391 144.664 6.9375ZM143.527 6.9375C143.527 4.14844 141.336 1.95703 138.547 1.95703H138.465C135.676 1.95703 133.484 4.14844 133.484 6.9375V7.01953C133.484 9.80859 135.676 12 138.465 12H138.547C141.336 12 143.527 9.80859 143.527 7.01953V6.9375ZM136.109 10.1719V3.78516H138.746C140.234 3.78516 141.113 4.53516 141.113 5.83594V5.84766C141.113 6.67969 140.609 7.38281 139.812 7.65234L141.301 10.1719H139.941L138.605 7.83984C138.57 7.85156 138.535 7.85156 138.488 7.85156H137.293V10.1719H136.109ZM137.305 6.87891H138.641C139.426 6.87891 139.906 6.48047 139.906 5.83594C139.906 5.20312 139.402 4.80469 138.617 4.80469H137.305V6.87891Z" fill="#F4F4F4"/>
</svg>
