<svg width="31" height="43" viewBox="0 0 31 43" fill="none" xmlns="http://www.w3.org/2000/svg">
<path d="M15.047 42.9915C10.8912 42.9915 7.34439 41.5227 4.40663 38.5849C1.46888 35.6471 0 32.1003 0 27.9445V15.047C0 10.8912 1.46888 7.34439 4.40663 4.40663C7.34439 1.46888 10.8912 0 15.047 0C19.2029 0 22.7497 1.46888 25.6874 4.40663C28.6252 7.34439 30.0941 10.8912 30.0941 15.047V27.9445C30.0941 32.1003 28.6252 35.6471 25.6874 38.5849C22.7497 41.5227 19.2029 42.9915 15.047 42.9915ZM17.1966 15.047H25.7949C25.7949 12.4675 24.9799 10.1926 23.3498 8.22213C21.7197 6.25169 19.6686 5.01568 17.1966 4.51411V15.047ZM4.29915 15.047H12.8975V4.51411C10.4254 5.01568 8.37439 6.25169 6.7443 8.22213C5.1142 10.1926 4.29915 12.4675 4.29915 15.047ZM15.047 38.6924C18.0206 38.6924 20.5553 37.6445 22.6512 35.5486C24.747 33.4528 25.7949 30.9181 25.7949 27.9445V19.3462H4.29915V27.9445C4.29915 30.9181 5.34707 33.4528 7.44291 35.5486C9.53875 37.6445 12.0735 38.6924 15.047 38.6924Z" fill="#F4F4F4"/>
</svg>
