<svg width="224" height="60" viewBox="0 0 224 60" fill="none" xmlns="http://www.w3.org/2000/svg">
<path d="M28.7129 32.8311C28.9631 28.3681 31.1485 24.4361 34.4456 21.6488C37.679 18.9111 42.031 17.2378 46.7796 17.2378C51.5235 17.2378 55.8755 18.9111 59.1113 21.6488C62.406 24.4361 64.5914 28.3681 64.8439 32.8263C65.0941 37.4121 63.2509 41.6721 60.0175 44.8299C56.7205 48.042 52.0309 50.0576 46.7796 50.0576C41.5283 50.0576 36.8293 48.042 33.5346 44.8299C30.2989 41.6721 28.4604 37.4121 28.7129 32.8311Z" fill="#252525"/>
<path d="M37.51 33.2323C37.6384 30.9423 38.7597 28.9248 40.4515 27.4946C42.1105 26.0898 44.3436 25.2313 46.7801 25.2313C49.2142 25.2313 51.4473 26.0898 53.1076 27.4946C54.7981 28.9248 55.9195 30.9423 56.049 33.2298C56.1774 35.5828 55.2316 37.7686 53.5726 39.3889C51.8808 41.0371 49.4746 42.0713 46.7801 42.0713C44.0857 42.0713 41.6746 41.0371 39.984 39.3889C38.3238 37.7686 37.3804 35.5828 37.51 33.2323Z" fill="#F4F4F4"/>
<path d="M22.7479 37.859C22.7637 38.7551 23.0494 40.4966 23.4781 41.8565C24.3791 44.735 25.9074 47.398 28.0339 49.7449C30.2161 52.1572 32.9033 54.0947 36.0071 55.4704C39.2695 56.9151 42.8044 57.6514 46.4761 57.6454C50.1418 57.6405 53.6767 56.8897 56.9391 55.4341C60.0428 54.0451 62.7276 52.0991 64.9062 49.6856C67.0314 47.329 68.5573 44.6611 69.4607 41.7826C69.9148 40.3282 70.2019 38.852 70.3169 37.371C70.4295 35.9117 70.3823 34.4501 70.1752 32.9896C69.7707 30.1438 68.7862 27.4735 67.27 25.0394C65.8834 22.8027 64.096 20.8446 61.9707 19.1964L61.9756 19.1928L40.5277 2.7245C40.5083 2.70997 40.4926 2.69425 40.472 2.68093C39.0648 1.60072 36.6985 1.60436 35.1509 2.68699C33.5863 3.78172 33.4071 5.59213 34.7997 6.7341L34.7936 6.74016L43.7392 14.0146L16.4738 14.0437H16.4374C14.1838 14.0461 12.0173 15.5247 11.5886 17.3932C11.1478 19.2969 12.6785 20.876 15.0218 20.8845L15.0182 20.893L28.838 20.8664L4.17734 39.7954C4.14585 39.8184 4.11194 39.8426 4.08288 39.8656C1.75656 41.647 1.00455 44.6091 2.46985 46.4837C3.95695 48.3898 7.11885 48.3934 9.46939 46.4946L22.9283 35.4794C22.9283 35.4794 22.7322 36.9665 22.7479 37.859ZM57.3326 42.8386C54.5594 45.6638 50.677 47.266 46.4761 47.2745C42.2691 47.2817 38.3866 45.6941 35.6135 42.8737C34.2584 41.4993 33.2629 39.9177 32.649 38.2332C32.0471 36.5778 31.8134 34.8206 31.9684 33.0477C32.1149 31.3148 32.6308 29.6618 33.4543 28.1662C34.2632 26.6961 35.3773 25.3676 36.753 24.2438C39.4487 22.0471 42.8807 20.8579 46.47 20.853C50.063 20.8482 53.4926 22.0265 56.1907 24.216C57.5639 25.3349 58.6768 26.6585 59.4858 28.1263C60.3129 29.6206 60.8251 31.2676 60.9777 33.0053C61.1303 34.7758 60.8966 36.5306 60.2947 38.1872C59.6795 39.8765 58.6877 41.458 57.3326 42.8386Z" fill="#F4F4F4"/>
<path d="M184.448 33.1947C184.655 30.8841 186.441 29.4188 189.169 29.4188C191.901 29.4188 193.686 30.8841 193.893 33.1947H184.448ZM193.614 38.8997C192.915 40.612 191.268 41.6256 189.031 41.6256C186.23 41.6256 184.345 39.877 184.268 37.1147H200.371V36.3021C200.371 29.3825 196.309 25.494 189.031 25.494C181.964 25.494 177.69 29.4188 177.69 35.5743C177.69 41.7673 182.03 45.6861 189.031 45.6861C193.232 45.6861 196.49 44.2462 198.497 41.7153L193.614 38.8997Z" fill="#F4F4F4"/>
<path d="M113 33.2055C113.213 30.8949 115 29.4296 117.73 29.4296C120.457 29.4296 122.242 30.8949 122.452 33.2055H113ZM122.172 38.9105C121.472 40.6277 119.827 41.6413 117.585 41.6413C114.789 41.6413 112.898 39.8877 112.825 37.1243H128.924V36.3165C128.924 29.3933 124.863 25.5036 117.585 25.5036C110.514 25.5036 106.249 29.4296 106.249 35.5851C106.249 41.7781 110.587 45.6969 117.585 45.6969C121.785 45.6969 125.045 44.2618 127.056 41.7272L122.172 38.9105Z" fill="#F4F4F4"/>
<path d="M104.806 21.3098H98.9989V45.0658H104.806V21.3098Z" fill="#F4F4F4"/>
<path d="M130.368 27.6215H136.208V29.0359C138.275 26.8295 140.757 25.7141 143.557 25.7141C146.782 25.7141 149.224 26.8295 150.484 28.7283C151.537 30.2965 151.606 32.1893 151.606 34.6767V45.0658H145.758V35.9373C145.758 32.1494 144.996 30.4007 141.671 30.4007C138.31 30.4007 136.208 32.4024 136.208 35.7629V45.0658H130.368V27.6215Z" fill="#F4F4F4"/>
<path d="M170.41 35.8686C170.41 39.1201 168.238 41.2526 164.876 41.2526C161.512 41.2526 159.339 39.1928 159.339 35.9062C159.339 32.5711 161.483 30.5124 164.876 30.5124C168.238 30.5124 170.41 32.6074 170.41 35.8686ZM170.41 28.4125C168.934 26.8297 166.798 25.9615 163.828 25.9615C157.422 25.9615 153.048 29.9117 153.048 35.8323C153.048 41.6366 157.392 45.697 163.723 45.697C166.626 45.697 168.757 44.9631 170.41 43.3174V45.0661H176.253V19.8036L170.41 21.3101V28.4125Z" fill="#F4F4F4"/>
<path d="M85.7276 30.5124C89.1233 30.5124 91.2583 32.5711 91.2583 35.9062C91.2583 39.1928 89.0894 41.2526 85.7276 41.2526C82.3683 41.2526 80.1983 39.1201 80.1983 35.8686C80.1983 32.6074 82.3683 30.5124 85.7276 30.5124ZM80.1983 21.3101L74.3528 19.8036V45.0661H80.1983V43.3174C81.8428 44.9631 83.9778 45.697 86.8829 45.697C93.2176 45.697 97.5554 41.6366 97.5554 35.8323C97.5554 29.9117 93.1801 25.9615 86.7776 25.9615C83.8022 25.9615 81.6672 26.8297 80.1983 28.4125V21.3101Z" fill="#F4F4F4"/>
<path d="M201.812 45.0659V27.6216H207.655V28.6993C209.405 26.5922 211.257 25.5435 213.363 25.5435C213.781 25.5435 214.306 25.6113 215.005 25.6803V30.6539C214.442 30.58 213.815 30.58 213.148 30.58C209.752 30.58 207.655 32.8203 207.655 36.6301V45.0659H201.812Z" fill="#F4F4F4"/>
<path d="M221.23 23.5612C221.23 23.9033 221.086 24.1377 220.799 24.2645L221.514 25.4718H220.747L220.21 24.4516H220.068V25.4718H219.377V22.707H220.174C220.538 22.707 220.805 22.7775 220.974 22.9183C221.145 23.0592 221.23 23.2735 221.23 23.5612ZM220.068 23.9445H220.162C220.294 23.9445 220.389 23.9164 220.445 23.86C220.504 23.8017 220.533 23.7061 220.533 23.5733C220.533 23.4425 220.505 23.3499 220.448 23.2956C220.392 23.2413 220.294 23.2141 220.156 23.2141H220.068V23.9445ZM218.04 24.0864C218.04 23.684 218.14 23.3067 218.342 22.9545C218.543 22.6024 218.82 22.3247 219.172 22.1215C219.524 21.9182 219.903 21.8166 220.31 21.8166C220.712 21.8166 221.089 21.9172 221.441 22.1185C221.794 22.3197 222.071 22.5964 222.274 22.9485C222.478 23.3006 222.579 23.6799 222.579 24.0864C222.579 24.4828 222.482 24.8551 222.287 25.2032C222.091 25.5513 221.818 25.83 221.466 26.0393C221.113 26.2485 220.728 26.3532 220.31 26.3532C219.893 26.3532 219.509 26.2495 219.157 26.0423C218.804 25.833 218.53 25.5543 218.333 25.2062C218.137 24.8581 218.04 24.4848 218.04 24.0864ZM218.468 24.0864C218.468 24.4164 218.551 24.7243 218.716 25.01C218.881 25.2937 219.106 25.5181 219.392 25.6831C219.678 25.8461 219.984 25.9276 220.31 25.9276C220.64 25.9276 220.946 25.8451 221.23 25.6801C221.516 25.5151 221.74 25.2897 221.903 25.004C222.068 24.7182 222.151 24.4124 222.151 24.0864C222.151 23.7564 222.068 23.4495 221.903 23.1658C221.738 22.8801 221.513 22.6557 221.227 22.4927C220.941 22.3277 220.636 22.2452 220.31 22.2452C219.98 22.2452 219.672 22.3277 219.386 22.4927C219.102 22.6577 218.878 22.8831 218.713 23.1688C218.55 23.4546 218.468 23.7604 218.468 24.0864Z" fill="#F4F4F4"/>
</svg>
