<svg width="169" height="54" viewBox="0 0 169 54" fill="none" xmlns="http://www.w3.org/2000/svg">
<path d="M167.654 36.9372C167.496 36.9439 167.344 37.001 167.221 37.1002C167.098 37.1995 167.01 37.3356 166.97 37.4885C165.244 42.4116 162.912 45.3446 160.994 45.3446C159.891 45.3446 159.445 44.1152 159.445 42.1856C159.445 37.3617 162.334 27.1351 163.789 22.4711C163.95 21.9864 164.043 21.4817 164.065 20.9715C164.065 19.6153 163.326 18.9482 161.49 18.9482C159.511 18.9482 157.383 19.7201 155.31 23.3586C154.593 20.1611 152.432 18.7608 149.406 18.7608C145.91 18.7608 142.536 21.0101 139.758 24.6542C136.979 28.2983 133.694 29.4946 131.257 28.9047C133.027 24.577 133.683 21.3464 133.683 18.9427C133.683 15.1773 131.825 12.906 128.815 12.906C124.244 12.906 121.609 17.2668 121.609 21.8536C121.609 25.3985 123.219 29.0205 126.753 30.8123C123.787 37.5161 119.465 43.5749 117.822 43.5749C115.699 43.5749 115.065 33.1939 115.198 25.7678C115.275 21.5063 115.628 21.2913 115.628 20.0012C115.628 19.2625 115.148 18.7553 113.218 18.7553C108.725 18.7553 107.336 22.5593 107.121 26.9311C107.054 28.5909 106.795 30.2374 106.349 31.8377C104.469 38.5415 100.599 43.6245 98.0798 43.6245C96.9111 43.6245 96.5913 42.4557 96.5913 40.9231C96.5913 36.0992 99.2927 30.0735 99.2927 24.9354C99.2927 21.1534 97.6388 18.7663 94.5129 18.7663C90.8358 18.7663 85.9678 23.1436 81.3645 31.347C82.8806 25.0677 83.5035 18.9868 79.016 18.9868C78.0434 19.0008 77.0886 19.2485 76.2319 19.709C75.9439 19.8435 75.703 20.0617 75.5408 20.3351C75.3785 20.6085 75.3024 20.9244 75.3223 21.2416C75.7523 27.9289 69.9361 45.0523 64.4176 45.0523C63.4142 45.0523 62.9291 43.9498 62.9291 42.2132C62.9291 37.3783 65.8069 27.1792 67.2568 22.5041C67.4288 21.9935 67.5253 21.4604 67.5434 20.9219C67.5434 19.6429 66.7496 18.9868 64.9579 18.9868C62.9897 18.9868 60.8507 19.7366 58.7888 23.3642C58.0666 20.1666 55.9 18.7663 52.8789 18.7663C47.9172 18.7663 42.4043 24.0092 39.9455 30.8453C36.6873 39.9694 30.1213 48.7847 21.2785 48.7847C13.2571 48.7847 9.02317 42.1084 9.02317 31.562C9.02317 16.3296 20.2035 3.88667 28.495 3.88667C32.4588 3.88667 34.3553 6.41164 34.3553 10.2873C34.3553 14.9789 31.7366 17.1565 31.7366 18.9427C31.7366 19.494 32.1887 20.0453 33.0928 20.0453C36.6983 20.0453 40.9378 15.8113 40.9378 10.0337C40.9378 4.25606 36.2352 0 27.9382 0C14.2329 0 0.439453 13.7825 0.439453 31.4628C0.439453 45.521 7.37478 54 19.371 54C27.5523 54 34.7026 47.638 38.5562 40.2175C38.9917 46.37 41.7868 49.5896 46.0483 49.5896C49.8358 49.5896 52.901 47.3347 55.244 43.3654C56.1426 47.5167 58.5518 49.5455 61.6445 49.5455C65.2059 49.5455 68.1885 47.2906 71.0166 43.0952C70.9725 46.403 71.7223 49.4848 74.578 49.4848C75.9232 49.4848 77.533 49.1706 77.8196 47.9963C80.8242 35.57 88.2502 25.426 90.4995 25.426C91.1721 25.426 91.3595 26.0766 91.3595 26.8429C91.3595 30.2168 88.9779 37.1412 88.9779 41.5571C88.9779 46.3314 91.0067 49.4904 95.202 49.4904C99.8495 49.4904 104.574 43.8009 107.722 35.4818C108.709 43.2551 110.837 49.5234 114.172 49.5234C118.263 49.5234 125.529 40.9121 129.934 31.7936C132.324 32.1454 134.759 31.5737 136.742 30.1948C135.652 32.9187 135.082 35.8226 135.061 38.7565C135.061 47.219 139.102 49.5896 142.581 49.5896C146.363 49.5896 149.428 47.3347 151.776 43.3654C152.548 46.9433 154.533 49.5344 158.166 49.5344C163.855 49.5344 168.8 43.7182 168.8 38.944C168.822 37.687 168.282 36.9372 167.654 36.9372ZM49.527 44.9035C47.2281 44.9035 46.3295 42.588 46.3295 39.1369C46.3295 33.1442 50.4312 23.1491 54.7644 23.1491C56.6608 23.1491 57.372 25.3544 57.372 28.1109C57.372 34.1807 53.4743 44.9035 49.527 44.9035ZM128.252 27.0138C126.976 25.3429 126.316 23.2825 126.383 21.181C126.383 18.7387 127.277 16.6769 128.346 16.6769C129.416 16.6769 129.746 17.7299 129.746 19.1963C129.741 21.6441 128.864 25.222 128.252 27.0138ZM146.076 44.9035C143.777 44.9035 142.878 42.2407 142.878 39.1369C142.878 33.3537 146.98 23.1491 151.346 23.1491C153.243 23.1491 153.915 25.3544 153.915 28.1109C153.915 34.1807 150.084 44.9035 146.076 44.9035Z" fill="#F4F4F4"/>
</svg>
