<svg width="187" height="61" viewBox="0 0 187 61" fill="none" xmlns="http://www.w3.org/2000/svg">
    <path
        d="M60.3604 9.20142V44.4248L64.8925 44.4388V27.6649H75.82V23.2313H64.8925V13.6329H79.124V9.19922L60.3604 9.20142Z"
        fill="#F4F4F4" />
    <path
        d="M87.2778 16.3515C88.9103 16.3515 90.2336 15.0281 90.2336 13.3957C90.2336 11.7632 88.9103 10.4399 87.2778 10.4399C85.6455 10.4399 84.322 11.7632 84.322 13.3957C84.322 15.0281 85.6455 16.3515 87.2778 16.3515Z"
        fill="#F4F4F4" />
    <path d="M84.9776 20.7863V44.4327H89.5097V20.7863H84.9776Z" fill="#F4F4F4" />
    <path fill-rule="evenodd" clip-rule="evenodd"
        d="M106.318 20.096C100.3 20.096 96.0998 25.1861 96.0998 31.2295C96.0998 37.273 100.3 42.3631 106.318 42.3631C109.074 42.3631 111.344 41.2963 112.997 39.5598V42.7079C112.997 46.6257 109.92 49.9003 105.903 49.9003C104.46 49.9003 103.025 49.3407 101.882 48.5531L99.6115 52.4863C101.425 53.6554 103.585 54.334 105.903 54.334C112.324 54.334 117.529 49.1288 117.529 42.7079V20.7857H112.997V22.8994C111.344 21.1627 109.074 20.096 106.318 20.096ZM100.632 31.2295C100.632 27.4782 103.501 24.5297 106.811 24.5297C110.121 24.5297 112.99 27.4782 112.99 31.2295C112.99 34.9807 110.121 37.9294 106.811 37.9294C103.501 37.9294 100.632 34.9807 100.632 31.2295Z"
        fill="#F4F4F4" />
    <path
        d="M133.864 24.5297C131.184 24.5297 129.011 26.8007 129.011 29.4806V44.4322H124.479V20.7857H129.011V22.9519C130.339 21.2352 132.296 20.096 134.849 20.096C138.025 20.096 140.462 21.6734 141.874 24.0874C143.443 21.7557 146.004 20.096 149.086 20.096C154.244 20.096 157.455 24.2578 157.485 29.4067C157.485 29.4223 157.485 29.4378 157.485 29.4535V29.456C157.485 29.4642 157.485 29.4724 157.485 29.4806V44.4322H152.953V29.4806C152.953 26.8007 150.781 24.5297 148.101 24.5297C145.421 24.5297 143.248 26.8007 143.248 29.4806V44.4322H138.716V29.4806C138.716 26.8007 136.544 24.5297 133.864 24.5297Z"
        fill="#F4F4F4" />
    <path fill-rule="evenodd" clip-rule="evenodd"
        d="M181.622 23.4662C179.606 21.3843 176.844 20.096 173.641 20.096C166.899 20.096 162.114 25.8047 162.114 32.6088C162.114 39.413 166.899 45.1218 173.641 45.1218C176.844 45.1218 179.606 43.8336 181.622 41.7516V44.4322H186.154V20.7857H181.622V23.4662ZM166.646 32.6088C166.646 28.0948 170.102 24.5297 174.134 24.5297C178.165 24.5297 181.622 28.0948 181.622 32.6088C181.622 37.1231 178.165 40.6881 174.134 40.6881C170.102 40.6881 166.646 37.1231 166.646 32.6088Z"
        fill="#F4F4F4" />
    <path
        d="M20.2686 30.479C20.2686 24.8826 24.8053 20.3457 30.4018 20.3457C35.9981 20.3457 40.535 24.8826 40.535 30.479C40.535 36.0755 35.9981 40.6123 30.4018 40.6123C24.8053 40.6123 20.2686 36.0755 20.2686 30.479Z"
        fill="#F4F4F4" />
    <path
        d="M0 50.7466C0 45.1502 4.53679 40.6133 10.1332 40.6133H20.2664V50.7466C20.2664 56.3431 15.7297 60.8799 10.1332 60.8799C4.53679 60.8799 0 56.3431 0 50.7466Z"
        fill="#F4F4F4" />
    <path
        d="M20.2686 0.0800781V20.3466H30.4018C35.9982 20.3466 40.535 15.8098 40.535 10.2134C40.535 4.61692 35.9982 0.0800781 30.4018 0.0800781H20.2686Z"
        fill="#F4F4F4" />
    <path
        d="M0 10.2134C0 15.8099 4.53679 20.3466 10.1332 20.3466H20.2664V0.0800781H10.1332C4.53679 0.0800781 0 4.61691 0 10.2134Z"
        fill="#F4F4F4" />
    <path
        d="M0 30.479C0 36.0755 4.53679 40.6123 10.1332 40.6123H20.2664V20.3457H10.1332C4.53679 20.3457 0 24.8826 0 30.479Z"
        fill="#F4F4F4" />
</svg>