<svg width="119" height="50" viewBox="0 0 119 50" fill="none" xmlns="http://www.w3.org/2000/svg">
<path d="M71.2936 17.3008C68.6931 17.3008 66.755 18.5791 66.755 21.653C66.755 23.9687 68.0306 25.578 71.1534 25.578C73.8007 25.578 75.599 24.0198 75.599 21.5573C75.599 18.7676 73.9898 17.3008 71.2936 17.3008ZM66.0925 39.0128C65.4768 39.7682 64.8632 40.5725 64.8632 41.5193C64.8632 43.4106 67.273 43.978 70.5844 43.978C73.3295 43.978 77.0659 43.7867 77.0659 41.2372C77.0659 39.7193 75.2681 39.6258 72.9963 39.4834L66.0925 39.0128ZM80.093 17.4432C80.9425 18.5323 81.843 20.0459 81.843 22.222C81.843 27.4698 77.7284 30.5459 71.7691 30.5459C70.2534 30.5459 68.8822 30.3568 68.0306 30.1193L66.4708 32.6263L71.1045 32.909C79.2887 33.4307 84.112 33.6687 84.112 39.9568C84.112 45.3959 79.3354 48.4704 71.1045 48.4704C62.5447 48.4704 59.28 46.2943 59.28 42.5573C59.28 40.4285 60.2268 39.2965 61.8828 37.7323C60.3203 37.0742 59.8023 35.8916 59.8023 34.6133C59.8023 33.5731 60.3203 32.6263 61.1735 31.7263C62.0246 30.8285 62.9697 29.9301 64.1056 28.8899C61.7893 27.7541 60.0377 25.2937 60.0377 21.7932C60.0377 16.3541 63.6317 12.6193 70.8691 12.6193C72.9028 12.6193 74.1322 12.8062 75.2213 13.0932H84.4452V17.1117L80.093 17.4432Z" fill="#F4F4F4"/>
<path d="M92.7665 8.84741C90.0703 8.84741 88.51 7.28763 88.51 4.58872C88.51 1.89469 90.0703 0.427847 92.7665 0.427847C95.511 0.427847 97.0719 1.89524 97.0719 4.58872C97.0719 7.28709 95.5116 8.84741 92.7665 8.84741ZM86.6649 37.274V33.5371L89.0768 33.2077C89.7393 33.1126 89.8344 32.9702 89.8344 32.2588V18.3539C89.8344 17.836 89.6926 17.5028 89.2192 17.3626L86.6649 16.4626L87.185 12.6327H96.9762V32.2599C96.9762 33.0202 97.023 33.1132 97.7344 33.2088L100.146 33.5382V37.2746L86.6649 37.274Z" fill="#F4F4F4"/>
<path d="M118.847 35.4391C116.813 36.4309 113.835 37.3309 111.137 37.3309C105.509 37.3309 103.381 35.0619 103.381 29.7141V17.3244C103.381 17.0396 103.381 16.851 103.001 16.851H99.6896V12.6413C103.855 12.1679 105.509 10.0853 106.029 4.9304H110.523V11.6478C110.523 11.9788 110.523 12.1206 110.901 12.1206H117.569V16.851H110.523V28.1538C110.523 30.9451 111.185 32.032 113.74 32.032C115.064 32.032 116.435 31.701 117.569 31.2766L118.847 35.4391Z" fill="#F4F4F4"/>
<path d="M49.0003 22.7936L27.3742 1.16942C27.078 0.872987 26.7262 0.637832 26.3391 0.477393C25.9519 0.316954 25.5369 0.234375 25.1178 0.234375C24.6987 0.234375 24.2837 0.316954 23.8966 0.477393C23.5094 0.637832 23.1577 0.872987 22.8614 1.16942L18.3723 5.66061L24.0678 11.356C24.7374 11.1286 25.4572 11.0931 26.146 11.2535C26.8347 11.4139 27.4648 11.7638 27.965 12.2637C28.468 12.7672 28.8191 13.4021 28.9782 14.0958C29.1373 14.7894 29.0979 15.5139 28.8647 16.1862L34.3558 21.6757C35.0283 21.4421 35.7531 21.4028 36.447 21.5622C37.1408 21.7216 37.7757 22.0733 38.2789 22.577C38.6314 22.9293 38.9109 23.3477 39.1017 23.8081C39.2924 24.2686 39.3906 24.7621 39.3906 25.2605C39.3906 25.7589 39.2924 26.2524 39.1017 26.7129C38.9109 27.1733 38.6314 27.5917 38.2789 27.9441C37.5663 28.6559 36.6003 29.0557 35.5932 29.0557C34.586 29.0557 33.62 28.6559 32.9074 27.9441C32.3781 27.4139 32.0174 26.7389 31.8709 26.0042C31.7243 25.2695 31.7984 24.5078 32.0838 23.8151L26.9629 18.6959V32.17C27.5034 32.437 27.9725 32.829 28.3314 33.3133C28.6903 33.7977 28.9286 34.3607 29.0266 34.9555C29.1246 35.5503 29.0795 36.1599 28.8949 36.7338C28.7104 37.3077 28.3918 37.8294 27.9655 38.2557C27.6131 38.6081 27.1948 38.8877 26.7343 39.0785C26.2739 39.2692 25.7804 39.3674 25.282 39.3674C24.7836 39.3674 24.29 39.2692 23.8296 39.0785C23.3691 38.8877 22.9508 38.6081 22.5984 38.2557C22.2458 37.9033 21.9662 37.4849 21.7754 37.0244C21.5846 36.5639 21.4864 36.0703 21.4864 35.5719C21.4864 35.0734 21.5846 34.5798 21.7754 34.1193C21.9662 33.6588 22.2458 33.2404 22.5984 32.888C22.9535 32.5322 23.3756 32.2502 23.8403 32.0585V18.4604C23.3775 18.2698 22.9569 17.9896 22.6027 17.6359C22.2485 17.2823 21.9677 16.8621 21.7763 16.3996C21.585 15.9371 21.4869 15.4413 21.4878 14.9408C21.4886 14.4403 21.5883 13.9449 21.7812 13.483L16.1655 7.86631L1.33557 22.6923C0.737972 23.2911 0.402344 24.1025 0.402344 24.9484C0.402344 25.7944 0.737972 26.6057 1.33557 27.2045L22.9628 48.8314C23.5615 49.4289 24.3728 49.7644 25.2186 49.7644C26.0644 49.7644 26.8757 49.4289 27.4745 48.8314L49.0003 27.3058C49.5979 26.7071 49.9336 25.8957 49.9336 25.0497C49.9336 24.2038 49.5979 23.3924 49.0003 22.7936Z" fill="#F4F4F4"/>
</svg>
