<svg width="231" height="60" viewBox="0 0 231 60" fill="none" xmlns="http://www.w3.org/2000/svg">
<path d="M51.5779 0H11.8363C5.81816 0 0.939453 4.87895 0.939453 10.8974V49.1026C0.939453 55.1211 5.81816 60 11.8363 60H51.5779C57.5961 60 62.4748 55.1211 62.4748 49.1026V10.8974C62.4748 4.87895 57.5961 0 51.5779 0Z" fill="#F4F4F4"/>
<path d="M30.7592 36.011H21.2235L19.2834 42.0382C19.257 42.1481 19.193 42.2453 19.1026 42.3131C19.0122 42.3809 18.9009 42.4151 18.788 42.4097H13.9583C13.6829 42.4097 13.5865 42.2583 13.6693 41.9556L21.9253 18.1771C22.0079 17.9295 22.0905 17.6474 22.173 17.3308C22.281 16.78 22.3363 16.2202 22.3381 15.659C22.3325 15.6197 22.3361 15.5797 22.3487 15.5421C22.3612 15.5044 22.3824 15.4703 22.4104 15.4422C22.4384 15.4142 22.4726 15.3931 22.5102 15.3805C22.5478 15.368 22.5878 15.3643 22.6271 15.3699H29.1905C29.3828 15.3699 29.4929 15.4388 29.5208 15.5764L38.8914 41.9968C38.9739 42.2723 38.8913 42.4099 38.6437 42.4097H33.2772C33.1851 42.4199 33.0923 42.3962 33.0164 42.343C32.9404 42.2899 32.8864 42.2108 32.8645 42.1207L30.7592 36.011ZM22.7096 30.8094H29.2318C29.0667 30.2593 28.8741 29.64 28.6539 28.9517C28.4334 28.2641 28.1994 27.5279 27.9522 26.7431C27.7045 25.9588 27.4568 25.1745 27.2091 24.3901C26.9614 23.6057 26.7344 22.8489 26.528 22.1195C26.3216 21.3907 26.1358 20.7233 25.9708 20.1174H25.9295C25.6971 21.2323 25.4078 22.3346 25.0626 23.4199C24.6769 24.6584 24.2847 25.9244 23.8861 27.2179C23.4868 28.5118 23.0947 29.709 22.7096 30.8094Z" fill="#252525"/>
<path d="M44.4717 19.7457C44.0506 19.7626 43.6308 19.6905 43.2395 19.534C42.8483 19.3775 42.4945 19.1402 42.2013 18.8375C41.9088 18.5218 41.6817 18.1514 41.5329 17.7475C41.3841 17.3437 41.3166 16.9145 41.3343 16.4845C41.3193 16.0587 41.3943 15.6346 41.5543 15.2398C41.7144 14.845 41.9559 14.4884 42.2631 14.1933C42.5674 13.9012 42.9265 13.6724 43.3198 13.5201C43.713 13.3677 44.1326 13.2949 44.5542 13.3057C45.5449 13.3057 46.3224 13.6016 46.8865 14.1933C47.1713 14.5008 47.3926 14.8614 47.5378 15.2546C47.683 15.6477 47.7492 16.0657 47.7327 16.4845C47.75 16.9161 47.6803 17.3469 47.5278 17.7511C47.3754 18.1553 47.1432 18.5248 46.8452 18.8375C46.5337 19.1446 46.162 19.3838 45.7535 19.5401C45.345 19.6964 44.9086 19.7664 44.4717 19.7457ZM41.6232 41.9967V22.2639C41.6232 22.0162 41.7329 21.8924 41.9535 21.8924H47.031C47.251 21.8924 47.3611 22.0162 47.3613 22.2639V41.9967C47.3613 42.2722 47.2512 42.4098 47.031 42.4096H41.9948C41.7472 42.4096 41.6233 42.2719 41.6232 41.9967Z" fill="#252525"/>
<path d="M85.0818 19.9587V43.666C85.0818 43.9253 85.0077 43.9994 84.7854 43.9994H80.896C80.6737 43.9994 80.5996 43.8883 80.5996 43.666V19.9587C80.5996 19.6994 80.7107 19.6623 80.896 19.6623H84.7854C85.0077 19.6623 85.0818 19.7364 85.0818 19.9587Z" fill="#F4F4F4"/>
<path d="M89.9593 39.5913V17.9213C89.9593 17.7361 90.0704 17.625 90.2926 17.625H94.108C94.3303 17.625 94.4414 17.7361 94.4414 17.9213V39.1839C94.4414 40.3322 94.8489 40.7026 95.7379 40.7026C96.0343 40.7026 96.1084 40.7026 96.4417 40.6656C96.5529 40.6285 96.5899 40.7026 96.5899 40.8878V43.666C96.5899 43.9253 96.5529 43.9624 96.3677 44.0735C95.9602 44.2587 95.2934 44.3698 94.2562 44.3698C91.8855 44.3698 89.9593 43.4808 89.9593 39.5913Z" fill="#F4F4F4"/>
<path d="M99.7626 39.5913V17.9213C99.7626 17.7361 99.8737 17.625 100.096 17.625H103.911C104.134 17.625 104.245 17.7361 104.245 17.9213V39.1839C104.245 40.3322 104.652 40.7026 105.541 40.7026C105.838 40.7026 105.912 40.7026 106.245 40.6656C106.356 40.6285 106.393 40.7026 106.393 40.8878V43.666C106.393 43.9253 106.356 43.9624 106.171 44.0735C105.763 44.2587 105.097 44.3698 104.06 44.3698C101.689 44.3698 99.7626 43.4808 99.7626 39.5913Z" fill="#F4F4F4"/>
<path d="M124.76 25.9967V39.9247C124.76 41.8509 124.908 42.9622 124.983 43.7401C125.02 43.9253 124.908 43.9994 124.686 43.9994H121.278C121.019 43.9994 120.945 43.9253 120.908 43.7772C120.797 43.4067 120.686 42.8511 120.649 42.4807C119.056 43.9624 117.167 44.3698 115.5 44.3698C111.981 44.3698 109.276 42.4807 109.276 37.2947V25.9967C109.276 25.7744 109.351 25.7374 109.573 25.7374H113.462C113.685 25.7374 113.722 25.8114 113.722 25.9967V36.7761C113.722 39.0727 114.722 40.4804 116.944 40.4804C118.352 40.4804 119.389 39.9988 120.315 39.1468V25.9967C120.315 25.8114 120.389 25.7374 120.612 25.7374H124.501C124.723 25.7374 124.76 25.8114 124.76 25.9967Z" fill="#F4F4F4"/>
<path d="M140.083 30.0343C138.934 29.4046 137.082 28.9601 135.452 28.9601C133.489 28.9601 132.822 29.775 132.822 30.5529C132.822 31.3679 133.378 31.9235 135.749 32.8496C139.972 34.4054 141.416 36.0723 141.416 38.7023C141.416 42.1843 138.675 44.3698 134.119 44.3698C131.933 44.3698 130.007 43.9624 128.896 43.3326C128.711 43.2215 128.636 43.1474 128.636 42.9252V39.4061C128.636 39.2209 128.785 39.1468 128.933 39.2209C130.526 40.2581 132.563 40.7026 134.23 40.7026C136.156 40.7026 137.082 40.0358 137.082 39.0727C137.082 38.1467 136.378 37.554 134.082 36.6279C130.044 35.1462 128.599 33.4793 128.599 30.8122C128.599 27.997 130.896 25.3669 135.526 25.3669C137.675 25.3669 139.305 25.6633 140.194 26.1078C140.379 26.2189 140.416 26.3671 140.416 26.5523V29.8121C140.416 29.9973 140.305 30.1084 140.083 30.0343Z" fill="#F4F4F4"/>
<path d="M153.684 40.7397V43.4067C153.684 43.629 153.647 43.7772 153.462 43.8512C152.462 44.2217 151.536 44.3698 150.313 44.3698C147.276 44.3698 145.461 42.8881 145.461 39.2209V29.4787H143.127C142.942 29.4416 142.868 29.3675 142.868 29.1453V26.0337C142.868 25.8114 142.942 25.7374 143.164 25.7374H145.498C145.535 24.4409 145.683 22.1072 145.868 21.1811C145.905 20.9959 145.979 20.8848 146.164 20.8477L149.906 20.3291C150.091 20.2921 150.165 20.3291 150.165 20.5143C150.054 21.7367 149.98 23.9223 149.98 25.7374H153.573C153.758 25.7374 153.832 25.8114 153.832 25.9967V29.2194C153.832 29.4046 153.758 29.4787 153.573 29.4787H149.943V38.2578C149.943 39.8877 150.461 40.6656 152.054 40.6656C152.536 40.6656 152.943 40.6285 153.462 40.5174C153.573 40.4804 153.684 40.5174 153.684 40.7397Z" fill="#F4F4F4"/>
<path d="M156.883 25.7374H160.365C160.587 25.7374 160.698 25.8114 160.773 26.0337C160.958 26.5153 161.106 27.4413 161.143 28.2563C162.402 26.7005 164.514 25.3669 167.07 25.3669C167.292 25.3669 167.366 25.404 167.366 25.6262V29.5528C167.366 29.738 167.292 29.8121 167.033 29.8121C164.403 29.738 162.217 30.664 161.365 31.7753V43.7031C161.365 43.9253 161.254 43.9994 161.032 43.9994H157.179C156.92 43.9994 156.846 43.8883 156.846 43.7031V30.9233C156.846 29.3305 156.809 27.182 156.661 25.9596C156.661 25.7744 156.698 25.7374 156.883 25.7374Z" fill="#F4F4F4"/>
<path d="M178.951 40.4063V35.85C178.396 35.7759 177.766 35.7389 176.914 35.7389C173.987 35.7389 172.691 36.702 172.691 38.2948C172.691 39.6654 173.654 40.8508 176.321 40.8508C177.284 40.8508 178.136 40.7397 178.951 40.4063ZM183.285 32.7014V40.2211C183.285 41.036 183.285 41.7769 183.359 42.5548C183.359 42.6288 183.359 42.6659 183.285 42.7029C180.248 43.9994 178.099 44.3698 175.58 44.3698C171.543 44.3698 168.32 42.4807 168.32 38.2948C168.32 34.3683 171.839 32.405 176.655 32.405C177.766 32.405 178.618 32.4421 178.951 32.4791V32.0346C178.951 31.1826 178.47 29.2564 175.21 29.2564C173.358 29.2564 171.728 29.6268 170.357 30.2936C170.246 30.3307 170.061 30.2936 170.061 30.0714V26.8486C170.061 26.6634 170.098 26.5893 170.283 26.4782C171.876 25.7374 173.913 25.3669 175.914 25.3669C181.063 25.3669 183.285 28.5896 183.285 32.7014Z" fill="#F4F4F4"/>
<path d="M196.406 40.7397V43.4067C196.406 43.629 196.369 43.7772 196.184 43.8512C195.184 44.2217 194.258 44.3698 193.035 44.3698C189.998 44.3698 188.183 42.8881 188.183 39.2209V29.4787H185.849C185.664 29.4416 185.59 29.3675 185.59 29.1453V26.0337C185.59 25.8114 185.664 25.7374 185.886 25.7374H188.22C188.257 24.4409 188.405 22.1072 188.59 21.1811C188.627 20.9959 188.701 20.8848 188.886 20.8477L192.628 20.3291C192.813 20.2921 192.887 20.3291 192.887 20.5143C192.776 21.7367 192.702 23.9223 192.702 25.7374H196.295C196.48 25.7374 196.554 25.8114 196.554 25.9967V29.2194C196.554 29.4046 196.48 29.4787 196.295 29.4787H192.665V38.2578C192.665 39.8877 193.183 40.6656 194.776 40.6656C195.258 40.6656 195.665 40.6285 196.184 40.5174C196.295 40.4804 196.406 40.5174 196.406 40.7397Z" fill="#F4F4F4"/>
<path d="M207.313 25.3669C213.017 25.3669 216.129 29.7009 216.129 34.7758C216.129 40.5174 212.462 44.3698 207.239 44.3698C201.052 44.3698 198.311 39.5913 198.311 34.8869C198.311 29.6268 201.756 25.3669 207.313 25.3669ZM207.09 29.1082C204.609 29.1082 202.83 31.2938 202.83 34.8128C202.83 38.2208 204.497 40.5915 207.313 40.5915C209.609 40.5915 211.573 38.7023 211.573 34.8869C211.573 31.8124 210.239 29.1082 207.09 29.1082Z" fill="#F4F4F4"/>
<path d="M219.646 25.7374H223.128C223.35 25.7374 223.461 25.8114 223.535 26.0337C223.721 26.5153 223.869 27.4413 223.906 28.2563C225.165 26.7005 227.277 25.3669 229.833 25.3669C230.055 25.3669 230.129 25.404 230.129 25.6262V29.5528C230.129 29.738 230.055 29.8121 229.796 29.8121C227.166 29.738 224.98 30.664 224.128 31.7753V43.7031C224.128 43.9253 224.017 43.9994 223.795 43.9994H219.942C219.683 43.9994 219.609 43.8883 219.609 43.7031V30.9233C219.609 29.3305 219.572 27.182 219.424 25.9596C219.424 25.7744 219.461 25.7374 219.646 25.7374Z" fill="#F4F4F4"/>
</svg>
