<svg width="246" height="60" viewBox="0 0 246 60" fill="none" xmlns="http://www.w3.org/2000/svg">
<path d="M51.0779 0H11.3363C5.31816 0 0.439453 4.87895 0.439453 10.8974V49.1026C0.439453 55.1211 5.31816 60 11.3363 60H51.0779C57.0961 60 61.9748 55.1211 61.9748 49.1026V10.8974C61.9748 4.87895 57.0961 0 51.0779 0Z" fill="#F4F4F4"/>
<path d="M14.291 42.0753V15.6961C14.291 15.5038 14.3736 15.4071 14.5388 15.4071C14.9786 15.4071 15.3802 15.4006 15.9859 15.3864C16.5909 15.3729 17.2445 15.3592 17.9466 15.3452C18.6485 15.3316 19.3916 15.3178 20.1758 15.3039C20.9601 15.2903 21.7375 15.2835 22.5081 15.2832C24.5992 15.2832 26.3605 15.5447 27.7919 16.0676C29.0831 16.5044 30.2607 17.2236 31.2389 18.173C32.068 18.9958 32.7088 19.9888 33.117 21.0834C33.5032 22.1486 33.6989 23.2735 33.695 24.4066C33.695 26.6087 33.1859 28.4251 32.1677 29.8558C31.1427 31.2924 29.702 32.3802 28.0397 32.9726C26.3059 33.6196 24.3792 33.839 22.2605 33.839C21.6548 33.839 21.2282 33.8321 20.9807 33.8183C20.7331 33.8047 20.3616 33.7978 19.8663 33.7977V42.034C19.8735 42.0845 19.8688 42.1359 19.8527 42.1843C19.8366 42.2327 19.8094 42.2766 19.7733 42.3127C19.7373 42.3487 19.6933 42.3759 19.645 42.392C19.5966 42.4081 19.5452 42.4128 19.4947 42.4056H14.58C14.3872 42.4056 14.291 42.2959 14.291 42.0753ZM19.8662 20.3609V28.9647C20.2235 28.9925 20.5538 29.0062 20.8569 29.006H22.2191C23.2215 29.0027 24.2172 28.8437 25.1707 28.5348C25.9885 28.2919 26.7193 27.819 27.276 27.1725C27.8126 26.5397 28.0809 25.659 28.081 24.5304C28.1027 23.7319 27.895 22.9439 27.4823 22.2599C27.0485 21.5985 26.4215 21.0868 25.6866 20.7944C24.7271 20.4214 23.7022 20.2459 22.6732 20.2784C22.0127 20.2784 21.4279 20.2853 20.9189 20.299C20.4093 20.3132 20.0585 20.3338 19.8662 20.3609Z" fill="#252525"/>
<path d="M49.657 27.3994C48.8812 27.0008 48.055 26.7091 47.2008 26.5325C46.2597 26.3165 45.2975 26.2057 44.3319 26.2022C43.8096 26.188 43.288 26.2506 42.7838 26.388C42.463 26.4594 42.1778 26.6423 41.9789 26.904C41.8443 27.1134 41.7727 27.3569 41.7725 27.6058C41.7801 27.8472 41.8671 28.0794 42.0202 28.2663C42.2613 28.5484 42.5559 28.7799 42.887 28.9475C43.4756 29.2644 44.082 29.547 44.7033 29.7937C46.0888 30.2575 47.4126 30.8883 48.6456 31.6721C49.4855 32.2022 50.1806 32.9328 50.6683 33.7981C51.0784 34.6175 51.2838 35.524 51.2669 36.4402C51.2916 37.6499 50.9459 38.8382 50.2762 39.8459C49.5592 40.8689 48.5633 41.6641 47.4071 42.1371C46.1546 42.6873 44.6066 42.9625 42.7632 42.9627C41.5922 42.9746 40.4231 42.8639 39.275 42.6325C38.3705 42.4666 37.49 42.1893 36.6537 41.8068C36.5635 41.7602 36.4884 41.6889 36.4372 41.6011C36.386 41.5134 36.3609 41.4129 36.3648 41.3114V36.853C36.3598 36.8093 36.3668 36.7651 36.385 36.7251C36.4032 36.6852 36.4319 36.6509 36.4681 36.6259C36.5035 36.6059 36.5442 36.5971 36.5848 36.6008C36.6253 36.6045 36.6638 36.6205 36.695 36.6466C37.6827 37.229 38.7551 37.6538 39.8736 37.9057C40.8595 38.1528 41.8707 38.2844 42.887 38.2978C43.85 38.2978 44.5587 38.174 45.0129 37.9263C45.2181 37.8324 45.3916 37.681 45.5125 37.4905C45.6334 37.3 45.6965 37.0786 45.6941 36.853C45.6941 36.4956 45.4877 36.1516 45.0749 35.8209C44.6622 35.4907 43.8228 35.0916 42.5568 34.6237C41.2606 34.1726 40.0316 33.5476 38.9035 32.7661C38.0966 32.2048 37.4321 31.4626 36.9633 30.5987C36.5574 29.7853 36.3521 28.8864 36.3648 27.9773C36.3625 26.8851 36.6625 25.8135 37.2316 24.8812C37.8806 23.8546 38.8124 23.0374 39.9149 22.5281C41.1255 21.9231 42.6391 21.6203 44.4557 21.6199C45.5196 21.6113 46.5824 21.6873 47.6343 21.847C48.396 21.9436 49.1406 22.145 49.8472 22.4455C49.9032 22.4616 49.9547 22.4905 49.9977 22.5299C50.0407 22.5693 50.0739 22.6181 50.0948 22.6726C50.1227 22.7734 50.1366 22.8776 50.1361 22.9822V27.1517C50.139 27.2002 50.129 27.2486 50.1073 27.2921C50.0856 27.3356 50.0528 27.3726 50.0123 27.3994C49.9571 27.4269 49.8963 27.4411 49.8346 27.4411C49.773 27.4411 49.7122 27.4269 49.657 27.3994Z" fill="#252525"/>
<path d="M80.084 43.7423V20.0758C80.084 19.8912 80.1578 19.7805 80.3424 19.7805C81.7454 19.7436 84.4776 19.6697 87.1728 19.6697C94.3356 19.6697 96.9939 23.6572 96.9939 27.7185C96.9939 33.589 92.4526 36.1366 86.8775 36.1366C85.696 36.1366 85.4006 36.1366 84.5514 36.1366V43.7054C84.5514 43.89 84.4776 44.0008 84.2561 44.0008H80.3794C80.1947 44.0008 80.084 43.9269 80.084 43.7423ZM84.5514 23.6203V32.186C85.1791 32.2229 85.6591 32.2229 86.8775 32.2229C89.9789 32.2229 92.6003 31.1891 92.6003 27.8293C92.6003 25.134 90.6804 23.5464 87.2836 23.5464C85.9914 23.5464 84.9576 23.5834 84.5514 23.6203Z" fill="#F4F4F4"/>
<path d="M105.094 30.5984V43.7423C105.094 43.9269 105.057 44.0008 104.835 44.0008H100.922C100.7 44.0008 100.626 43.89 100.626 43.7054V17.9713C100.626 17.8237 100.7 17.7129 100.922 17.7129H104.835C105.057 17.7129 105.094 17.7867 105.094 17.9713V27.1278C106.497 26.094 108.047 25.4294 110.152 25.4294C112.958 25.4294 116.318 26.8324 116.318 32.7398V43.6685C116.318 43.9269 116.207 44.0008 116.022 44.0008H112.183C111.961 44.0008 111.85 43.89 111.85 43.6685V33.1829C111.85 30.7091 110.78 29.3061 108.638 29.3061C107.272 29.3061 106.054 29.7492 105.094 30.5984Z" fill="#F4F4F4"/>
<path d="M128.825 25.4294C134.511 25.4294 137.612 29.7492 137.612 34.8074C137.612 40.5302 133.957 44.37 128.751 44.37C122.585 44.37 119.853 39.6071 119.853 34.9182C119.853 29.6753 123.287 25.4294 128.825 25.4294ZM128.604 29.1585C126.13 29.1585 124.358 31.3368 124.358 34.8443C124.358 38.2411 126.019 40.604 128.825 40.604C131.114 40.604 133.071 38.721 133.071 34.9182C133.071 31.8537 131.742 29.1585 128.604 29.1585Z" fill="#F4F4F4"/>
<path d="M149.936 40.7517V43.41C149.936 43.6315 149.899 43.7792 149.714 43.8531C148.718 44.2223 147.795 44.37 146.576 44.37C143.549 44.37 141.739 42.8931 141.739 39.2379V29.5277H139.413C139.229 29.4907 139.155 29.4169 139.155 29.1954V26.094C139.155 25.8725 139.229 25.7986 139.45 25.7986H141.776C141.813 24.5064 141.961 22.1804 142.146 21.2573C142.182 21.0727 142.256 20.962 142.441 20.925L146.17 20.4081C146.355 20.3712 146.428 20.4081 146.428 20.5927C146.318 21.8111 146.244 23.9895 146.244 25.7986H149.825C150.01 25.7986 150.084 25.8725 150.084 26.0571V29.2692C150.084 29.4538 150.01 29.5277 149.825 29.5277H146.207V38.278C146.207 39.9025 146.724 40.6779 148.311 40.6779C148.791 40.6779 149.198 40.6409 149.714 40.5302C149.825 40.4932 149.936 40.5302 149.936 40.7517Z" fill="#F4F4F4"/>
<path d="M160.807 25.4294C166.492 25.4294 169.594 29.7492 169.594 34.8074C169.594 40.5302 165.939 44.37 160.733 44.37C154.567 44.37 151.835 39.6071 151.835 34.9182C151.835 29.6753 155.268 25.4294 160.807 25.4294ZM160.585 29.1585C158.111 29.1585 156.339 31.3368 156.339 34.8443C156.339 38.2411 158.001 40.604 160.807 40.604C163.096 40.604 165.053 38.721 165.053 34.9182C165.053 31.8537 163.723 29.1585 160.585 29.1585Z" fill="#F4F4F4"/>
<path d="M183.937 30.0815C182.792 29.4538 180.946 29.0108 179.322 29.0108C177.365 29.0108 176.7 29.823 176.7 30.5984C176.7 31.4106 177.254 31.9645 179.617 32.8875C183.826 34.4382 185.266 36.0996 185.266 38.721C185.266 42.1916 182.534 44.37 177.993 44.37C175.814 44.37 173.894 43.9638 172.787 43.3362C172.602 43.2254 172.528 43.1516 172.528 42.93V39.4225C172.528 39.2379 172.676 39.1641 172.824 39.2379C174.411 40.2717 176.442 40.7148 178.103 40.7148C180.023 40.7148 180.946 40.0502 180.946 39.0902C180.946 38.1672 180.245 37.5765 177.956 36.6534C173.931 35.1766 172.491 33.5151 172.491 30.8568C172.491 28.0508 174.78 25.4294 179.396 25.4294C181.537 25.4294 183.162 25.7248 184.048 26.1678C184.232 26.2786 184.269 26.4263 184.269 26.6109V29.86C184.269 30.0446 184.158 30.1553 183.937 30.0815Z" fill="#F4F4F4"/>
<path d="M192.89 30.5984V43.7423C192.89 43.9269 192.853 44.0008 192.631 44.0008H188.718C188.496 44.0008 188.422 43.89 188.422 43.7054V17.9713C188.422 17.8237 188.496 17.7129 188.718 17.7129H192.631C192.853 17.7129 192.89 17.7867 192.89 17.9713V27.1278C194.293 26.094 195.843 25.4294 197.948 25.4294C200.754 25.4294 204.114 26.8324 204.114 32.7398V43.6685C204.114 43.9269 204.003 44.0008 203.818 44.0008H199.979C199.757 44.0008 199.646 43.89 199.646 43.6685V33.1829C199.646 30.7091 198.576 29.3061 196.434 29.3061C195.068 29.3061 193.85 29.7492 192.89 30.5984Z" fill="#F4F4F4"/>
<path d="M216.621 25.4294C222.307 25.4294 225.408 29.7492 225.408 34.8074C225.408 40.5302 221.753 44.37 216.547 44.37C210.381 44.37 207.649 39.6071 207.649 34.9182C207.649 29.6753 211.083 25.4294 216.621 25.4294ZM216.4 29.1585C213.926 29.1585 212.154 31.3368 212.154 34.8443C212.154 38.2411 213.815 40.604 216.621 40.604C218.91 40.604 220.867 38.721 220.867 34.9182C220.867 31.8537 219.538 29.1585 216.4 29.1585Z" fill="#F4F4F4"/>
<path d="M236.372 25.4294C242.464 25.4294 245.491 29.5646 245.491 34.2905C245.491 41.0471 240.027 44.37 234.452 44.37C234.046 44.37 233.677 44.333 233.344 44.2961V50.9419C233.344 51.0896 233.307 51.2004 233.086 51.2373C231.794 51.385 229.32 51.6065 229.135 51.6065C228.914 51.6065 228.877 51.5696 228.877 51.385V29.2692C228.877 28.8262 228.84 27.6078 228.766 27.0909C228.766 27.0539 228.766 26.9432 228.914 26.9063C230.575 26.3524 233.16 25.4294 236.372 25.4294ZM235.966 29.2323C234.969 29.2323 234.157 29.3431 233.344 29.6015V40.4932C233.75 40.604 234.341 40.604 234.821 40.604C237.701 40.604 240.913 38.9056 240.913 34.5859C240.913 31.226 239.104 29.2323 235.966 29.2323Z" fill="#F4F4F4"/>
</svg>
