<svg width="4250" height="100" viewBox="0 0 4250 100" fill="none" xmlns="http://www.w3.org/2000/svg">
<path d="M204.951 29.1213V64.3447L209.483 64.3587V47.5849H220.411V43.1512H209.483V33.5528H223.715V29.1191L204.951 29.1213Z" fill="#F4F4F4"/>
<path d="M231.869 36.2714C233.501 36.2714 234.824 34.948 234.824 33.3156C234.824 31.6831 233.501 30.3598 231.869 30.3598C230.236 30.3598 228.913 31.6831 228.913 33.3156C228.913 34.948 230.236 36.2714 231.869 36.2714Z" fill="#F4F4F4"/>
<path d="M229.568 40.7062V64.3527H234.101V40.7062H229.568Z" fill="#F4F4F4"/>
<path fill-rule="evenodd" clip-rule="evenodd" d="M250.909 40.0159C244.891 40.0159 240.691 45.106 240.691 51.1494C240.691 57.1929 244.891 62.283 250.909 62.283C253.665 62.283 255.935 61.2162 257.588 59.4797V62.6279C257.588 66.5456 254.51 69.8203 250.494 69.8203C249.05 69.8203 247.616 69.2606 246.473 68.473L244.202 72.4062C246.016 73.5754 248.176 74.2539 250.494 74.2539C256.915 74.2539 262.12 69.0487 262.12 62.6279V40.7056H257.588V42.8193C255.935 41.0827 253.665 40.0159 250.909 40.0159ZM245.223 51.1494C245.223 47.3982 248.092 44.4496 251.402 44.4496C254.712 44.4496 257.581 47.3982 257.581 51.1494C257.581 54.9007 254.712 57.8493 251.402 57.8493C248.092 57.8493 245.223 54.9007 245.223 51.1494Z" fill="#F4F4F4"/>
<path d="M278.454 44.4496C275.775 44.4496 273.602 46.7206 273.602 49.4005V64.3521H269.07V40.7056H273.602V42.8718C274.93 41.1551 276.886 40.0159 279.44 40.0159C282.615 40.0159 285.053 41.5933 286.464 44.0073C288.034 41.6756 290.595 40.0159 293.677 40.0159C298.835 40.0159 302.046 44.1777 302.076 49.3266C302.076 49.3422 302.076 49.3577 302.076 49.3735V49.3759C302.076 49.3841 302.076 49.3923 302.076 49.4005V64.3521H297.544V49.4005C297.544 46.7206 295.371 44.4496 292.692 44.4496C290.011 44.4496 287.839 46.7206 287.839 49.4005V64.3521H283.307V49.4005C283.307 46.7206 281.134 44.4496 278.454 44.4496Z" fill="#F4F4F4"/>
<path fill-rule="evenodd" clip-rule="evenodd" d="M326.213 43.3862C324.196 41.3042 321.435 40.0159 318.232 40.0159C311.49 40.0159 306.705 45.7247 306.705 52.5288C306.705 59.333 311.49 65.0417 318.232 65.0417C321.435 65.0417 324.196 63.7535 326.213 61.6715V64.3521H330.745V40.7056H326.213V43.3862ZM311.237 52.5288C311.237 48.0147 314.693 44.4496 318.725 44.4496C322.756 44.4496 326.213 48.0147 326.213 52.5288C326.213 57.043 322.756 60.608 318.725 60.608C314.693 60.608 311.237 57.043 311.237 52.5288Z" fill="#F4F4F4"/>
<path d="M164.685 50.3989C164.685 44.8026 169.221 40.2656 174.818 40.2656C180.414 40.2656 184.951 44.8026 184.951 50.3989C184.951 55.9955 180.414 60.5323 174.818 60.5323C169.221 60.5323 164.685 55.9955 164.685 50.3989Z" fill="#F4F4F4"/>
<path d="M144.416 70.6665C144.416 65.0701 148.953 60.5332 154.549 60.5332H164.682V70.6665C164.682 76.263 160.146 80.7998 154.549 80.7998C148.953 80.7998 144.416 76.263 144.416 70.6665Z" fill="#F4F4F4"/>
<path d="M164.685 20V40.2666H174.818C180.414 40.2666 184.951 35.7298 184.951 30.1333C184.951 24.5368 180.414 20 174.818 20H164.685Z" fill="#F4F4F4"/>
<path d="M144.416 30.1333C144.416 35.7298 148.953 40.2666 154.549 40.2666H164.682V20H154.549C148.953 20 144.416 24.5368 144.416 30.1333Z" fill="#F4F4F4"/>
<path d="M144.416 50.3989C144.416 55.9955 148.953 60.5323 154.549 60.5323H164.682V40.2656H154.549C148.953 40.2656 144.416 44.8026 144.416 50.3989Z" fill="#F4F4F4"/>
<path d="M549.555 21H509.813C503.795 21 498.916 25.8789 498.916 31.8974V70.1026C498.916 76.1211 503.795 81 509.813 81H549.555C555.573 81 560.451 76.1211 560.451 70.1026V31.8974C560.451 25.8789 555.573 21 549.555 21Z" fill="#F4F4F4"/>
<path d="M528.736 57.011H519.2L517.26 63.0382C517.234 63.1481 517.17 63.2453 517.079 63.3131C516.989 63.3809 516.877 63.4151 516.765 63.4097H511.935C511.659 63.4097 511.563 63.2583 511.646 62.9556L519.902 39.1771C519.984 38.9295 520.067 38.6474 520.15 38.3308C520.258 37.78 520.313 37.2202 520.315 36.659C520.309 36.6197 520.313 36.5797 520.325 36.5421C520.338 36.5044 520.359 36.4703 520.387 36.4422C520.415 36.4142 520.449 36.3931 520.487 36.3805C520.524 36.368 520.564 36.3643 520.604 36.3699H527.167C527.359 36.3699 527.469 36.4388 527.497 36.5764L536.868 62.9968C536.95 63.2723 536.868 63.4099 536.62 63.4097H531.254C531.162 63.4199 531.069 63.3962 530.993 63.343C530.917 63.2898 530.863 63.2108 530.841 63.1207L528.736 57.011ZM520.686 51.8094H527.208C527.043 51.2593 526.851 50.64 526.631 49.9517C526.41 49.2641 526.176 48.5279 525.929 47.7431C525.681 46.9588 525.433 46.1745 525.186 45.3901C524.938 44.6057 524.711 43.8489 524.505 43.1195C524.298 42.3907 524.112 41.7233 523.947 41.1174H523.906C523.674 42.2323 523.384 43.3346 523.039 44.4199C522.653 45.6584 522.261 46.9244 521.863 48.2179C521.463 49.5118 521.071 50.709 520.686 51.8094Z" fill="#252525"/>
<path d="M542.448 40.7457C542.027 40.7626 541.607 40.6905 541.216 40.534C540.825 40.3775 540.471 40.1402 540.178 39.8375C539.885 39.5218 539.658 39.1514 539.509 38.7475C539.361 38.3437 539.293 37.9145 539.311 37.4845C539.296 37.0587 539.371 36.6346 539.531 36.2398C539.691 35.845 539.932 35.4884 540.24 35.1933C540.544 34.9012 540.903 34.6724 541.296 34.5201C541.69 34.3677 542.109 34.2949 542.531 34.3057C543.522 34.3057 544.299 34.6016 544.863 35.1933C545.148 35.5008 545.369 35.8614 545.514 36.2546C545.66 36.6477 545.726 37.0657 545.709 37.4845C545.727 37.9161 545.657 38.3469 545.504 38.7511C545.352 39.1553 545.12 39.5248 544.822 39.8375C544.51 40.1446 544.139 40.3838 543.73 40.5401C543.322 40.6964 542.885 40.7664 542.448 40.7457ZM539.6 62.9967V43.2639C539.6 43.0162 539.709 42.8924 539.93 42.8924H545.008C545.228 42.8924 545.338 43.0162 545.338 43.2639V62.9967C545.338 63.2722 545.228 63.4098 545.008 63.4096H539.971C539.724 63.4096 539.6 63.2719 539.6 62.9967Z" fill="#252525"/>
<path d="M583.058 40.9587V64.666C583.058 64.9253 582.984 64.9994 582.762 64.9994H578.873C578.65 64.9994 578.576 64.8883 578.576 64.666V40.9587C578.576 40.6994 578.687 40.6623 578.873 40.6623H582.762C582.984 40.6623 583.058 40.7364 583.058 40.9587Z" fill="#F4F4F4"/>
<path d="M587.936 60.5913V38.9213C587.936 38.7361 588.047 38.625 588.269 38.625H592.085C592.307 38.625 592.418 38.7361 592.418 38.9213V60.1839C592.418 61.3322 592.825 61.7026 593.714 61.7026C594.011 61.7026 594.085 61.7026 594.418 61.6656C594.529 61.6285 594.566 61.7026 594.566 61.8878V64.666C594.566 64.9253 594.529 64.9624 594.344 65.0735C593.937 65.2587 593.27 65.3698 592.233 65.3698C589.862 65.3698 587.936 64.4808 587.936 60.5913Z" fill="#F4F4F4"/>
<path d="M597.739 60.5913V38.9213C597.739 38.7361 597.85 38.625 598.073 38.625H601.888C602.11 38.625 602.221 38.7361 602.221 38.9213V60.1839C602.221 61.3322 602.629 61.7026 603.518 61.7026C603.814 61.7026 603.888 61.7026 604.222 61.6656C604.333 61.6285 604.37 61.7026 604.37 61.8878V64.666C604.37 64.9253 604.333 64.9624 604.148 65.0735C603.74 65.2587 603.073 65.3698 602.036 65.3698C599.665 65.3698 597.739 64.4808 597.739 60.5913Z" fill="#F4F4F4"/>
<path d="M622.737 46.9967V60.9247C622.737 62.8509 622.885 63.9622 622.959 64.7401C622.996 64.9253 622.885 64.9994 622.663 64.9994H619.255C618.996 64.9994 618.921 64.9253 618.884 64.7772C618.773 64.4067 618.662 63.8511 618.625 63.4807C617.032 64.9624 615.143 65.3698 613.476 65.3698C609.957 65.3698 607.253 63.4807 607.253 58.2947V46.9967C607.253 46.7744 607.327 46.7374 607.549 46.7374H611.439C611.661 46.7374 611.698 46.8114 611.698 46.9967V57.7761C611.698 60.0727 612.698 61.4804 614.921 61.4804C616.328 61.4804 617.366 60.9988 618.292 60.1468V46.9967C618.292 46.8114 618.366 46.7374 618.588 46.7374H622.478C622.7 46.7374 622.737 46.8114 622.737 46.9967Z" fill="#F4F4F4"/>
<path d="M638.059 51.0343C636.911 50.4046 635.059 49.9601 633.429 49.9601C631.466 49.9601 630.799 50.775 630.799 51.5529C630.799 52.3679 631.355 52.9235 633.725 53.8496C637.948 55.4054 639.393 57.0723 639.393 59.7023C639.393 63.1843 636.652 65.3698 632.095 65.3698C629.91 65.3698 627.984 64.9624 626.872 64.3326C626.687 64.2215 626.613 64.1474 626.613 63.9252V60.4061C626.613 60.2209 626.761 60.1468 626.909 60.2209C628.502 61.2581 630.54 61.7026 632.207 61.7026C634.133 61.7026 635.059 61.0358 635.059 60.0727C635.059 59.1467 634.355 58.554 632.058 57.6279C628.021 56.1462 626.576 54.4793 626.576 51.8122C626.576 48.997 628.873 46.3669 633.503 46.3669C635.651 46.3669 637.281 46.6633 638.17 47.1078C638.356 47.2189 638.393 47.3671 638.393 47.5523V50.8121C638.393 50.9973 638.282 51.1084 638.059 51.0343Z" fill="#F4F4F4"/>
<path d="M651.661 61.7397V64.4067C651.661 64.629 651.624 64.7772 651.438 64.8512C650.438 65.2217 649.512 65.3698 648.29 65.3698C645.252 65.3698 643.437 63.8881 643.437 60.2209V50.4787H641.103C640.918 50.4416 640.844 50.3675 640.844 50.1453V47.0337C640.844 46.8114 640.918 46.7374 641.14 46.7374H643.474C643.511 45.4409 643.659 43.1072 643.845 42.1811C643.882 41.9959 643.956 41.8848 644.141 41.8477L647.882 41.3291C648.067 41.2921 648.142 41.3291 648.142 41.5143C648.03 42.7367 647.956 44.9223 647.956 46.7374H651.549C651.735 46.7374 651.809 46.8114 651.809 46.9967V50.2194C651.809 50.4046 651.735 50.4787 651.549 50.4787H647.919V59.2578C647.919 60.8877 648.438 61.6656 650.031 61.6656C650.512 61.6656 650.92 61.6285 651.438 61.5174C651.549 61.4804 651.661 61.5174 651.661 61.7397Z" fill="#F4F4F4"/>
<path d="M654.86 46.7374H658.342C658.564 46.7374 658.675 46.8114 658.749 47.0337C658.934 47.5153 659.082 48.4413 659.119 49.2563C660.379 47.7005 662.49 46.3669 665.046 46.3669C665.269 46.3669 665.343 46.404 665.343 46.6262V50.5528C665.343 50.738 665.269 50.8121 665.009 50.8121C662.379 50.738 660.194 51.664 659.342 52.7753V64.7031C659.342 64.9253 659.231 64.9994 659.008 64.9994H655.156C654.897 64.9994 654.823 64.8883 654.823 64.7031V51.9233C654.823 50.3305 654.785 48.182 654.637 46.9596C654.637 46.7744 654.674 46.7374 654.86 46.7374Z" fill="#F4F4F4"/>
<path d="M676.928 61.4063V56.85C676.372 56.7759 675.742 56.7389 674.89 56.7389C671.964 56.7389 670.668 57.702 670.668 59.2948C670.668 60.6654 671.631 61.8508 674.298 61.8508C675.261 61.8508 676.113 61.7397 676.928 61.4063ZM681.262 53.7014V61.2211C681.262 62.036 681.262 62.7769 681.336 63.5548C681.336 63.6288 681.336 63.6659 681.262 63.7029C678.224 64.9994 676.076 65.3698 673.557 65.3698C669.519 65.3698 666.297 63.4807 666.297 59.2948C666.297 55.3683 669.816 53.405 674.631 53.405C675.742 53.405 676.594 53.4421 676.928 53.4791V53.0346C676.928 52.1826 676.446 50.2564 673.186 50.2564C671.334 50.2564 669.704 50.6268 668.334 51.2936C668.223 51.3307 668.038 51.2936 668.038 51.0714V47.8486C668.038 47.6634 668.075 47.5893 668.26 47.4782C669.853 46.7374 671.89 46.3669 673.89 46.3669C679.039 46.3669 681.262 49.5896 681.262 53.7014Z" fill="#F4F4F4"/>
<path d="M694.383 61.7397V64.4067C694.383 64.629 694.346 64.7772 694.16 64.8512C693.16 65.2217 692.234 65.3698 691.012 65.3698C687.974 65.3698 686.159 63.8881 686.159 60.2209V50.4787H683.826C683.64 50.4416 683.566 50.3675 683.566 50.1453V47.0337C683.566 46.8114 683.64 46.7374 683.863 46.7374H686.196C686.233 45.4409 686.381 43.1072 686.567 42.1811C686.604 41.9959 686.678 41.8848 686.863 41.8477L690.604 41.3291C690.79 41.2921 690.864 41.3291 690.864 41.5143C690.753 42.7367 690.678 44.9223 690.678 46.7374H694.272C694.457 46.7374 694.531 46.8114 694.531 46.9967V50.2194C694.531 50.4046 694.457 50.4787 694.272 50.4787H690.641V59.2578C690.641 60.8877 691.16 61.6656 692.753 61.6656C693.234 61.6656 693.642 61.6285 694.16 61.5174C694.272 61.4804 694.383 61.5174 694.383 61.7397Z" fill="#F4F4F4"/>
<path d="M705.289 46.3669C710.994 46.3669 714.105 50.7009 714.105 55.7758C714.105 61.5174 710.438 65.3698 705.215 65.3698C699.029 65.3698 696.288 60.5913 696.288 55.8869C696.288 50.6268 699.733 46.3669 705.289 46.3669ZM705.067 50.1082C702.585 50.1082 700.807 52.2938 700.807 55.8128C700.807 59.2208 702.474 61.5915 705.289 61.5915C707.586 61.5915 709.549 59.7023 709.549 55.8869C709.549 52.8124 708.216 50.1082 705.067 50.1082Z" fill="#F4F4F4"/>
<path d="M717.622 46.7374H721.104C721.327 46.7374 721.438 46.8114 721.512 47.0337C721.697 47.5153 721.845 48.4413 721.882 49.2563C723.142 47.7005 725.253 46.3669 727.809 46.3669C728.031 46.3669 728.105 46.404 728.105 46.6262V50.5528C728.105 50.738 728.031 50.8121 727.772 50.8121C725.142 50.738 722.957 51.664 722.105 52.7753V64.7031C722.105 64.9253 721.993 64.9994 721.771 64.9994H717.919C717.659 64.9994 717.585 64.8883 717.585 64.7031V51.9233C717.585 50.3305 717.548 48.182 717.4 46.9596C717.4 46.7744 717.437 46.7374 717.622 46.7374Z" fill="#F4F4F4"/>
<path d="M919.055 20H879.313C873.295 20 868.416 24.8789 868.416 30.8974V69.1026C868.416 75.1211 873.295 80 879.313 80H919.055C925.073 80 929.951 75.1211 929.951 69.1026V30.8974C929.951 24.8789 925.073 20 919.055 20Z" fill="#F4F4F4"/>
<path d="M882.268 62.0753V35.6961C882.268 35.5038 882.35 35.4071 882.515 35.4071C882.955 35.4071 883.357 35.4006 883.962 35.3864C884.567 35.3729 885.221 35.3592 885.923 35.3452C886.625 35.3316 887.368 35.3178 888.152 35.3039C888.937 35.2903 889.714 35.2835 890.485 35.2832C892.576 35.2832 894.337 35.5447 895.768 36.0676C897.06 36.5044 898.237 37.2236 899.215 38.173C900.045 38.9958 900.685 39.9888 901.094 41.0834C901.48 42.1486 901.675 43.2735 901.672 44.4066C901.672 46.6087 901.162 48.4251 900.144 49.8558C899.119 51.2924 897.679 52.3802 896.016 52.9726C894.282 53.6196 892.356 53.839 890.237 53.839C889.631 53.839 889.205 53.8321 888.957 53.8183C888.71 53.8047 888.338 53.7978 887.843 53.7977V62.034C887.85 62.0845 887.845 62.1359 887.829 62.1843C887.813 62.2327 887.786 62.2766 887.75 62.3127C887.714 62.3487 887.67 62.3759 887.622 62.392C887.573 62.4081 887.522 62.4128 887.471 62.4056H882.557C882.364 62.4055 882.268 62.2959 882.268 62.0753ZM887.843 40.3609V48.9647C888.2 48.9925 888.53 49.0062 888.833 49.006H890.196C891.198 49.0027 892.194 48.8437 893.147 48.5348C893.965 48.2919 894.696 47.819 895.253 47.1725C895.789 46.5397 896.057 45.659 896.058 44.5304C896.079 43.7319 895.872 42.9439 895.459 42.2599C895.025 41.5985 894.398 41.0868 893.663 40.7944C892.704 40.4214 891.679 40.2459 890.65 40.2784C889.989 40.2784 889.404 40.2853 888.895 40.299C888.386 40.3132 888.035 40.3338 887.843 40.3609Z" fill="#252525"/>
<path d="M917.634 47.3994C916.858 47.0008 916.032 46.7091 915.177 46.5325C914.236 46.3165 913.274 46.2057 912.308 46.2022C911.786 46.188 911.265 46.2506 910.76 46.388C910.44 46.4594 910.154 46.6423 909.955 46.904C909.821 47.1134 909.749 47.3569 909.749 47.6058C909.757 47.8472 909.844 48.0794 909.997 48.2663C910.238 48.5484 910.532 48.7799 910.864 48.9475C911.452 49.2644 912.059 49.547 912.68 49.7937C914.065 50.2575 915.389 50.8883 916.622 51.6721C917.462 52.2022 918.157 52.9328 918.645 53.7981C919.055 54.6175 919.26 55.524 919.243 56.4402C919.268 57.6499 918.922 58.8382 918.253 59.8459C917.536 60.8689 916.54 61.6641 915.384 62.1371C914.131 62.6873 912.583 62.9625 910.74 62.9627C909.569 62.9746 908.4 62.8639 907.252 62.6325C906.347 62.4666 905.467 62.1893 904.63 61.8068C904.54 61.7602 904.465 61.6889 904.414 61.6011C904.363 61.5134 904.337 61.4129 904.341 61.3114V56.853C904.336 56.8093 904.343 56.7651 904.362 56.7251C904.38 56.6852 904.408 56.6509 904.445 56.6259C904.48 56.6059 904.521 56.5971 904.561 56.6008C904.602 56.6045 904.64 56.6205 904.672 56.6466C905.659 57.229 906.732 57.6538 907.85 57.9057C908.836 58.1528 909.847 58.2844 910.864 58.2978C911.827 58.2978 912.535 58.174 912.99 57.9263C913.195 57.8324 913.368 57.681 913.489 57.4905C913.61 57.3 913.673 57.0786 913.671 56.853C913.671 56.4956 913.464 56.1516 913.051 55.8209C912.639 55.4907 911.799 55.0916 910.533 54.6237C909.237 54.1726 908.008 53.5476 906.88 52.7661C906.073 52.2048 905.409 51.4626 904.94 50.5987C904.534 49.7853 904.329 48.8864 904.341 47.9773C904.339 46.8851 904.639 45.8135 905.208 44.8812C905.857 43.8546 906.789 43.0374 907.891 42.5281C909.102 41.9231 910.616 41.6203 912.432 41.6199C913.496 41.6113 914.559 41.6873 915.611 41.847C916.373 41.9436 917.117 42.145 917.824 42.4455C917.88 42.4616 917.931 42.4905 917.974 42.5299C918.017 42.5693 918.05 42.6181 918.071 42.6726C918.099 42.7734 918.113 42.8776 918.113 42.9822V47.1517C918.116 47.2002 918.106 47.2486 918.084 47.2921C918.062 47.3356 918.029 47.3726 917.989 47.3994C917.934 47.4269 917.873 47.4411 917.811 47.4411C917.75 47.4411 917.689 47.4269 917.634 47.3994Z" fill="#252525"/>
<path d="M948.061 63.7423V40.0758C948.061 39.8912 948.134 39.7805 948.319 39.7805C949.722 39.7436 952.454 39.6697 955.149 39.6697C962.312 39.6697 964.97 43.6572 964.97 47.7185C964.97 53.589 960.429 56.1366 954.854 56.1366C953.673 56.1366 953.377 56.1366 952.528 56.1366V63.7054C952.528 63.89 952.454 64.0008 952.233 64.0008H948.356C948.171 64.0008 948.061 63.9269 948.061 63.7423ZM952.528 43.6203V52.186C953.156 52.2229 953.636 52.2229 954.854 52.2229C957.955 52.2229 960.577 51.1891 960.577 47.8293C960.577 45.134 958.657 43.5464 955.26 43.5464C953.968 43.5464 952.934 43.5834 952.528 43.6203Z" fill="#F4F4F4"/>
<path d="M973.07 50.5984V63.7423C973.07 63.9269 973.033 64.0008 972.812 64.0008H968.898C968.677 64.0008 968.603 63.89 968.603 63.7054V37.9713C968.603 37.8237 968.677 37.7129 968.898 37.7129H972.812C973.033 37.7129 973.07 37.7867 973.07 37.9713V47.1278C974.473 46.094 976.024 45.4294 978.129 45.4294C980.935 45.4294 984.294 46.8324 984.294 52.7398V63.6685C984.294 63.9269 984.184 64.0008 983.999 64.0008H980.159C979.938 64.0008 979.827 63.89 979.827 63.6685V53.1829C979.827 50.7091 978.756 49.3061 976.615 49.3061C975.249 49.3061 974.03 49.7492 973.07 50.5984Z" fill="#F4F4F4"/>
<path d="M996.802 45.4294C1002.49 45.4294 1005.59 49.7492 1005.59 54.8074C1005.59 60.5302 1001.93 64.37 996.728 64.37C990.562 64.37 987.83 59.6071 987.83 54.9182C987.83 49.6753 991.263 45.4294 996.802 45.4294ZM996.58 49.1585C994.106 49.1585 992.334 51.3368 992.334 54.8443C992.334 58.2411 993.996 60.604 996.802 60.604C999.091 60.604 1001.05 58.721 1001.05 54.9182C1001.05 51.8537 999.718 49.1585 996.58 49.1585Z" fill="#F4F4F4"/>
<path d="M1017.91 60.7517V63.41C1017.91 63.6315 1017.88 63.7792 1017.69 63.8531C1016.69 64.2223 1015.77 64.37 1014.55 64.37C1011.53 64.37 1009.72 62.8931 1009.72 59.2379V49.5277H1007.39C1007.21 49.4907 1007.13 49.4169 1007.13 49.1954V46.094C1007.13 45.8725 1007.21 45.7986 1007.43 45.7986H1009.75C1009.79 44.5064 1009.94 42.1804 1010.12 41.2573C1010.16 41.0727 1010.23 40.962 1010.42 40.925L1014.15 40.4081C1014.33 40.3712 1014.4 40.4081 1014.4 40.5927C1014.29 41.8111 1014.22 43.9895 1014.22 45.7986H1017.8C1017.99 45.7986 1018.06 45.8725 1018.06 46.0571V49.2692C1018.06 49.4538 1017.99 49.5277 1017.8 49.5277H1014.18V58.278C1014.18 59.9025 1014.7 60.6779 1016.29 60.6779C1016.77 60.6779 1017.17 60.6409 1017.69 60.5302C1017.8 60.4932 1017.91 60.5302 1017.91 60.7517Z" fill="#F4F4F4"/>
<path d="M1028.78 45.4294C1034.47 45.4294 1037.57 49.7492 1037.57 54.8074C1037.57 60.5302 1033.92 64.37 1028.71 64.37C1022.54 64.37 1019.81 59.6071 1019.81 54.9182C1019.81 49.6753 1023.25 45.4294 1028.78 45.4294ZM1028.56 49.1585C1026.09 49.1585 1024.32 51.3368 1024.32 54.8443C1024.32 58.2411 1025.98 60.604 1028.78 60.604C1031.07 60.604 1033.03 58.721 1033.03 54.9182C1033.03 51.8537 1031.7 49.1585 1028.56 49.1585Z" fill="#F4F4F4"/>
<path d="M1051.91 50.0815C1050.77 49.4538 1048.92 49.0108 1047.3 49.0108C1045.34 49.0108 1044.68 49.823 1044.68 50.5984C1044.68 51.4106 1045.23 51.9645 1047.59 52.8875C1051.8 54.4382 1053.24 56.0996 1053.24 58.721C1053.24 62.1916 1050.51 64.37 1045.97 64.37C1043.79 64.37 1041.87 63.9638 1040.76 63.3362C1040.58 63.2254 1040.5 63.1516 1040.5 62.93V59.4225C1040.5 59.2379 1040.65 59.1641 1040.8 59.2379C1042.39 60.2717 1044.42 60.7148 1046.08 60.7148C1048 60.7148 1048.92 60.0502 1048.92 59.0902C1048.92 58.1672 1048.22 57.5765 1045.93 56.6534C1041.91 55.1766 1040.47 53.5151 1040.47 50.8568C1040.47 48.0508 1042.76 45.4294 1047.37 45.4294C1049.51 45.4294 1051.14 45.7248 1052.02 46.1678C1052.21 46.2786 1052.25 46.4263 1052.25 46.6109V49.86C1052.25 50.0446 1052.13 50.1553 1051.91 50.0815Z" fill="#F4F4F4"/>
<path d="M1060.87 50.5984V63.7423C1060.87 63.9269 1060.83 64.0008 1060.61 64.0008H1056.69C1056.47 64.0008 1056.4 63.89 1056.4 63.7054V37.9713C1056.4 37.8237 1056.47 37.7129 1056.69 37.7129H1060.61C1060.83 37.7129 1060.87 37.7867 1060.87 37.9713V47.1278C1062.27 46.094 1063.82 45.4294 1065.92 45.4294C1068.73 45.4294 1072.09 46.8324 1072.09 52.7398V63.6685C1072.09 63.9269 1071.98 64.0008 1071.79 64.0008H1067.96C1067.73 64.0008 1067.62 63.89 1067.62 63.6685V53.1829C1067.62 50.7091 1066.55 49.3061 1064.41 49.3061C1063.04 49.3061 1061.83 49.7492 1060.87 50.5984Z" fill="#F4F4F4"/>
<path d="M1084.6 45.4294C1090.28 45.4294 1093.38 49.7492 1093.38 54.8074C1093.38 60.5302 1089.73 64.37 1084.52 64.37C1078.36 64.37 1075.63 59.6071 1075.63 54.9182C1075.63 49.6753 1079.06 45.4294 1084.6 45.4294ZM1084.38 49.1585C1081.9 49.1585 1080.13 51.3368 1080.13 54.8443C1080.13 58.2411 1081.79 60.604 1084.6 60.604C1086.89 60.604 1088.84 58.721 1088.84 54.9182C1088.84 51.8537 1087.51 49.1585 1084.38 49.1585Z" fill="#F4F4F4"/>
<path d="M1104.35 45.4294C1110.44 45.4294 1113.47 49.5646 1113.47 54.2905C1113.47 61.0471 1108 64.37 1102.43 64.37C1102.02 64.37 1101.65 64.333 1101.32 64.2961V70.9419C1101.32 71.0896 1101.28 71.2004 1101.06 71.2373C1099.77 71.385 1097.3 71.6065 1097.11 71.6065C1096.89 71.6065 1096.85 71.5696 1096.85 71.385V49.2692C1096.85 48.8262 1096.82 47.6078 1096.74 47.0909C1096.74 47.0539 1096.74 46.9432 1096.89 46.9063C1098.55 46.3524 1101.14 45.4294 1104.35 45.4294ZM1103.94 49.2323C1102.95 49.2323 1102.13 49.3431 1101.32 49.6015V60.4932C1101.73 60.604 1102.32 60.604 1102.8 60.604C1105.68 60.604 1108.89 58.9056 1108.89 54.5859C1108.89 51.226 1107.08 49.2323 1103.94 49.2323Z" fill="#F4F4F4"/>
<path d="M1451.63 59.9372C1451.47 59.9439 1451.32 60.001 1451.2 60.1002C1451.07 60.1995 1450.99 60.3356 1450.95 60.4885C1449.22 65.4116 1446.89 68.3446 1444.97 68.3446C1443.87 68.3446 1443.42 67.1152 1443.42 65.1856C1443.42 60.3617 1446.31 50.1351 1447.77 45.4711C1447.93 44.9864 1448.02 44.4817 1448.04 43.9715C1448.04 42.6153 1447.3 41.9482 1445.47 41.9482C1443.49 41.9482 1441.36 42.7201 1439.29 46.3586C1438.57 43.1611 1436.41 41.7608 1433.38 41.7608C1429.89 41.7608 1426.51 44.0101 1423.73 47.6542C1420.96 51.2983 1417.67 52.4946 1415.23 51.9047C1417 47.577 1417.66 44.3464 1417.66 41.9427C1417.66 38.1773 1415.8 35.906 1412.79 35.906C1408.22 35.906 1405.59 40.2668 1405.59 44.8536C1405.59 48.3985 1407.2 52.0205 1410.73 53.8123C1407.76 60.5161 1403.44 66.5749 1401.8 66.5749C1399.68 66.5749 1399.04 56.1939 1399.17 48.7678C1399.25 44.5063 1399.6 44.2913 1399.6 43.0012C1399.6 42.2625 1399.12 41.7553 1397.2 41.7553C1392.7 41.7553 1391.31 45.5593 1391.1 49.9311C1391.03 51.5909 1390.77 53.2374 1390.33 54.8377C1388.45 61.5415 1384.58 66.6245 1382.06 66.6245C1380.89 66.6245 1380.57 65.4557 1380.57 63.9231C1380.57 59.0992 1383.27 53.0735 1383.27 47.9354C1383.27 44.1534 1381.62 41.7663 1378.49 41.7663C1374.81 41.7663 1369.94 46.1436 1365.34 54.347C1366.86 48.0677 1367.48 41.9868 1362.99 41.9868C1362.02 42.0008 1361.07 42.2485 1360.21 42.709C1359.92 42.8435 1359.68 43.0617 1359.52 43.3351C1359.36 43.6085 1359.28 43.9244 1359.3 44.2416C1359.73 50.9289 1353.91 68.0524 1348.39 68.0524C1347.39 68.0524 1346.91 66.9498 1346.91 65.2132C1346.91 60.3783 1349.78 50.1792 1351.23 45.5041C1351.41 44.9935 1351.5 44.4604 1351.52 43.9219C1351.52 42.6429 1350.73 41.9868 1348.93 41.9868C1346.97 41.9868 1344.83 42.7366 1342.77 46.3642C1342.04 43.1666 1339.88 41.7663 1336.86 41.7663C1331.89 41.7663 1326.38 47.0092 1323.92 53.8453C1320.66 62.9694 1314.1 71.7847 1305.26 71.7847C1297.23 71.7847 1293 65.1084 1293 54.562C1293 39.3296 1304.18 26.8867 1312.47 26.8867C1316.44 26.8867 1318.33 29.4116 1318.33 33.2873C1318.33 37.9789 1315.71 40.1565 1315.71 41.9427C1315.71 42.494 1316.17 43.0453 1317.07 43.0453C1320.67 43.0453 1324.91 38.8113 1324.91 33.0337C1324.91 27.2561 1320.21 23 1311.91 23C1298.21 23 1284.42 36.7825 1284.42 54.4628C1284.42 68.521 1291.35 77 1303.35 77C1311.53 77 1318.68 70.638 1322.53 63.2175C1322.97 69.37 1325.76 72.5896 1330.02 72.5896C1333.81 72.5896 1336.88 70.3347 1339.22 66.3654C1340.12 70.5167 1342.53 72.5455 1345.62 72.5455C1349.18 72.5455 1352.17 70.2906 1354.99 66.0952C1354.95 69.403 1355.7 72.4848 1358.55 72.4848C1359.9 72.4848 1361.51 72.1706 1361.8 70.9963C1364.8 58.57 1372.23 48.426 1374.48 48.426C1375.15 48.426 1375.34 49.0766 1375.34 49.8429C1375.34 53.2168 1372.95 60.1412 1372.95 64.5571C1372.95 69.3314 1374.98 72.4904 1379.18 72.4904C1383.83 72.4904 1388.55 66.8009 1391.7 58.4818C1392.69 66.2551 1394.81 72.5234 1398.15 72.5234C1402.24 72.5234 1409.51 63.9121 1413.91 54.7936C1416.3 55.1454 1418.74 54.5737 1420.72 53.1948C1419.63 55.9187 1419.06 58.8226 1419.04 61.7565C1419.04 70.219 1423.08 72.5896 1426.56 72.5896C1430.34 72.5896 1433.4 70.3347 1435.75 66.3654C1436.52 69.9433 1438.51 72.5344 1442.14 72.5344C1447.83 72.5344 1452.78 66.7182 1452.78 61.944C1452.8 60.687 1452.26 59.9372 1451.63 59.9372ZM1333.5 67.9035C1331.2 67.9035 1330.31 65.588 1330.31 62.1369C1330.31 56.1442 1334.41 46.1491 1338.74 46.1491C1340.64 46.1491 1341.35 48.3544 1341.35 51.1109C1341.35 57.1807 1337.45 67.9035 1333.5 67.9035ZM1412.23 50.0138C1410.95 48.3429 1410.29 46.2825 1410.36 44.181C1410.36 41.7387 1411.25 39.6769 1412.32 39.6769C1413.39 39.6769 1413.72 40.7299 1413.72 42.1963C1413.72 44.6441 1412.84 48.222 1412.23 50.0138ZM1430.05 67.9035C1427.75 67.9035 1426.85 65.2407 1426.85 62.1369C1426.85 56.3537 1430.96 46.1491 1435.32 46.1491C1437.22 46.1491 1437.89 48.3544 1437.89 51.1109C1437.89 57.1807 1434.06 67.9035 1430.05 67.9035Z" fill="#F4F4F4"/>
<path d="M1661.69 52.8311C1661.94 48.3681 1664.13 44.4361 1667.42 41.6488C1670.66 38.9111 1675.01 37.2378 1679.76 37.2378C1684.5 37.2378 1688.85 38.9111 1692.09 41.6488C1695.38 44.4361 1697.57 48.3681 1697.82 52.8263C1698.07 57.4121 1696.23 61.6721 1692.99 64.8299C1689.7 68.042 1685.01 70.0576 1679.76 70.0576C1674.5 70.0576 1669.81 68.042 1666.51 64.8299C1663.28 61.6721 1661.44 57.4121 1661.69 52.8311Z" fill="#252525"/>
<path d="M1670.49 53.2323C1670.61 50.9423 1671.74 48.9248 1673.43 47.4946C1675.09 46.0898 1677.32 45.2313 1679.76 45.2313C1682.19 45.2313 1684.42 46.0898 1686.08 47.4946C1687.77 48.9248 1688.9 50.9423 1689.03 53.2298C1689.15 55.5828 1688.21 57.7686 1686.55 59.3889C1684.86 61.0371 1682.45 62.0713 1679.76 62.0713C1677.06 62.0713 1674.65 61.0371 1672.96 59.3889C1671.3 57.7686 1670.36 55.5828 1670.49 53.2323Z" fill="#F4F4F4"/>
<path d="M1655.72 57.859C1655.74 58.7551 1656.03 60.4966 1656.45 61.8565C1657.36 64.735 1658.88 67.398 1661.01 69.7449C1663.19 72.1572 1665.88 74.0947 1668.98 75.4704C1672.25 76.9151 1675.78 77.6514 1679.45 77.6454C1683.12 77.6405 1686.65 76.8897 1689.92 75.4341C1693.02 74.0451 1695.7 72.0991 1697.88 69.6856C1700.01 67.329 1701.53 64.6611 1702.44 61.7826C1702.89 60.3282 1703.18 58.852 1703.29 57.371C1703.41 55.9117 1703.36 54.4501 1703.15 52.9896C1702.75 50.1438 1701.76 47.4735 1700.25 45.0394C1698.86 42.8027 1697.07 40.8446 1694.95 39.1964L1694.95 39.1928L1673.5 22.7245C1673.48 22.71 1673.47 22.6942 1673.45 22.6809C1672.04 21.6007 1669.68 21.6044 1668.13 22.687C1666.56 23.7817 1666.38 25.5921 1667.78 26.7341L1667.77 26.7402L1676.72 34.0146L1649.45 34.0437H1649.41C1647.16 34.0461 1644.99 35.5247 1644.57 37.3932C1644.12 39.2969 1645.66 40.876 1648 40.8845L1647.99 40.893L1661.81 40.8664L1637.15 59.7954C1637.12 59.8184 1637.09 59.8426 1637.06 59.8656C1634.73 61.647 1633.98 64.6091 1635.45 66.4837C1636.93 68.3898 1640.1 68.3934 1642.45 66.4946L1655.9 55.4794C1655.9 55.4794 1655.71 56.9665 1655.72 57.859ZM1690.31 62.8386C1687.54 65.6638 1683.65 67.266 1679.45 67.2745C1675.25 67.2817 1671.36 65.6941 1668.59 62.8737C1667.23 61.4993 1666.24 59.9177 1665.63 58.2332C1665.02 56.5778 1664.79 54.8206 1664.94 53.0477C1665.09 51.3148 1665.61 49.6618 1666.43 48.1662C1667.24 46.6961 1668.35 45.3676 1669.73 44.2438C1672.43 42.0471 1675.86 40.8579 1679.45 40.853C1683.04 40.8482 1686.47 42.0265 1689.17 44.216C1690.54 45.3349 1691.65 46.6585 1692.46 48.1263C1693.29 49.6206 1693.8 51.2676 1693.95 53.0053C1694.11 54.7758 1693.87 56.5306 1693.27 58.1872C1692.66 59.8765 1691.66 61.4581 1690.31 62.8386Z" fill="#F4F4F4"/>
<path d="M1817.42 53.1947C1817.63 50.8841 1819.42 49.4188 1822.15 49.4188C1824.88 49.4188 1826.66 50.8841 1826.87 53.1947H1817.42ZM1826.59 58.8997C1825.89 60.612 1824.24 61.6256 1822.01 61.6256C1819.21 61.6256 1817.32 59.877 1817.24 57.1147H1833.35V56.3021C1833.35 49.3825 1829.29 45.494 1822.01 45.494C1814.94 45.494 1810.67 49.4188 1810.67 55.5743C1810.67 61.7673 1815.01 65.6861 1822.01 65.6861C1826.21 65.6861 1829.47 64.2462 1831.47 61.7153L1826.59 58.8997Z" fill="#F4F4F4"/>
<path d="M1745.98 53.2055C1746.19 50.8949 1747.98 49.4296 1750.71 49.4296C1753.43 49.4296 1755.22 50.8949 1755.43 53.2055H1745.98ZM1755.15 58.9105C1754.45 60.6277 1752.8 61.6413 1750.56 61.6413C1747.77 61.6413 1745.88 59.8877 1745.8 57.1243H1761.9V56.3165C1761.9 49.3933 1757.84 45.5036 1750.56 45.5036C1743.49 45.5036 1739.23 49.4296 1739.23 55.5851C1739.23 61.7781 1743.56 65.6969 1750.56 65.6969C1754.76 65.6969 1758.02 64.2618 1760.03 61.7272L1755.15 58.9105Z" fill="#F4F4F4"/>
<path d="M1737.78 41.3098H1731.98V65.0658H1737.78V41.3098Z" fill="#F4F4F4"/>
<path d="M1763.34 47.6215H1769.18V49.0359C1771.25 46.8295 1773.73 45.7141 1776.53 45.7141C1779.76 45.7141 1782.2 46.8295 1783.46 48.7283C1784.51 50.2965 1784.58 52.1893 1784.58 54.6767V65.0658H1778.73V55.9373C1778.73 52.1494 1777.97 50.4007 1774.65 50.4007C1771.29 50.4007 1769.18 52.4024 1769.18 55.7629V65.0658H1763.34V47.6215Z" fill="#F4F4F4"/>
<path d="M1803.39 55.8686C1803.39 59.1201 1801.21 61.2526 1797.85 61.2526C1794.49 61.2526 1792.32 59.1928 1792.32 55.9062C1792.32 52.5711 1794.46 50.5124 1797.85 50.5124C1801.21 50.5124 1803.39 52.6074 1803.39 55.8686ZM1803.39 48.4125C1801.91 46.8297 1799.77 45.9615 1796.8 45.9615C1790.4 45.9615 1786.02 49.9117 1786.02 55.8323C1786.02 61.6366 1790.37 65.697 1796.7 65.697C1799.6 65.697 1801.73 64.9631 1803.39 63.3174V65.0661H1809.23V39.8036L1803.39 41.3101V48.4125Z" fill="#F4F4F4"/>
<path d="M1718.7 50.5124C1722.1 50.5124 1724.23 52.5711 1724.23 55.9062C1724.23 59.1928 1722.07 61.2526 1718.7 61.2526C1715.34 61.2526 1713.17 59.1201 1713.17 55.8686C1713.17 52.6074 1715.34 50.5124 1718.7 50.5124ZM1713.17 41.3101L1707.33 39.8036V65.0661H1713.17V63.3174C1714.82 64.9631 1716.95 65.697 1719.86 65.697C1726.19 65.697 1730.53 61.6366 1730.53 55.8323C1730.53 49.9117 1726.16 45.9615 1719.75 45.9615C1716.78 45.9615 1714.64 46.8297 1713.17 48.4125V41.3101Z" fill="#F4F4F4"/>
<path d="M1834.79 65.0659V47.6216H1840.63V48.6993C1842.38 46.5922 1844.23 45.5435 1846.34 45.5435C1846.76 45.5435 1847.28 45.6113 1847.98 45.6803V50.6539C1847.42 50.58 1846.79 50.58 1846.13 50.58C1842.73 50.58 1840.63 52.8203 1840.63 56.6301V65.0659H1834.79Z" fill="#F4F4F4"/>
<path d="M1854.21 43.5612C1854.21 43.9033 1854.06 44.1377 1853.78 44.2645L1854.49 45.4718H1853.72L1853.19 44.4516H1853.04V45.4718H1852.35V42.707H1853.15C1853.51 42.707 1853.78 42.7775 1853.95 42.9183C1854.12 43.0592 1854.21 43.2735 1854.21 43.5612ZM1853.04 43.9445H1853.14C1853.27 43.9445 1853.37 43.9164 1853.42 43.86C1853.48 43.8017 1853.51 43.7061 1853.51 43.5733C1853.51 43.4425 1853.48 43.3499 1853.42 43.2956C1853.37 43.2413 1853.27 43.2141 1853.13 43.2141H1853.04V43.9445ZM1851.02 44.0864C1851.02 43.684 1851.12 43.3067 1851.32 42.9545C1851.52 42.6024 1851.8 42.3247 1852.15 42.1215C1852.5 41.9182 1852.88 41.8166 1853.29 41.8166C1853.69 41.8166 1854.07 41.9172 1854.42 42.1185C1854.77 42.3197 1855.05 42.5964 1855.25 42.9485C1855.45 43.3006 1855.56 43.6799 1855.56 44.0864C1855.56 44.4828 1855.46 44.8551 1855.26 45.2032C1855.07 45.5513 1854.79 45.83 1854.44 46.0393C1854.09 46.2485 1853.7 46.3532 1853.29 46.3532C1852.87 46.3532 1852.49 46.2495 1852.13 46.0423C1851.78 45.833 1851.51 45.5543 1851.31 45.2062C1851.11 44.8581 1851.02 44.4848 1851.02 44.0864ZM1851.44 44.0864C1851.44 44.4164 1851.53 44.7243 1851.69 45.01C1851.86 45.2937 1852.08 45.5181 1852.37 45.6831C1852.65 45.8461 1852.96 45.9276 1853.29 45.9276C1853.62 45.9276 1853.92 45.8451 1854.21 45.6801C1854.49 45.5151 1854.72 45.2897 1854.88 45.004C1855.04 44.7182 1855.13 44.4124 1855.13 44.0864C1855.13 43.7564 1855.04 43.4495 1854.88 43.1658C1854.71 42.8801 1854.49 42.6557 1854.2 42.4927C1853.92 42.3277 1853.61 42.2452 1853.29 42.2452C1852.96 42.2452 1852.65 42.3277 1852.36 42.4927C1852.08 42.6577 1851.85 42.8831 1851.69 43.1688C1851.53 43.4546 1851.44 43.7604 1851.44 44.0864Z" fill="#F4F4F4"/>
<path d="M2111.96 60.3334H2111.57C2109.57 60.3334 2109.29 59.8334 2109.29 57.2779V45.2234H2111.96C2117.74 45.2234 2118.79 49.4447 2118.79 52.7226C2118.79 56.1114 2117.74 60.3334 2111.96 60.3334ZM2088.52 52.6111V45.2234H2090.79C2093.29 45.2234 2094.41 46.945 2094.41 48.9449C2094.41 50.8894 2093.29 52.6111 2090.79 52.6111H2088.52ZM2111.79 43.557H2101.85V44.6119C2104.96 44.6119 2105.46 45.2785 2105.46 49.2231V56.3338C2105.46 60.2776 2104.96 60.9999 2101.85 60.9999C2099.46 60.6667 2097.85 59.3887 2095.63 56.9446L2093.07 54.1673C2096.52 53.5558 2098.35 51.3894 2098.35 48.9449C2098.35 45.89 2095.74 43.557 2090.85 43.557H2081.07V44.6119C2084.18 44.6119 2084.68 45.2785 2084.68 49.2231V56.3338C2084.68 60.2776 2084.18 60.9999 2081.07 60.9999V62.0551H2092.13V60.9999C2089.02 60.9999 2088.52 60.2776 2088.52 56.3338V54.334H2089.46L2095.63 62.0551H2111.79C2119.74 62.0551 2123.18 57.8337 2123.18 52.7778C2123.18 47.7231 2119.74 43.557 2111.79 43.557Z" fill="#F4F4F4"/>
<path d="M2050.13 54.6672L2053.96 43.3337C2055.07 40.0566 2054.57 39.1123 2051.02 39.1123V38.0009H2061.46V39.1123C2057.96 39.1123 2057.13 39.9456 2055.74 44.0009L2049.41 62.9996H2048.69L2043.02 45.6117L2037.24 62.9996H2036.52L2030.35 44.0009C2029.02 39.9456 2028.13 39.1123 2024.91 39.1123V38.0009H2037.24V39.1123C2033.96 39.1123 2033.08 39.8899 2034.24 43.3337L2037.96 54.6672L2043.57 38.0009H2044.63L2050.13 54.6672Z" fill="#F4F4F4"/>
<path d="M2069.02 44.5578C2063.91 44.5578 2062.13 49.1683 2062.13 52.7787C2062.13 56.4457 2063.91 61.001 2069.02 61.001C2074.18 61.001 2075.96 56.4457 2075.96 52.7787C2075.96 49.1683 2074.18 44.5578 2069.02 44.5578ZM2069.02 62.7784C2062.91 62.7784 2057.91 58.2789 2057.91 52.7787C2057.91 47.3351 2062.91 42.8349 2069.02 42.8349C2075.13 42.8349 2080.13 47.3351 2080.13 52.7787C2080.13 58.2789 2075.13 62.7784 2069.02 62.7784Z" fill="#F4F4F4"/>
<path d="M2135.68 40.001H2132.51V49.6673H2135.68C2138.79 49.6673 2140.23 47.5008 2140.23 44.8902C2140.23 42.2238 2138.79 40.001 2135.68 40.001ZM2136.9 60.9443V62.0551H2124.18V60.9443C2127.9 60.9443 2128.57 60.0002 2128.57 54.4443V45.5567C2128.57 40.001 2127.9 39.1126 2124.18 39.1126V38.0011H2135.68C2141.4 38.0011 2144.57 40.9458 2144.57 44.8902C2144.57 48.7232 2141.4 51.7229 2135.68 51.7229H2132.51V54.4443C2132.51 60.0002 2133.18 60.9443 2136.9 60.9443Z" fill="#F4F4F4"/>
<path d="M2153.29 52.6117V45.224H2155.57C2158.07 45.224 2159.18 46.9456 2159.18 48.9455C2159.18 50.89 2158.07 52.6117 2155.57 52.6117H2153.29ZM2182.73 56.8344L2182.45 57.8343C2181.95 59.6675 2181.34 60.334 2177.4 60.334H2176.62C2173.73 60.334 2173.23 59.6675 2173.23 55.7229V53.1681C2177.56 53.1681 2177.9 53.5564 2177.9 56.4453H2178.95V48.1679H2177.9C2177.9 51.0567 2177.56 51.4452 2173.23 51.4452V45.224H2176.28C2180.23 45.224 2180.84 45.8906 2181.34 47.7237L2181.62 48.7787H2182.51L2182.12 43.5576H2165.79V44.6126C2168.9 44.6126 2169.4 45.2791 2169.4 49.2237V56.3344C2169.4 59.9424 2168.97 60.8512 2166.52 60.9807C2164.19 60.625 2162.59 59.3533 2160.4 56.9452L2157.84 54.1679C2161.29 53.5564 2163.12 51.39 2163.12 48.9455C2163.12 45.8906 2160.51 43.5576 2155.62 43.5576H2145.84V44.6126C2148.95 44.6126 2149.45 45.2791 2149.45 49.2237V56.3344C2149.45 60.2782 2148.95 61.0005 2145.84 61.0005V62.0557H2156.9V61.0005C2153.79 61.0005 2153.29 60.2782 2153.29 56.3344V54.3346H2154.23L2160.4 62.0557H2183.23L2183.56 56.8344H2182.73Z" fill="#F4F4F4"/>
<path d="M2194.01 62.7784C2191.79 62.7784 2189.84 61.6119 2189.01 60.8895C2188.73 61.1677 2188.23 62.001 2188.12 62.7784H2187.06V55.1125H2188.17C2188.62 58.7789 2191.17 60.9453 2194.45 60.9453C2196.23 60.9453 2197.67 59.9454 2197.67 58.2789C2197.67 56.8348 2196.4 55.7233 2194.12 54.6683L2190.95 53.1684C2188.73 52.1122 2187.06 50.279 2187.06 47.8351C2187.06 45.1687 2189.56 42.8913 2193.01 42.8913C2194.84 42.8913 2196.4 43.5579 2197.34 44.3354C2197.62 44.113 2197.9 43.5015 2198.06 42.8349H2199.12V49.3907H2197.95C2197.56 46.7795 2196.12 44.613 2193.17 44.613C2191.62 44.613 2190.17 45.502 2190.17 46.891C2190.17 48.3351 2191.34 49.1125 2194.01 50.3348L2197.06 51.8346C2199.73 53.1121 2200.78 55.1683 2200.78 56.8348C2200.78 60.3345 2197.73 62.7784 2194.01 62.7784Z" fill="#F4F4F4"/>
<path d="M2210.81 62.7784C2208.59 62.7784 2206.64 61.6119 2205.81 60.8895C2205.53 61.1677 2205.03 62.001 2204.92 62.7784H2203.86V55.1125H2204.97C2205.42 58.7789 2207.97 60.9453 2211.25 60.9453C2213.03 60.9453 2214.47 59.9454 2214.47 58.2789C2214.47 56.8348 2213.2 55.7233 2210.92 54.6683L2207.75 53.1684C2205.53 52.1122 2203.86 50.279 2203.86 47.8351C2203.86 45.1687 2206.36 42.8913 2209.81 42.8913C2211.64 42.8913 2213.2 43.5579 2214.14 44.3354C2214.42 44.113 2214.7 43.5015 2214.86 42.8349H2215.92V49.3907H2214.75C2214.36 46.7795 2212.92 44.613 2209.97 44.613C2208.42 44.613 2206.97 45.502 2206.97 46.891C2206.97 48.3351 2208.14 49.1125 2210.81 50.3348L2213.86 51.8346C2216.53 53.1121 2217.58 55.1683 2217.58 56.8348C2217.58 60.3345 2214.53 62.7784 2210.81 62.7784Z" fill="#F4F4F4"/>
<path d="M1997.41 25.002C1983.61 25.002 1972.42 36.1943 1972.42 50.0008C1972.42 63.8071 1983.61 74.9994 1997.41 74.9994C2011.22 74.9994 2022.41 63.8071 2022.41 50.0008C2022.41 36.1943 2011.22 25.002 1997.41 25.002ZM1997.41 26.5018C2000.59 26.5018 2003.67 27.123 2006.56 28.348C2007.95 28.9368 2009.3 29.6655 2010.55 30.5142C2011.8 31.3551 2012.97 32.3208 2014.03 33.3846C2015.09 34.4483 2016.06 35.6188 2016.9 36.8633C2017.75 38.1195 2018.48 39.4623 2019.07 40.8543C2020.29 43.7505 2020.91 46.8278 2020.91 50.0008C2020.91 53.1736 2020.29 56.2509 2019.07 59.1471C2018.48 60.5391 2017.75 61.8819 2016.9 63.1381C2016.06 64.3826 2015.09 65.5531 2014.03 66.6168C2012.97 67.6806 2011.8 68.6463 2010.55 69.4872C2009.3 70.3359 2007.95 71.0646 2006.56 71.6534C2003.67 72.8783 2000.59 73.4996 1997.41 73.4996C1994.24 73.4996 1991.16 72.8783 1988.27 71.6534C1986.88 71.0646 1985.53 70.3359 1984.28 69.4872C1983.03 68.6463 1981.86 67.6806 1980.8 66.6168C1979.73 65.5531 1978.77 64.3826 1977.93 63.1381C1977.08 61.8819 1976.35 60.5391 1975.76 59.1471C1974.54 56.2509 1973.92 53.1736 1973.92 50.0008C1973.92 46.8278 1974.54 43.7505 1975.76 40.8543C1976.35 39.4623 1977.08 38.1195 1977.93 36.8633C1978.77 35.6188 1979.73 34.4483 1980.8 33.3846C1981.86 32.3208 1983.03 31.3551 1984.28 30.5142C1985.53 29.6655 1986.88 28.9368 1988.27 28.348C1991.16 27.123 1994.24 26.5018 1997.41 26.5018Z" fill="#F4F4F4"/>
<path d="M2015.69 40.0059C2015.78 40.6693 2015.83 41.3811 2015.83 42.1479C2015.83 44.261 2015.44 46.6374 2014.25 49.6093L2007.89 68.0056C2014.08 64.3948 2018.25 57.6851 2018.25 49.9997C2018.25 46.3777 2017.32 42.9728 2015.69 40.0059ZM1997.78 51.8218L1991.53 69.9839C1993.4 70.5331 1995.37 70.8327 1997.41 70.8327C1999.84 70.8327 2002.17 70.414 2004.33 69.6516C2004.28 69.5625 2004.22 69.4678 2004.18 69.3646L1997.78 51.8218ZM2011.48 48.9491C2011.48 46.3736 2010.55 44.5911 2009.76 43.2039C2008.7 41.4871 2007.71 40.0346 2007.71 38.318C2007.71 36.4032 2009.17 34.6208 2011.21 34.6208C2011.3 34.6208 2011.39 34.6318 2011.48 34.6376C2007.78 31.2416 2002.84 29.1681 1997.41 29.1681C1990.14 29.1681 1983.73 32.9026 1980.01 38.5575C1980.5 38.573 1980.96 38.5827 1981.35 38.5827C1983.53 38.5827 1986.9 38.318 1986.9 38.318C1988.02 38.2522 1988.16 39.902 1987.03 40.0346C1987.03 40.0346 1985.9 40.1669 1984.65 40.2326L1992.24 62.7977L1996.8 49.1252L1993.55 40.2326C1992.43 40.1669 1991.36 40.0346 1991.36 40.0346C1990.24 39.9684 1990.37 38.2522 1991.5 38.318C1991.5 38.318 1994.94 38.5827 1996.98 38.5827C1999.16 38.5827 2002.54 38.318 2002.54 38.318C2003.66 38.2522 2003.79 39.902 2002.67 40.0346C2002.67 40.0346 2001.54 40.1669 2000.28 40.2326L2007.81 62.6259L2009.96 55.8162C2010.92 52.8401 2011.48 50.7315 2011.48 48.9491ZM1976.58 49.9997C1976.58 58.2451 1981.37 65.3715 1988.32 68.7479L1978.39 41.5216C1977.23 44.1124 1976.58 46.9795 1976.58 49.9997Z" fill="#F4F4F4"/>
<path d="M2360.86 52.8311C2361.11 48.3681 2363.29 44.4361 2366.59 41.6488C2369.82 38.9111 2374.18 37.2378 2378.92 37.2378C2383.67 37.2378 2388.02 38.9111 2391.26 41.6488C2394.55 44.4361 2396.74 48.3681 2396.99 52.8263C2397.24 57.4121 2395.4 61.6721 2392.16 64.8299C2388.86 68.042 2384.18 70.0576 2378.92 70.0576C2373.67 70.0576 2368.97 68.042 2365.68 64.8299C2362.44 61.6721 2360.6 57.4121 2360.86 52.8311Z" fill="#252525"/>
<path d="M2369.65 53.2323C2369.78 50.9423 2370.9 48.9248 2372.6 47.4946C2374.26 46.0898 2376.49 45.2313 2378.92 45.2313C2381.36 45.2313 2383.59 46.0898 2385.25 47.4946C2386.94 48.9248 2388.06 50.9423 2388.19 53.2298C2388.32 55.5828 2387.38 57.7686 2385.72 59.3889C2384.03 61.0371 2381.62 62.0713 2378.92 62.0713C2376.23 62.0713 2373.82 61.0371 2372.13 59.3889C2370.47 57.7686 2369.52 55.5828 2369.65 53.2323Z" fill="#F4F4F4"/>
<path d="M2354.89 57.859C2354.91 58.7551 2355.19 60.4966 2355.62 61.8565C2356.52 64.735 2358.05 67.398 2360.18 69.7449C2362.36 72.1572 2365.05 74.0947 2368.15 75.4704C2371.41 76.9151 2374.95 77.6514 2378.62 77.6454C2382.29 77.6405 2385.82 76.8897 2389.08 75.4341C2392.19 74.0451 2394.87 72.0991 2397.05 69.6856C2399.18 67.329 2400.7 64.6611 2401.61 61.7826C2402.06 60.3282 2402.35 58.852 2402.46 57.371C2402.57 55.9117 2402.53 54.4501 2402.32 52.9896C2401.92 50.1438 2400.93 47.4735 2399.41 45.0394C2398.03 42.8027 2396.24 40.8446 2394.12 39.1964L2394.12 39.1928L2372.67 22.7245C2372.65 22.71 2372.64 22.6942 2372.62 22.6809C2371.21 21.6007 2368.84 21.6044 2367.3 22.687C2365.73 23.7817 2365.55 25.5921 2366.94 26.7341L2366.94 26.7402L2375.88 34.0146L2348.62 34.0437H2348.58C2346.33 34.0461 2344.16 35.5247 2343.73 37.3932C2343.29 39.2969 2344.82 40.876 2347.17 40.8845L2347.16 40.893L2360.98 40.8664L2336.32 59.7954C2336.29 59.8184 2336.26 59.8426 2336.23 59.8656C2333.9 61.647 2333.15 64.6091 2334.61 66.4837C2336.1 68.3898 2339.26 68.3934 2341.61 66.4946L2355.07 55.4794C2355.07 55.4794 2354.88 56.9665 2354.89 57.859ZM2389.48 62.8386C2386.7 65.6638 2382.82 67.266 2378.62 67.2745C2374.41 67.2817 2370.53 65.6941 2367.76 62.8737C2366.4 61.4993 2365.41 59.9177 2364.79 58.2332C2364.19 56.5778 2363.96 54.8206 2364.11 53.0477C2364.26 51.3148 2364.78 49.6618 2365.6 48.1662C2366.41 46.6961 2367.52 45.3676 2368.9 44.2438C2371.59 42.0471 2375.03 40.8579 2378.61 40.853C2382.21 40.8482 2385.64 42.0265 2388.34 44.216C2389.71 45.3349 2390.82 46.6585 2391.63 48.1263C2392.46 49.6206 2392.97 51.2676 2393.12 53.0053C2393.27 54.7758 2393.04 56.5306 2392.44 58.1872C2391.82 59.8765 2390.83 61.4581 2389.48 62.8386Z" fill="#F4F4F4"/>
<path d="M2516.59 53.1947C2516.8 50.8841 2518.59 49.4188 2521.31 49.4188C2524.05 49.4188 2525.83 50.8841 2526.04 53.1947H2516.59ZM2525.76 58.8997C2525.06 60.612 2523.41 61.6256 2521.18 61.6256C2518.37 61.6256 2516.49 59.877 2516.41 57.1147H2532.52V56.3021C2532.52 49.3825 2528.45 45.494 2521.18 45.494C2514.11 45.494 2509.83 49.4188 2509.83 55.5743C2509.83 61.7673 2514.17 65.6861 2521.18 65.6861C2525.38 65.6861 2528.63 64.2462 2530.64 61.7153L2525.76 58.8997Z" fill="#F4F4F4"/>
<path d="M2445.14 53.2055C2445.36 50.8949 2447.14 49.4296 2449.87 49.4296C2452.6 49.4296 2454.39 50.8949 2454.6 53.2055H2445.14ZM2454.32 58.9105C2453.62 60.6277 2451.97 61.6413 2449.73 61.6413C2446.93 61.6413 2445.04 59.8877 2444.97 57.1243H2461.07V56.3165C2461.07 49.3933 2457.01 45.5036 2449.73 45.5036C2442.66 45.5036 2438.39 49.4296 2438.39 55.5851C2438.39 61.7781 2442.73 65.6969 2449.73 65.6969C2453.93 65.6969 2457.19 64.2618 2459.2 61.7272L2454.32 58.9105Z" fill="#F4F4F4"/>
<path d="M2436.95 41.3098H2431.14V65.0658H2436.95V41.3098Z" fill="#F4F4F4"/>
<path d="M2462.51 47.6215H2468.35V49.0359C2470.42 46.8295 2472.9 45.7141 2475.7 45.7141C2478.93 45.7141 2481.37 46.8295 2482.63 48.7283C2483.68 50.2965 2483.75 52.1893 2483.75 54.6767V65.0658H2477.9V55.9373C2477.9 52.1494 2477.14 50.4007 2473.82 50.4007C2470.45 50.4007 2468.35 52.4024 2468.35 55.7629V65.0658H2462.51V47.6215Z" fill="#F4F4F4"/>
<path d="M2502.55 55.8686C2502.55 59.1201 2500.38 61.2526 2497.02 61.2526C2493.66 61.2526 2491.48 59.1928 2491.48 55.9062C2491.48 52.5711 2493.63 50.5124 2497.02 50.5124C2500.38 50.5124 2502.55 52.6074 2502.55 55.8686ZM2502.55 48.4125C2501.08 46.8297 2498.94 45.9615 2495.97 45.9615C2489.57 45.9615 2485.19 49.9117 2485.19 55.8323C2485.19 61.6366 2489.54 65.697 2495.87 65.697C2498.77 65.697 2500.9 64.9631 2502.55 63.3174V65.0661H2508.4V39.8036L2502.55 41.3101V48.4125Z" fill="#F4F4F4"/>
<path d="M2417.87 50.5124C2421.27 50.5124 2423.4 52.5711 2423.4 55.9062C2423.4 59.1928 2421.23 61.2526 2417.87 61.2526C2414.51 61.2526 2412.34 59.1201 2412.34 55.8686C2412.34 52.6074 2414.51 50.5124 2417.87 50.5124ZM2412.34 41.3101L2406.5 39.8036V65.0661H2412.34V63.3174C2413.99 64.9631 2416.12 65.697 2419.03 65.697C2425.36 65.697 2429.7 61.6366 2429.7 55.8323C2429.7 49.9117 2425.32 45.9615 2418.92 45.9615C2415.95 45.9615 2413.81 46.8297 2412.34 48.4125V41.3101Z" fill="#F4F4F4"/>
<path d="M2533.96 65.0659V47.6216H2539.8V48.6993C2541.55 46.5922 2543.4 45.5435 2545.51 45.5435C2545.93 45.5435 2546.45 45.6113 2547.15 45.6803V50.6539C2546.59 50.58 2545.96 50.58 2545.29 50.58C2541.9 50.58 2539.8 52.8203 2539.8 56.6301V65.0659H2533.96Z" fill="#F4F4F4"/>
<path d="M2553.37 43.5612C2553.37 43.9033 2553.23 44.1377 2552.94 44.2645L2553.66 45.4718H2552.89L2552.35 44.4516H2552.21V45.4718H2551.52V42.707H2552.32C2552.68 42.707 2552.95 42.7775 2553.12 42.9183C2553.29 43.0592 2553.37 43.2735 2553.37 43.5612ZM2552.21 43.9445H2552.31C2552.44 43.9445 2552.53 43.9164 2552.59 43.86C2552.65 43.8017 2552.68 43.7061 2552.68 43.5733C2552.68 43.4425 2552.65 43.3499 2552.59 43.2956C2552.54 43.2413 2552.44 43.2141 2552.3 43.2141H2552.21V43.9445ZM2550.18 44.0864C2550.18 43.684 2550.28 43.3067 2550.49 42.9545C2550.69 42.6024 2550.96 42.3247 2551.32 42.1215C2551.67 41.9182 2552.05 41.8166 2552.45 41.8166C2552.86 41.8166 2553.23 41.9172 2553.59 42.1185C2553.94 42.3197 2554.22 42.5964 2554.42 42.9485C2554.62 43.3006 2554.72 43.6799 2554.72 44.0864C2554.72 44.4828 2554.63 44.8551 2554.43 45.2032C2554.24 45.5513 2553.96 45.83 2553.61 46.0393C2553.26 46.2485 2552.87 46.3532 2552.45 46.3532C2552.04 46.3532 2551.65 46.2495 2551.3 46.0423C2550.95 45.833 2550.67 45.5543 2550.48 45.2062C2550.28 44.8581 2550.18 44.4848 2550.18 44.0864ZM2550.61 44.0864C2550.61 44.4164 2550.7 44.7243 2550.86 45.01C2551.03 45.2937 2551.25 45.5181 2551.54 45.6831C2551.82 45.8461 2552.13 45.9276 2552.45 45.9276C2552.78 45.9276 2553.09 45.8451 2553.37 45.6801C2553.66 45.5151 2553.88 45.2897 2554.05 45.004C2554.21 44.7182 2554.3 44.4124 2554.3 44.0864C2554.3 43.7564 2554.21 43.4495 2554.05 43.1658C2553.88 42.8801 2553.66 42.6557 2553.37 42.4927C2553.09 42.3277 2552.78 42.2452 2552.45 42.2452C2552.12 42.2452 2551.82 42.3277 2551.53 42.4927C2551.25 42.6577 2551.02 42.8831 2550.86 43.1688C2550.69 43.4546 2550.61 43.7604 2550.61 44.0864Z" fill="#F4F4F4"/>
<path d="M2788.21 47.7703C2788.21 44.3468 2784.88 40.7108 2779.12 40.7108C2772.65 40.7108 2765.54 45.4565 2764.45 54.9243C2763.34 64.4865 2769.29 68.7364 2775.29 68.7364C2781.29 68.7364 2784.43 66.3989 2787.64 63.2823C2784.88 59.8116 2781.31 61.4171 2780.63 61.7713C2779.87 62.149 2778.9 62.6685 2776.92 62.6685C2774.61 62.6685 2772.24 61.6296 2772.24 57.3089C2787.07 55.8451 2788.21 51.1938 2788.21 47.7703ZM2780.86 48.3369C2780.77 49.3994 2780.34 51.2174 2772.83 52.2327C2774.42 46.6134 2777.44 46.1884 2778.83 46.1884C2780.13 46.1884 2780.96 47.2036 2780.86 48.3369ZM2755.74 49.2577C2755.74 49.2577 2752.55 59.2686 2752.29 60.0949C2752.2 59.245 2749.86 41.2774 2749.86 41.2774C2744.43 41.2774 2741.53 45.1495 2739.99 49.2341C2739.99 49.2341 2736.12 59.2686 2735.79 60.1185C2735.77 59.3394 2735.2 49.3522 2735.2 49.3522C2734.87 44.3468 2730.29 41.301 2726.58 41.301L2731.07 68.5239C2736.76 68.5002 2739.83 64.6517 2741.43 60.5671C2741.43 60.5671 2744.86 51.7132 2745 51.3119C2745.02 51.6896 2747.45 68.5239 2747.45 68.5239C2753.17 68.5239 2756.24 64.9115 2757.89 60.9685L2765.89 41.301C2760.25 41.301 2757.28 45.1495 2755.74 49.2577ZM2809.17 40.6636C2805.65 40.6636 2802.96 42.576 2800.7 45.3856V45.362L2802.73 29C2798.05 29 2794.25 33.061 2793.52 39.1053L2789.98 68.3114C2792.67 68.3114 2795.52 67.5322 2797.06 65.5489C2798.43 67.3197 2800.48 68.7364 2803.53 68.7364C2811.41 68.7364 2816.82 59.5755 2816.82 50.9813C2816.77 43.1426 2812.97 40.6636 2809.17 40.6636ZM2808.44 54.7118C2807.61 59.5047 2804.95 62.7629 2802.37 62.7629C2799.77 62.7629 2798.66 61.606 2798.66 61.606C2799.16 57.4033 2799.47 54.8298 2800.41 52.6104C2801.36 50.391 2803.6 46.8495 2805.94 46.8495C2808.23 46.8495 2809.27 49.8952 2808.44 54.7118ZM2836.51 41.301H2831.01L2831.03 41.0177C2831.41 37.4289 2832.26 35.5401 2835.07 35.2332C2836.98 35.0443 2837.83 34.0526 2838.05 32.9666C2838.21 32.1166 2838.73 29.1653 2838.73 29.1653C2827.68 29.0944 2824.21 33.8637 2823.31 41.1358L2823.29 41.301H2823.17C2821.38 41.301 2819.39 43.3315 2819.06 45.9051L2818.95 46.8495H2822.63L2819.54 72.396L2818.59 76.9764C2818.71 76.9764 2818.85 77 2818.97 77C2824.14 76.8111 2827.45 72.7265 2828.18 66.8003L2830.59 46.8495H2832.31C2834.01 46.8495 2835.99 45.1495 2836.35 42.3163L2836.51 41.301ZM2865.13 40.8288C2858.78 40.8288 2852.78 45.5037 2850.94 52.8465C2849.1 60.1894 2851.88 68.878 2861.23 68.878C2870.56 68.878 2875.94 59.8352 2875.94 52.3035C2875.94 44.819 2870.87 40.8288 2865.13 40.8288ZM2867.7 54.4757C2867.37 57.8047 2865.91 62.8574 2861.89 62.8574C2857.86 62.8574 2858.42 56.9547 2858.82 54.1451C2859.25 51.1466 2860.93 46.8731 2864.54 46.8731C2867.77 46.8731 2868.08 50.7216 2867.7 54.4757ZM2907.32 49.2577C2907.32 49.2577 2904.13 59.2686 2903.87 60.0949C2903.78 59.245 2901.44 41.2774 2901.44 41.2774C2896.01 41.2774 2893.11 45.1495 2891.57 49.2341C2891.57 49.2341 2887.7 59.2686 2887.37 60.1185C2887.35 59.3394 2886.78 49.3522 2886.78 49.3522C2886.45 44.3468 2881.87 41.301 2878.16 41.301L2882.62 68.5239C2888.31 68.5002 2891.38 64.6517 2892.99 60.5671C2892.99 60.5671 2896.41 51.7132 2896.53 51.3119C2896.55 51.6896 2898.99 68.5239 2898.99 68.5239C2904.7 68.5239 2907.77 64.9115 2909.42 60.9685L2917.43 41.301C2911.81 41.301 2908.83 45.1495 2907.32 49.2577ZM2841.71 29.1653L2837.08 66.4934L2836.13 71.0974C2836.25 71.0974 2836.39 71.121 2836.51 71.121C2841.49 71.0502 2845.04 66.6822 2845.7 61.181L2848.36 39.7664C2849.17 33.2263 2845.27 29.1653 2841.71 29.1653Z" fill="#F4F4F4"/>
<path d="M3303.71 35.5131C3303.25 38.2431 3304.6 40.7424 3306.6 41.7805C3305.17 49.3552 3299.48 61.4286 3296.29 61.4286C3293.1 61.4286 3295.56 50.2011 3299.06 36.8974C3299.79 34.052 3292.29 34.6672 3290.79 37.205C3288.25 50.7394 3282.64 61.121 3279.18 61.121C3277.8 61.121 3277.6 59.4292 3277.6 57.9296C3277.6 51.8929 3280.87 39.858 3281.3 37.3203C3281.72 34.821 3278.26 35.3593 3275.99 36.4744C3275.3 36.8589 3269.99 39.512 3267.41 40.7039C3265.84 34.8979 3259.34 35.6669 3258.03 40.0503C3257.07 43.2032 3259.46 45.241 3261.84 45.7025C3261.72 52.7388 3257.57 61.6593 3252.84 61.6593C3246.92 61.6593 3249.65 42.7418 3257.3 38.0893C3256.88 35.6669 3253.69 35.3209 3250.73 36.6282C3245.04 39.0506 3241.54 48.2017 3242.04 55.7764C3239.81 59.2369 3237.62 61.3901 3236.23 61.3901C3235.58 61.3901 3234.85 60.7749 3234.85 59.16C3234.85 54.6998 3237.08 42.3573 3238.35 34.0905C3239.19 28.1692 3238.15 20.979 3230.08 20.979C3224.43 20.979 3221.31 26.362 3219.01 34.7441H3215.58C3214.12 34.7441 3213.24 38.5507 3214.85 38.6661C3215.35 38.7045 3216.58 38.7045 3218.04 38.7045C3217.62 40.5501 3217.24 42.5495 3216.85 44.5874C3216.66 45.6255 3216.47 46.7406 3216.28 47.8557C3213.39 53.8923 3206.66 62.1591 3200.66 62.1591C3197.9 62.1591 3196.9 58.7755 3197.09 54.6229C3213.39 55.3534 3218.43 34.8595 3203.86 34.9748C3195.17 35.0133 3189.82 44.2029 3189.17 52.6619C3186.55 56.9683 3182.25 62.2745 3178.25 62.2745C3169.79 62.2745 3175.48 39.1275 3181.21 39.1275C3183.63 39.1275 3183.13 43.0494 3181.63 45.7025C3182.17 49.0861 3187.55 49.3937 3188.82 43.703C3189.78 39.3582 3187.13 35.1286 3181.52 35.1286C3172.21 35.1286 3166.33 45.5102 3166.29 54.4306C3164.48 58.3141 3162.18 60.4289 3160.48 60.4289C3159.1 60.4289 3158.91 58.8524 3160.6 49.5475C3161.02 47.202 3161.45 44.5874 3161.87 41.819C3162.48 37.8586 3160.83 35.5132 3157.41 35.4747C3157.41 35.4747 3157.02 35.4747 3156.87 35.4747C3154.49 35.5901 3151.29 36.6282 3147.91 38.9737C3145.87 34.2058 3140.11 35.1671 3138.88 39.3582C3137.91 42.6649 3140.3 44.7796 3142.68 45.2026C3142.53 52.4312 3138.41 61.6593 3133.68 61.6593C3127.76 61.6593 3130.49 42.0881 3138.14 37.3203C3137.72 34.7826 3134.53 34.475 3131.57 35.7439C3121.3 40.0887 3118.15 66.85 3132.53 66.85C3143.95 66.85 3148.37 50.6625 3148.6 43.5108C3150.45 42.1266 3152.49 41.05 3153.64 41.0115H3153.68C3154.22 41.0115 3154.41 41.2422 3154.29 41.8574C3153.64 46.7406 3151.99 54.9689 3151.99 59.4292C3151.99 63.9663 3153.26 66.85 3157.18 66.85C3160.87 66.85 3164.48 63.5818 3166.94 59.4676C3168.25 63.7356 3171.4 66.85 3176.83 66.85C3182.21 66.85 3186.48 62.5436 3189.44 58.3526C3190.48 63.1973 3193.51 66.85 3198.93 66.85C3206.47 66.85 3211.97 60.8518 3215.16 55.2381C3214.97 56.6992 3214.78 58.2372 3214.58 59.7752C3213.51 68.3496 3212.7 71.8486 3211.32 74.9246C3210.74 76.1934 3210.12 77.4238 3209.43 78.6158C3208.89 79.577 3209.55 80 3210.39 80C3212.28 80 3215.35 78.8465 3217.28 75.6551C3219.08 72.6945 3220.89 69.7338 3222.77 52.7004C3223.2 49.0476 3223.77 43.7799 3224.58 38.743H3226.7C3228.62 38.743 3230.39 35.1286 3228.16 34.9364C3227.77 34.8979 3226.7 34.8595 3225.27 34.8595C3226.47 28.8613 3228.12 24.055 3230.39 24.055C3232.5 24.055 3232.92 27.3233 3231.96 32.6294C3230.39 40.8962 3228.89 51.2393 3228.27 57.1606C3227.54 64.1585 3229.85 66.8885 3233.77 66.8885C3236.85 66.8885 3240.27 64.0816 3242.88 60.4289C3244.23 64.197 3247 66.8885 3251.65 66.8885C3262.11 66.8885 3266.72 53.6616 3267.57 46.1638C3269.11 45.664 3270.57 45.0488 3272.03 44.3567C3271.03 49.5859 3270.26 55.315 3270.26 58.6602C3270.26 63.5433 3272.68 66.8116 3276.41 66.8116C3281.87 66.8116 3285.6 61.6593 3287.87 57.3913C3287.87 63.005 3290.02 66.9269 3295.14 66.9269C3306.25 66.9269 3314.05 44.3951 3314.05 37.205C3314.05 29.1689 3304.67 29.4765 3303.71 35.5131ZM3204.05 38.8968C3208.51 38.8968 3205.2 50.3934 3197.44 51.1239C3198.43 45.1257 3201.2 38.8968 3204.05 38.8968ZM3159.45 31.7066C3165.68 31.7066 3167.06 20.9021 3160.52 20.9021C3154.37 20.9021 3153.1 31.7066 3159.45 31.7066ZM3111.61 21.6711C3113.61 22.8246 3116.57 26.9772 3115.42 35.8592C3113.5 50.0473 3105.89 61.6593 3103.35 61.6593C3101.89 61.6593 3101.96 59.4292 3103.89 51.2008C3106.42 40.3963 3109.92 25.0932 3096.16 25.0932C3081.55 25.0932 3079.78 40.7424 3089.16 42.6649C3087.78 35.3593 3092.12 28.4768 3096.23 28.4768C3100.69 28.4768 3098.77 37.0512 3096.96 46.2408C3094.85 56.9299 3092.43 69.0802 3100.89 69.0802C3112.61 69.0802 3121.42 47.3943 3123 35.8592C3125.07 21.2481 3116.15 17.3262 3111.61 21.6711Z" fill="#F4F4F4"/>
<path d="M3586.71 42.3008C3584.11 42.3008 3582.17 43.5791 3582.17 46.653C3582.17 48.9687 3583.45 50.578 3586.57 50.578C3589.22 50.578 3591.02 49.0198 3591.02 46.5573C3591.02 43.7676 3589.41 42.3008 3586.71 42.3008ZM3581.51 64.0128C3580.89 64.7682 3580.28 65.5725 3580.28 66.5193C3580.28 68.4106 3582.69 68.978 3586 68.978C3588.75 68.978 3592.48 68.7867 3592.48 66.2372C3592.48 64.7193 3590.68 64.6258 3588.41 64.4834L3581.51 64.0128ZM3595.51 42.4432C3596.36 43.5323 3597.26 45.0459 3597.26 47.222C3597.26 52.4698 3593.14 55.5459 3587.19 55.5459C3585.67 55.5459 3584.3 55.3568 3583.45 55.1193L3581.89 57.6263L3586.52 57.909C3594.7 58.4307 3599.53 58.6687 3599.53 64.9568C3599.53 70.3959 3594.75 73.4704 3586.52 73.4704C3577.96 73.4704 3574.7 71.2943 3574.7 67.5573C3574.7 65.4285 3575.64 64.2965 3577.3 62.7323C3575.74 62.0742 3575.22 60.8916 3575.22 59.6133C3575.22 58.5731 3575.74 57.6263 3576.59 56.7263C3577.44 55.8285 3578.39 54.9301 3579.52 53.8899C3577.21 52.7541 3575.45 50.2937 3575.45 46.7932C3575.45 41.3541 3579.05 37.6193 3586.29 37.6193C3588.32 37.6193 3589.55 37.8062 3590.64 38.0932H3599.86V42.1117L3595.51 42.4432Z" fill="#F4F4F4"/>
<path d="M3608.18 33.8474C3605.49 33.8474 3603.93 32.2876 3603.93 29.5887C3603.93 26.8947 3605.49 25.4278 3608.18 25.4278C3610.93 25.4278 3612.49 26.8952 3612.49 29.5887C3612.49 32.2871 3610.93 33.8474 3608.18 33.8474ZM3602.08 62.274V58.5371L3604.49 58.2077C3605.16 58.1126 3605.25 57.9702 3605.25 57.2588V43.3539C3605.25 42.836 3605.11 42.5028 3604.64 42.3626L3602.08 41.4626L3602.6 37.6327H3612.39V57.2599C3612.39 58.0202 3612.44 58.1132 3613.15 58.2088L3615.56 58.5382V62.2746L3602.08 62.274Z" fill="#F4F4F4"/>
<path d="M3634.26 60.4391C3632.23 61.4309 3629.25 62.3309 3626.55 62.3309C3620.92 62.3309 3618.8 60.0619 3618.8 54.7141V42.3244C3618.8 42.0396 3618.8 41.851 3618.42 41.851H3615.11V37.6413C3619.27 37.1679 3620.92 35.0853 3621.44 29.9304H3625.94V36.6478C3625.94 36.9788 3625.94 37.1206 3626.32 37.1206H3632.99V41.851H3625.94V53.1538C3625.94 55.9451 3626.6 57.032 3629.16 57.032C3630.48 57.032 3631.85 56.701 3632.99 56.2766L3634.26 60.4391Z" fill="#F4F4F4"/>
<path d="M3564.42 47.7936L3542.79 26.1694C3542.49 25.873 3542.14 25.6378 3541.76 25.4774C3541.37 25.317 3540.95 25.2344 3540.53 25.2344C3540.11 25.2344 3539.7 25.317 3539.31 25.4774C3538.93 25.6378 3538.57 25.873 3538.28 26.1694L3533.79 30.6606L3539.48 36.356C3540.15 36.1286 3540.87 36.0931 3541.56 36.2535C3542.25 36.4139 3542.88 36.7638 3543.38 37.2637C3543.88 37.7672 3544.24 38.4021 3544.39 39.0958C3544.55 39.7894 3544.51 40.5139 3544.28 41.1862L3549.77 46.6757C3550.44 46.4421 3551.17 46.4028 3551.86 46.5622C3552.56 46.7216 3553.19 47.0733 3553.69 47.577C3554.05 47.9293 3554.33 48.3477 3554.52 48.8081C3554.71 49.2686 3554.81 49.7621 3554.81 50.2605C3554.81 50.7589 3554.71 51.2524 3554.52 51.7129C3554.33 52.1733 3554.05 52.5917 3553.69 52.9441C3552.98 53.6559 3552.02 54.0557 3551.01 54.0557C3550 54.0557 3549.04 53.6559 3548.32 52.9441C3547.79 52.4139 3547.43 51.7389 3547.29 51.0042C3547.14 50.2695 3547.21 49.5078 3547.5 48.8151L3542.38 43.6959V57.17C3542.92 57.437 3543.39 57.829 3543.75 58.3133C3544.11 58.7977 3544.34 59.3607 3544.44 59.9555C3544.54 60.5503 3544.5 61.1599 3544.31 61.7338C3544.13 62.3077 3543.81 62.8294 3543.38 63.2557C3543.03 63.6081 3542.61 63.8877 3542.15 64.0785C3541.69 64.2692 3541.2 64.3674 3540.7 64.3674C3540.2 64.3674 3539.71 64.2692 3539.25 64.0785C3538.79 63.8877 3538.37 63.6081 3538.01 63.2557C3537.66 62.9033 3537.38 62.4849 3537.19 62.0244C3537 61.5639 3536.9 61.0703 3536.9 60.5719C3536.9 60.0734 3537 59.5798 3537.19 59.1193C3537.38 58.6588 3537.66 58.2404 3538.01 57.888C3538.37 57.5322 3538.79 57.2502 3539.26 57.0585V43.4604C3538.79 43.2698 3538.37 42.9896 3538.02 42.6359C3537.66 42.2823 3537.38 41.8621 3537.19 41.3996C3537 40.9371 3536.9 40.4413 3536.9 39.9408C3536.9 39.4403 3537 38.9449 3537.2 38.483L3531.58 32.8663L3516.75 47.6923C3516.15 48.2911 3515.82 49.1025 3515.82 49.9484C3515.82 50.7944 3516.15 51.6057 3516.75 52.2045L3538.38 73.8314C3538.98 74.4289 3539.79 74.7644 3540.63 74.7644C3541.48 74.7644 3542.29 74.4289 3542.89 73.8314L3564.42 52.3058C3565.01 51.7071 3565.35 50.8957 3565.35 50.0497C3565.35 49.2038 3565.01 48.3924 3564.42 47.7936Z" fill="#F4F4F4"/>
<path d="M3904.79 38.0918L3895.06 62.0012H3891.88L3882.16 38.0918H3884.99C3885.3 38.0918 3885.55 38.1695 3885.74 38.3249C3885.94 38.4803 3886.09 38.6801 3886.19 38.9243L3892.65 55.1747C3892.8 55.5743 3892.95 56.0127 3893.1 56.49C3893.25 56.9673 3893.39 57.4668 3893.52 57.9885C3893.63 57.4668 3893.75 56.9673 3893.88 56.49C3894.01 56.0127 3894.16 55.5743 3894.31 55.1747L3900.76 38.9243C3900.84 38.7023 3900.97 38.508 3901.17 38.3415C3901.39 38.175 3901.64 38.0918 3901.94 38.0918H3904.79Z" fill="#F4F4F4"/>
<path d="M3908.99 45.0848V62.0012H3905.74V45.0848H3908.99ZM3909.6 39.8567C3909.6 40.1564 3909.54 40.445 3909.42 40.7225C3909.3 40.9889 3909.13 41.2275 3908.92 41.4384C3908.72 41.6382 3908.48 41.7992 3908.2 41.9213C3907.93 42.0323 3907.64 42.0878 3907.34 42.0878C3907.04 42.0878 3906.75 42.0323 3906.49 41.9213C3906.22 41.7992 3905.98 41.6382 3905.77 41.4384C3905.57 41.2275 3905.41 40.9889 3905.29 40.7225C3905.18 40.445 3905.12 40.1564 3905.12 39.8567C3905.12 39.5459 3905.18 39.2573 3905.29 38.9909C3905.41 38.7134 3905.57 38.4747 3905.77 38.2749C3905.98 38.064 3906.22 37.9031 3906.49 37.7921C3906.75 37.67 3907.04 37.6089 3907.34 37.6089C3907.64 37.6089 3907.93 37.67 3908.2 37.7921C3908.48 37.9031 3908.72 38.064 3908.92 38.2749C3909.13 38.4747 3909.3 38.7134 3909.42 38.9909C3909.54 39.2573 3909.6 39.5459 3909.6 39.8567Z" fill="#F4F4F4"/>
<path d="M3922.41 47.9985C3922.32 48.1428 3922.22 48.2483 3922.12 48.3149C3922.02 48.3704 3921.9 48.3981 3921.74 48.3981C3921.56 48.3981 3921.36 48.3371 3921.14 48.215C3920.93 48.0929 3920.67 47.9597 3920.36 47.8154C3920.06 47.6711 3919.7 47.5379 3919.29 47.4158C3918.88 47.2937 3918.39 47.2326 3917.83 47.2326C3917.36 47.2326 3916.93 47.2937 3916.55 47.4158C3916.17 47.5268 3915.85 47.6877 3915.58 47.8986C3915.31 48.0984 3915.11 48.3426 3914.96 48.6312C3914.82 48.9087 3914.75 49.2084 3914.75 49.5303C3914.75 49.9521 3914.87 50.3018 3915.11 50.5793C3915.37 50.8568 3915.7 51.0954 3916.1 51.2952C3916.51 51.495 3916.97 51.6782 3917.48 51.8447C3918 52.0001 3918.53 52.1666 3919.06 52.3442C3919.6 52.5218 3920.13 52.7271 3920.64 52.9602C3921.16 53.1822 3921.62 53.4653 3922.02 53.8094C3922.43 54.1424 3922.76 54.5475 3923.01 55.0248C3923.26 55.5021 3923.39 56.0849 3923.39 56.7731C3923.39 57.5612 3923.24 58.2938 3922.96 58.9709C3922.68 59.6369 3922.26 60.2141 3921.71 60.7025C3921.16 61.1909 3920.49 61.5738 3919.68 61.8513C3918.87 62.1288 3917.94 62.2676 3916.9 62.2676C3915.73 62.2676 3914.65 62.0733 3913.67 61.6848C3912.68 61.2963 3911.85 60.8024 3911.18 60.203L3911.95 58.9542C3912.04 58.7988 3912.15 58.6823 3912.28 58.6046C3912.42 58.5158 3912.59 58.4714 3912.82 58.4714C3913.03 58.4714 3913.24 58.5491 3913.47 58.7045C3913.69 58.8599 3913.95 59.0319 3914.27 59.2206C3914.58 59.3982 3914.95 59.5647 3915.4 59.7201C3915.84 59.8644 3916.4 59.9366 3917.06 59.9366C3917.62 59.9366 3918.1 59.87 3918.51 59.7368C3918.92 59.5925 3919.26 59.4038 3919.53 59.1707C3919.8 58.9265 3920.01 58.649 3920.14 58.3382C3920.28 58.0274 3920.34 57.6999 3920.34 57.3558C3920.34 56.9118 3920.21 56.5455 3919.96 56.2569C3919.72 55.9572 3919.39 55.7019 3918.98 55.491C3918.58 55.2801 3918.12 55.097 3917.6 54.9416C3917.07 54.7862 3916.54 54.6197 3916 54.4421C3915.45 54.2645 3914.92 54.0591 3914.4 53.826C3913.88 53.5929 3913.41 53.2988 3913 52.9436C3912.6 52.5884 3912.27 52.1555 3912.02 51.6449C3911.77 51.1343 3911.65 50.5127 3911.65 49.7801C3911.65 49.1252 3911.78 48.498 3912.05 47.8986C3912.33 47.2992 3912.72 46.772 3913.23 46.3169C3913.75 45.8618 3914.39 45.501 3915.15 45.2346C3915.91 44.9571 3916.78 44.8184 3917.76 44.8184C3918.88 44.8184 3919.89 44.996 3920.79 45.3512C3921.7 45.7064 3922.48 46.1948 3923.12 46.8164L3922.41 47.9985Z" fill="#F4F4F4"/>
<path d="M3939.18 45.0848V62.0012H3937.24C3936.79 62.0012 3936.5 61.7847 3936.37 61.3518L3936.14 59.6535C3935.77 60.042 3935.39 60.3972 3934.99 60.7191C3934.59 61.041 3934.16 61.3185 3933.71 61.5516C3933.25 61.7736 3932.77 61.9457 3932.26 62.0678C3931.75 62.201 3931.2 62.2676 3930.61 62.2676C3929.68 62.2676 3928.86 62.1122 3928.15 61.8014C3927.45 61.4906 3926.86 61.0577 3926.38 60.5027C3925.9 59.9366 3925.54 59.2595 3925.3 58.4714C3925.05 57.6833 3924.93 56.8119 3924.93 55.8573V45.0848H3928.2V55.8573C3928.2 57.0672 3928.47 58.0107 3929.03 58.6878C3929.58 59.3538 3930.43 59.6868 3931.58 59.6868C3932.41 59.6868 3933.19 59.4926 3933.91 59.1041C3934.63 58.7045 3935.31 58.1606 3935.94 57.4724V45.0848H3939.18Z" fill="#F4F4F4"/>
<path d="M3952 54.492C3950.68 54.5364 3949.56 54.6419 3948.64 54.8084C3947.72 54.9638 3946.97 55.1747 3946.39 55.4411C3945.82 55.7075 3945.4 56.0238 3945.14 56.3901C3944.89 56.7453 3944.76 57.1449 3944.76 57.5889C3944.76 58.0107 3944.83 58.377 3944.96 58.6878C3945.11 58.9875 3945.29 59.2373 3945.53 59.4371C3945.77 59.6258 3946.05 59.7645 3946.38 59.8533C3946.7 59.9421 3947.05 59.9865 3947.43 59.9865C3947.93 59.9865 3948.38 59.9366 3948.79 59.8367C3949.21 59.7368 3949.61 59.598 3949.97 59.4204C3950.34 59.2317 3950.69 59.0042 3951.02 58.7378C3951.35 58.4714 3951.68 58.1661 3952 57.822V54.492ZM3942.48 47.4491C3943.42 46.55 3944.45 45.8784 3945.54 45.4344C3946.65 44.9904 3947.87 44.7684 3949.19 44.7684C3950.16 44.7684 3951.01 44.9294 3951.75 45.2513C3952.5 45.5621 3953.13 46.0005 3953.64 46.5666C3954.15 47.1327 3954.53 47.8098 3954.78 48.5979C3955.05 49.386 3955.18 50.2574 3955.18 51.212V62.0012H3953.74C3953.41 62.0012 3953.17 61.9512 3953 61.8513C3952.84 61.7403 3952.7 61.5405 3952.6 61.2519L3952.25 59.7701C3951.82 60.1697 3951.39 60.5249 3950.97 60.8357C3950.55 61.1354 3950.11 61.3962 3949.64 61.6182C3949.18 61.8291 3948.7 61.9901 3948.17 62.1011C3947.65 62.2121 3947.08 62.2676 3946.44 62.2676C3945.78 62.2676 3945.15 62.1788 3944.56 62.0012C3943.98 61.8125 3943.48 61.5294 3943.05 61.152C3942.61 60.7746 3942.27 60.3029 3942.01 59.7368C3941.77 59.1707 3941.65 58.5102 3941.65 57.7554C3941.65 57.0894 3941.83 56.4512 3942.18 55.8407C3942.55 55.2191 3943.14 54.6641 3943.95 54.1757C3944.77 53.6873 3945.83 53.2877 3947.14 52.9769C3948.46 52.6661 3950.08 52.4885 3952 52.4441V51.212C3952 49.9355 3951.73 48.9809 3951.19 48.3482C3950.64 47.7155 3949.85 47.3991 3948.79 47.3991C3948.08 47.3991 3947.48 47.4879 3946.99 47.6655C3946.52 47.8431 3946.1 48.0429 3945.74 48.2649C3945.4 48.4758 3945.09 48.6701 3944.83 48.8477C3944.57 49.0253 3944.31 49.1141 3944.03 49.1141C3943.81 49.1141 3943.61 49.053 3943.45 48.9309C3943.29 48.8088 3943.16 48.6645 3943.06 48.498L3942.48 47.4491Z" fill="#F4F4F4"/>
<path d="M3961.65 37.4258V62.0012H3958.38V37.4258H3961.65Z" fill="#F4F4F4"/>
<path d="M3986.29 41.9879C3986.18 42.1766 3986.06 42.3153 3985.94 42.4041C3985.81 42.4929 3985.66 42.5373 3985.47 42.5373C3985.27 42.5373 3985.04 42.4485 3984.79 42.2709C3984.53 42.0822 3984.21 41.8769 3983.82 41.6549C3983.44 41.4218 3982.99 41.2164 3982.46 41.0388C3981.92 40.8501 3981.29 40.7558 3980.54 40.7558C3979.84 40.7558 3979.23 40.8501 3978.69 41.0388C3978.17 41.2164 3977.73 41.4662 3977.38 41.7881C3977.02 42.0989 3976.75 42.4707 3976.56 42.9036C3976.39 43.3254 3976.3 43.7861 3976.3 44.2856C3976.3 44.9294 3976.46 45.4622 3976.78 45.884C3977.11 46.3058 3977.55 46.6665 3978.08 46.9662C3978.61 47.2659 3979.22 47.5268 3979.89 47.7488C3980.57 47.9708 3981.26 48.2039 3981.97 48.4481C3982.68 48.6812 3983.38 48.9531 3984.06 49.2639C3984.73 49.5747 3985.34 49.9688 3985.87 50.4461C3986.4 50.9123 3986.83 51.4895 3987.15 52.1777C3987.49 52.8548 3987.65 53.6873 3987.65 54.6752C3987.65 55.7297 3987.47 56.7176 3987.1 57.6389C3986.75 58.5602 3986.23 59.3649 3985.54 60.0531C3984.85 60.7413 3984 61.2852 3982.99 61.6848C3981.99 62.0733 3980.85 62.2676 3979.58 62.2676C3978.81 62.2676 3978.07 62.1899 3977.35 62.0345C3976.62 61.8902 3975.94 61.6848 3975.3 61.4184C3974.65 61.1409 3974.05 60.8135 3973.48 60.4361C3972.93 60.0476 3972.43 59.6147 3971.98 59.1374L3973 57.4391C3973.1 57.3059 3973.22 57.1949 3973.35 57.1061C3973.49 57.0173 3973.65 56.9729 3973.83 56.9729C3974.07 56.9729 3974.33 57.095 3974.63 57.3392C3974.94 57.5834 3975.32 57.8553 3975.76 58.155C3976.22 58.4436 3976.76 58.71 3977.38 58.9542C3978.01 59.1984 3978.78 59.3205 3979.68 59.3205C3980.41 59.3205 3981.06 59.2262 3981.64 59.0375C3982.22 58.8377 3982.7 58.5602 3983.09 58.205C3983.49 57.8387 3983.79 57.4002 3984.01 56.8896C3984.22 56.379 3984.32 55.8129 3984.32 55.1913C3984.32 54.492 3984.16 53.9204 3983.84 53.4764C3983.52 53.0324 3983.09 52.6605 3982.56 52.3608C3982.02 52.0611 3981.42 51.8058 3980.74 51.5949C3980.06 51.384 3979.37 51.1676 3978.66 50.9456C3977.95 50.7125 3977.26 50.4461 3976.58 50.1464C3975.9 49.8467 3975.3 49.4582 3974.76 48.9809C3974.23 48.4925 3973.8 47.8875 3973.48 47.166C3973.16 46.4334 3973 45.5343 3973 44.4687C3973 43.614 3973.17 42.7871 3973.5 41.9879C3973.83 41.1887 3974.32 40.4838 3974.95 39.8733C3975.59 39.2517 3976.38 38.7578 3977.31 38.3915C3978.24 38.0141 3979.31 37.8254 3980.51 37.8254C3981.85 37.8254 3983.08 38.0418 3984.21 38.4747C3985.34 38.8965 3986.32 39.507 3987.15 40.3062L3986.29 41.9879Z" fill="#F4F4F4"/>
<path d="M3994.88 62.2676C3993.51 62.2676 3992.46 61.8846 3991.71 61.1187C3990.98 60.3528 3990.61 59.2595 3990.61 57.8387V47.7155H3988.65C3988.46 47.7155 3988.3 47.66 3988.17 47.549C3988.05 47.4269 3987.98 47.2493 3987.98 47.0162V45.7008L3990.73 45.3179L3991.46 40.2729C3991.51 40.0842 3991.59 39.9399 3991.71 39.84C3991.85 39.729 3992.01 39.6735 3992.21 39.6735H3993.86V45.3512H3998.66V47.7155H3993.86V57.6222C3993.86 58.2882 3994.02 58.7877 3994.34 59.1207C3994.68 59.4426 3995.1 59.6036 3995.61 59.6036C3995.91 59.6036 3996.16 59.5647 3996.38 59.487C3996.6 59.4093 3996.79 59.3261 3996.94 59.2373C3997.1 59.1374 3997.23 59.0486 3997.34 58.9709C3997.45 58.8932 3997.55 58.8543 3997.64 58.8543C3997.75 58.8543 3997.84 58.8821 3997.89 58.9376C3997.96 58.982 3998.02 59.0597 3998.09 59.1707L3999.06 60.7358C3998.52 61.2242 3997.89 61.6016 3997.16 61.868C3996.43 62.1344 3995.67 62.2676 3994.88 62.2676Z" fill="#F4F4F4"/>
<path d="M4014.38 45.0848V62.0012H4012.44C4011.99 62.0012 4011.7 61.7847 4011.57 61.3518L4011.34 59.6535C4010.97 60.042 4010.59 60.3972 4010.19 60.7191C4009.79 61.041 4009.36 61.3185 4008.91 61.5516C4008.45 61.7736 4007.97 61.9457 4007.46 62.0678C4006.95 62.201 4006.4 62.2676 4005.81 62.2676C4004.88 62.2676 4004.06 62.1122 4003.34 61.8014C4002.65 61.4906 4002.06 61.0577 4001.58 60.5027C4001.1 59.9366 4000.74 59.2595 4000.5 58.4714C4000.25 57.6833 4000.13 56.8119 4000.13 55.8573V45.0848H4003.39V55.8573C4003.39 57.0672 4003.67 58.0107 4004.23 58.6878C4004.78 59.3538 4005.63 59.6868 4006.77 59.6868C4007.61 59.6868 4008.38 59.4926 4009.11 59.1041C4009.83 58.7045 4010.5 58.1606 4011.14 57.4724V45.0848H4014.38Z" fill="#F4F4F4"/>
<path d="M4028.72 49.1807C4028.19 48.4814 4027.61 47.993 4026.99 47.7155C4026.38 47.438 4025.69 47.2992 4024.92 47.2992C4023.44 47.2992 4022.28 47.8376 4021.46 48.9143C4020.65 49.9799 4020.25 51.5394 4020.25 53.5929C4020.25 54.6696 4020.33 55.5909 4020.51 56.3568C4020.7 57.1116 4020.97 57.7332 4021.31 58.2216C4021.67 58.6989 4022.1 59.0541 4022.61 59.2872C4023.12 59.5092 4023.7 59.6202 4024.34 59.6202C4025.28 59.6202 4026.1 59.4093 4026.79 58.9875C4027.48 58.5657 4028.12 57.9719 4028.72 57.206V49.1807ZM4031.98 37.4258V62.0012H4030.02C4029.56 62.0012 4029.28 61.7847 4029.17 61.3518L4028.89 59.4038C4028.17 60.2585 4027.34 60.9467 4026.42 61.4684C4025.51 61.979 4024.46 62.2343 4023.26 62.2343C4022.29 62.2343 4021.42 62.0456 4020.63 61.6682C4019.85 61.2908 4019.19 60.7413 4018.63 60.0198C4018.08 59.2872 4017.65 58.3826 4017.35 57.3059C4017.05 56.2292 4016.9 54.9915 4016.9 53.5929C4016.9 52.3386 4017.07 51.1731 4017.4 50.0964C4017.73 49.0197 4018.21 48.0873 4018.85 47.2992C4019.48 46.5111 4020.25 45.8951 4021.14 45.4511C4022.04 44.996 4023.06 44.7684 4024.19 44.7684C4025.21 44.7684 4026.08 44.9349 4026.79 45.2679C4027.51 45.6009 4028.15 46.0727 4028.72 46.6832V37.4258H4031.98Z" fill="#F4F4F4"/>
<path d="M4039.9 45.0848V62.0012H4036.66V45.0848H4039.9ZM4040.52 39.8567C4040.52 40.1564 4040.46 40.445 4040.33 40.7225C4040.21 40.9889 4040.05 41.2275 4039.84 41.4384C4039.64 41.6382 4039.4 41.7992 4039.12 41.9213C4038.84 42.0323 4038.55 42.0878 4038.25 42.0878C4037.95 42.0878 4037.67 42.0323 4037.4 41.9213C4037.14 41.7992 4036.9 41.6382 4036.69 41.4384C4036.49 41.2275 4036.33 40.9889 4036.21 40.7225C4036.09 40.445 4036.04 40.1564 4036.04 39.8567C4036.04 39.5459 4036.09 39.2573 4036.21 38.9909C4036.33 38.7134 4036.49 38.4747 4036.69 38.2749C4036.9 38.064 4037.14 37.9031 4037.4 37.7921C4037.67 37.67 4037.95 37.6089 4038.25 37.6089C4038.55 37.6089 4038.84 37.67 4039.12 37.7921C4039.4 37.9031 4039.64 38.064 4039.84 38.2749C4040.05 38.4747 4040.21 38.7134 4040.33 38.9909C4040.46 39.2573 4040.52 39.5459 4040.52 39.8567Z" fill="#F4F4F4"/>
<path d="M4050.81 44.8184C4052.06 44.8184 4053.18 45.0237 4054.18 45.4344C4055.19 45.834 4056.04 46.4168 4056.74 47.1827C4057.45 47.9375 4057.99 48.8532 4058.37 49.9299C4058.75 50.9955 4058.94 52.1943 4058.94 53.5263C4058.94 54.8583 4058.75 56.0627 4058.37 57.1394C4057.99 58.2161 4057.45 59.1318 4056.74 59.8866C4056.04 60.6414 4055.19 61.2242 4054.18 61.6349C4053.18 62.0345 4052.06 62.2343 4050.81 62.2343C4049.56 62.2343 4048.43 62.0345 4047.42 61.6349C4046.42 61.2242 4045.56 60.6414 4044.85 59.8866C4044.14 59.1318 4043.59 58.2161 4043.2 57.1394C4042.83 56.0627 4042.64 54.8583 4042.64 53.5263C4042.64 52.1943 4042.83 50.9955 4043.2 49.9299C4043.59 48.8532 4044.14 47.9375 4044.85 47.1827C4045.56 46.4168 4046.42 45.834 4047.42 45.4344C4048.43 45.0237 4049.56 44.8184 4050.81 44.8184ZM4050.81 59.7035C4052.41 59.7035 4053.6 59.1651 4054.39 58.0884C4055.18 57.0117 4055.57 55.4966 4055.57 53.543C4055.57 51.5894 4055.18 50.0742 4054.39 48.9975C4053.6 47.9097 4052.41 47.3658 4050.81 47.3658C4049.19 47.3658 4047.98 47.9097 4047.18 48.9975C4046.4 50.0742 4046 51.5894 4046 53.543C4046 55.4966 4046.4 57.0117 4047.18 58.0884C4047.98 59.1651 4049.19 59.7035 4050.81 59.7035Z" fill="#F4F4F4"/>
<path d="M4086.35 56.873C4086.55 56.873 4086.72 56.9507 4086.87 57.1061L4088.27 58.6379C4087.29 59.7923 4086.1 60.6858 4084.69 61.3185C4083.29 61.9512 4081.6 62.2676 4079.63 62.2676C4077.89 62.2676 4076.32 61.9679 4074.91 61.3685C4073.52 60.7691 4072.32 59.931 4071.32 58.8543C4070.33 57.7776 4069.56 56.49 4069.02 54.9915C4068.48 53.493 4068.2 51.8447 4068.2 50.0465C4068.2 48.2483 4068.49 46.5999 4069.05 45.1014C4069.63 43.6029 4070.44 42.3153 4071.47 41.2386C4072.5 40.1619 4073.73 39.3239 4075.16 38.7245C4076.61 38.1251 4078.2 37.8254 4079.94 37.8254C4081.64 37.8254 4083.15 38.1029 4084.47 38.6579C4085.79 39.2129 4086.94 39.951 4087.92 40.8723L4086.75 42.5207C4086.67 42.6428 4086.57 42.7427 4086.45 42.8204C4086.34 42.8981 4086.19 42.9369 4086 42.9369C4085.79 42.9369 4085.54 42.8315 4085.25 42.6206C4084.98 42.4097 4084.6 42.1766 4084.14 41.9213C4083.68 41.6549 4083.12 41.4162 4082.44 41.2053C4081.76 40.9944 4080.92 40.889 4079.91 40.889C4078.72 40.889 4077.63 41.0999 4076.65 41.5217C4075.66 41.9324 4074.8 42.5318 4074.08 43.3199C4073.37 44.0969 4072.82 45.057 4072.42 46.2003C4072.03 47.3325 4071.83 48.6146 4071.83 50.0465C4071.83 51.5006 4072.04 52.7937 4072.45 53.9259C4072.86 55.0581 4073.43 56.0183 4074.15 56.8064C4074.87 57.5945 4075.72 58.1939 4076.7 58.6046C4077.67 59.0153 4078.73 59.2206 4079.86 59.2206C4080.55 59.2206 4081.16 59.1818 4081.71 59.1041C4082.26 59.0153 4082.77 58.8876 4083.22 58.7211C4083.69 58.5546 4084.13 58.3437 4084.54 58.0884C4084.95 57.822 4085.35 57.5057 4085.75 57.1394C4085.84 57.0617 4085.94 57.0006 4086.04 56.9562C4086.14 56.9007 4086.24 56.873 4086.35 56.873Z" fill="#F4F4F4"/>
<path d="M4096.16 44.8184C4097.4 44.8184 4098.52 45.0237 4099.52 45.4344C4100.53 45.834 4101.39 46.4168 4102.09 47.1827C4102.8 47.9375 4103.34 48.8532 4103.72 49.9299C4104.09 50.9955 4104.28 52.1943 4104.28 53.5263C4104.28 54.8583 4104.09 56.0627 4103.72 57.1394C4103.34 58.2161 4102.8 59.1318 4102.09 59.8866C4101.39 60.6414 4100.53 61.2242 4099.52 61.6349C4098.52 62.0345 4097.4 62.2343 4096.16 62.2343C4094.9 62.2343 4093.77 62.0345 4092.76 61.6349C4091.76 61.2242 4090.91 60.6414 4090.2 59.8866C4089.49 59.1318 4088.94 58.2161 4088.55 57.1394C4088.17 56.0627 4087.98 54.8583 4087.98 53.5263C4087.98 52.1943 4088.17 50.9955 4088.55 49.9299C4088.94 48.8532 4089.49 47.9375 4090.2 47.1827C4090.91 46.4168 4091.76 45.834 4092.76 45.4344C4093.77 45.0237 4094.9 44.8184 4096.16 44.8184ZM4096.16 59.7035C4097.76 59.7035 4098.95 59.1651 4099.74 58.0884C4100.53 57.0117 4100.92 55.4966 4100.92 53.543C4100.92 51.5894 4100.53 50.0742 4099.74 48.9975C4098.95 47.9097 4097.76 47.3658 4096.16 47.3658C4094.54 47.3658 4093.33 47.9097 4092.53 48.9975C4091.74 50.0742 4091.35 51.5894 4091.35 53.543C4091.35 55.4966 4091.74 57.0117 4092.53 58.0884C4093.33 59.1651 4094.54 59.7035 4096.16 59.7035Z" fill="#F4F4F4"/>
<path d="M4117.66 49.1807C4117.13 48.4814 4116.55 47.993 4115.93 47.7155C4115.32 47.438 4114.63 47.2992 4113.87 47.2992C4112.38 47.2992 4111.23 47.8376 4110.4 48.9143C4109.59 49.9799 4109.19 51.5394 4109.19 53.5929C4109.19 54.6696 4109.28 55.5909 4109.46 56.3568C4109.64 57.1116 4109.91 57.7332 4110.26 58.2216C4110.61 58.6989 4111.04 59.0541 4111.55 59.2872C4112.06 59.5092 4112.64 59.6202 4113.29 59.6202C4114.23 59.6202 4115.04 59.4093 4115.73 58.9875C4116.42 58.5657 4117.06 57.9719 4117.66 57.206V49.1807ZM4120.93 37.4258V62.0012H4118.96C4118.51 62.0012 4118.22 61.7847 4118.11 61.3518L4117.83 59.4038C4117.11 60.2585 4116.29 60.9467 4115.37 61.4684C4114.46 61.979 4113.4 62.2343 4112.2 62.2343C4111.24 62.2343 4110.36 62.0456 4109.57 61.6682C4108.8 61.2908 4108.13 60.7413 4107.57 60.0198C4107.02 59.2872 4106.59 58.3826 4106.29 57.3059C4105.99 56.2292 4105.84 54.9915 4105.84 53.5929C4105.84 52.3386 4106.01 51.1731 4106.34 50.0964C4106.68 49.0197 4107.16 48.0873 4107.79 47.2992C4108.42 46.5111 4109.19 45.8951 4110.09 45.4511C4110.99 44.996 4112 44.7684 4113.14 44.7684C4114.16 44.7684 4115.02 44.9349 4115.73 45.2679C4116.45 45.6009 4117.1 46.0727 4117.66 46.6832V37.4258H4120.93Z" fill="#F4F4F4"/>
<path d="M4136.71 51.6615C4136.71 51.0177 4136.61 50.4239 4136.42 49.88C4136.24 49.3361 4135.98 48.8643 4135.62 48.4647C4135.27 48.0651 4134.83 47.7543 4134.32 47.5323C4133.81 47.3103 4133.23 47.1993 4132.56 47.1993C4131.19 47.1993 4130.12 47.5934 4129.33 48.3815C4128.55 49.1696 4128.06 50.2629 4127.85 51.6615H4136.71ZM4139.39 59.5869C4138.99 60.0531 4138.53 60.4583 4138 60.8024C4137.48 61.1354 4136.93 61.4073 4136.34 61.6182C4135.75 61.8291 4135.14 61.9845 4134.51 62.0844C4133.89 62.1843 4133.27 62.2343 4132.66 62.2343C4131.49 62.2343 4130.41 62.04 4129.41 61.6515C4128.42 61.2519 4127.56 60.6747 4126.83 59.9199C4126.11 59.154 4125.54 58.2105 4125.13 57.0894C4124.73 55.9572 4124.53 54.6585 4124.53 53.1933C4124.53 52.0167 4124.72 50.9234 4125.08 49.9133C4125.45 48.8921 4125.97 48.0041 4126.65 47.2493C4127.34 46.4945 4128.17 45.9006 4129.16 45.4677C4130.15 45.0348 4131.26 44.8184 4132.49 44.8184C4133.52 44.8184 4134.47 44.9904 4135.34 45.3345C4136.22 45.6675 4136.97 46.1559 4137.6 46.7997C4138.24 47.4435 4138.73 48.2372 4139.09 49.1807C4139.45 50.1242 4139.64 51.2009 4139.64 52.4108C4139.64 52.9103 4139.58 53.2488 4139.47 53.4264C4139.36 53.5929 4139.15 53.6762 4138.85 53.6762H4127.76C4127.8 54.6863 4127.94 55.5687 4128.2 56.3235C4128.45 57.0672 4128.8 57.6888 4129.25 58.1883C4129.7 58.6878 4130.24 59.0597 4130.86 59.3039C4131.48 59.5481 4132.18 59.6702 4132.94 59.6702C4133.66 59.6702 4134.29 59.5869 4134.81 59.4204C4135.34 59.2539 4135.79 59.0763 4136.17 58.8876C4136.56 58.6878 4136.88 58.5047 4137.14 58.3382C4137.4 58.1717 4137.64 58.0884 4137.84 58.0884C4138.1 58.0884 4138.31 58.1883 4138.45 58.3881L4139.39 59.5869Z" fill="#F4F4F4"/>
<mask id="mask0_701_8" style="mask-type:alpha" maskUnits="userSpaceOnUse" x="3825" y="29" width="41" height="41">
<path fill-rule="evenodd" clip-rule="evenodd" d="M3853.95 69.5223C3854.58 69.7677 3855.3 69.752 3855.93 69.446L3864.17 65.4833C3865.03 65.0669 3865.58 64.1911 3865.58 63.2303V36.3606C3865.58 35.3998 3865.03 34.524 3864.17 34.1076L3855.93 30.1448C3855.1 29.7432 3854.12 29.8416 3853.39 30.3741C3853.28 30.4501 3853.19 30.5351 3853.09 30.6287L3837.33 45.0119L3830.46 39.7992C3829.82 39.3139 3828.93 39.3537 3828.33 39.8938L3826.13 41.8973C3825.4 42.5579 3825.4 43.7004 3826.13 44.3621L3832.08 49.7954L3826.13 55.2287C3825.4 55.8904 3825.4 57.0329 3826.13 57.6935L3828.33 59.697C3828.93 60.2371 3829.82 60.2769 3830.46 59.7916L3837.33 54.5789L3853.09 68.9621C3853.34 69.2117 3853.63 69.3996 3853.95 69.5223ZM3855.59 40.7149L3843.63 49.7954L3855.59 58.8759V40.7149Z" fill="white"/>
</mask>
<g mask="url(#mask0_701_8)">
<path d="M3864.17 34.1135L3855.93 30.1452C3854.97 29.6858 3853.83 29.8796 3853.08 30.6283L3826.1 55.2283C3825.38 55.89 3825.38 57.0325 3826.1 57.6932L3828.31 59.6967C3828.9 60.2368 3829.8 60.2765 3830.44 59.7913L3862.93 35.1429C3864.02 34.316 3865.58 35.0935 3865.58 36.4617V36.366C3865.58 35.4056 3865.03 34.5301 3864.17 34.1135Z" fill="#F4F4F4"/>
<g filter="url(#filter0_d_701_8)">
<path d="M3864.17 65.4776L3855.93 69.4459C3854.97 69.9053 3853.83 69.7115 3853.08 68.9628L3826.1 44.3628C3825.38 43.7011 3825.38 42.5585 3826.1 41.8979L3828.31 39.8944C3828.9 39.3543 3829.8 39.3145 3830.44 39.7998L3862.93 64.4481C3864.02 65.275 3865.58 64.4976 3865.58 63.1294V63.2251C3865.58 64.1855 3865.03 65.061 3864.17 65.4776Z" fill="#F4F4F4"/>
</g>
<g filter="url(#filter1_d_701_8)">
<path d="M3855.93 69.446C3854.97 69.9051 3853.83 69.7109 3853.09 68.9621C3854.01 69.8847 3855.59 69.2313 3855.59 67.9266V31.6642C3855.59 30.3595 3854.01 29.7061 3853.09 30.6287C3853.83 29.8799 3854.97 29.6859 3855.93 30.1448L3864.17 34.1076C3865.04 34.524 3865.59 35.3998 3865.59 36.3606V63.2303C3865.59 64.1911 3865.04 65.0669 3864.17 65.4833L3855.93 69.446Z" fill="#F4F4F4"/>
</g>
<g style="mix-blend-mode:overlay" opacity="0.25">
<path fill-rule="evenodd" clip-rule="evenodd" d="M3853.92 69.5223C3854.55 69.7677 3855.27 69.752 3855.91 69.446L3864.14 65.4833C3865.01 65.0669 3865.56 64.1911 3865.56 63.2303V36.3607C3865.56 35.3998 3865.01 34.524 3864.14 34.1076L3855.91 30.1448C3855.07 29.7432 3854.1 29.8416 3853.36 30.3741C3853.26 30.4501 3853.16 30.5351 3853.07 30.6287L3837.3 45.0119L3830.43 39.7992C3829.79 39.3139 3828.9 39.3537 3828.31 39.8938L3826.1 41.8973C3825.38 42.5579 3825.38 43.7004 3826.1 44.3621L3832.06 49.7954L3826.1 55.2287C3825.38 55.8904 3825.38 57.0329 3826.1 57.6935L3828.31 59.697C3828.9 60.2371 3829.79 60.2769 3830.43 59.7916L3837.3 54.5789L3853.07 68.9622C3853.32 69.2117 3853.61 69.3996 3853.92 69.5223ZM3855.56 40.7149L3843.6 49.7954L3855.56 58.8759V40.7149Z" fill="url(#paint0_linear_701_8)"/>
</g>
</g>
<defs>
<filter id="filter0_d_701_8" x="3822.23" y="36.1276" width="46.6901" height="36.8991" filterUnits="userSpaceOnUse" color-interpolation-filters="sRGB">
<feFlood flood-opacity="0" result="BackgroundImageFix"/>
<feColorMatrix in="SourceAlpha" type="matrix" values="0 0 0 0 0 0 0 0 0 0 0 0 0 0 0 0 0 0 127 0" result="hardAlpha"/>
<feOffset/>
<feGaussianBlur stdDeviation="1.66667"/>
<feColorMatrix type="matrix" values="0 0 0 0 0 0 0 0 0 0 0 0 0 0 0 0 0 0 0.25 0"/>
<feBlend mode="overlay" in2="BackgroundImageFix" result="effect1_dropShadow_701_8"/>
<feBlend mode="normal" in="SourceGraphic" in2="effect1_dropShadow_701_8" result="shape"/>
</filter>
<filter id="filter1_d_701_8" x="3849.75" y="26.5651" width="19.1667" height="46.4616" filterUnits="userSpaceOnUse" color-interpolation-filters="sRGB">
<feFlood flood-opacity="0" result="BackgroundImageFix"/>
<feColorMatrix in="SourceAlpha" type="matrix" values="0 0 0 0 0 0 0 0 0 0 0 0 0 0 0 0 0 0 127 0" result="hardAlpha"/>
<feOffset/>
<feGaussianBlur stdDeviation="1.66667"/>
<feColorMatrix type="matrix" values="0 0 0 0 0 0 0 0 0 0 0 0 0 0 0 0 0 0 0.25 0"/>
<feBlend mode="overlay" in2="BackgroundImageFix" result="effect1_dropShadow_701_8"/>
<feBlend mode="normal" in="SourceGraphic" in2="effect1_dropShadow_701_8" result="shape"/>
</filter>
<linearGradient id="paint0_linear_701_8" x1="3845.56" y1="29.8984" x2="3845.56" y2="69.6924" gradientUnits="userSpaceOnUse">
<stop stop-color="white"/>
<stop offset="1" stop-color="white" stop-opacity="0"/>
</linearGradient>
</defs>
</svg>
