<svg width="232" height="60" viewBox="0 0 232 60" fill="none" xmlns="http://www.w3.org/2000/svg">
<path d="M221.296 15.5131C220.834 18.2431 222.18 20.7424 224.179 21.7805C222.757 29.3552 217.066 41.4286 213.875 41.4286C210.683 41.4286 213.144 30.2011 216.643 16.8974C217.374 14.052 209.876 14.6672 208.376 17.205C205.839 30.7394 200.225 41.121 196.764 41.121C195.38 41.121 195.188 39.4292 195.188 37.9296C195.188 31.8929 198.456 19.858 198.879 17.3203C199.302 14.821 195.842 15.3593 193.573 16.4744C192.881 16.8589 187.575 19.512 184.999 20.7039C183.422 14.8979 176.924 15.6669 175.617 20.0503C174.655 23.2032 177.039 25.241 179.423 25.7025C179.308 32.7388 175.155 41.6593 170.426 41.6593C164.505 41.6593 167.235 22.7418 174.886 18.0893C174.463 15.6669 171.272 15.3209 168.311 16.6282C162.621 19.0506 159.122 28.2017 159.621 35.7764C157.391 39.2369 155.2 41.3901 153.815 41.3901C153.162 41.3901 152.431 40.7749 152.431 39.16C152.431 34.6998 154.661 22.3573 155.93 14.0905C156.776 8.16917 155.738 0.97898 147.663 0.97898C142.011 0.97898 138.897 6.36201 136.59 14.7441H133.168C131.707 14.7441 130.822 18.5507 132.437 18.6661C132.937 18.7045 134.167 18.7045 135.628 18.7045C135.206 20.5501 134.821 22.5495 134.437 24.5874C134.244 25.6255 134.052 26.7406 133.86 27.8557C130.976 33.8923 124.247 42.1591 118.249 42.1591C115.481 42.1591 114.481 38.7755 114.673 34.6229C130.976 35.3534 136.013 14.8595 121.44 14.9748C112.751 15.0133 107.406 24.2029 106.752 32.6619C104.138 36.9683 99.8313 42.2745 95.8325 42.2745C87.3735 42.2745 93.0641 19.1275 98.7932 19.1275C101.216 19.1275 100.716 23.0494 99.2161 25.7025C99.7544 29.0861 105.137 29.3937 106.406 23.703C107.368 19.3582 104.715 15.1286 99.1008 15.1286C89.7958 15.1286 83.9129 25.5102 83.8745 34.4306C82.0673 38.3141 79.7603 40.4289 78.0685 40.4289C76.6843 40.4289 76.492 38.8524 78.1839 29.5475C78.6068 27.202 79.0298 24.5874 79.4527 21.819C80.0679 17.8586 78.4146 15.5132 74.9925 15.4747C74.9925 15.4747 74.608 15.4747 74.4542 15.4747C72.0703 15.5901 68.8789 16.6282 65.4953 18.9737C63.4574 14.2058 57.6899 15.1671 56.4595 19.3582C55.4982 22.6649 57.8821 24.7796 60.266 25.2026C60.1122 32.4312 55.9981 41.6593 51.2687 41.6593C45.3474 41.6593 48.0773 22.0881 55.7289 17.3203C55.306 14.7826 52.1146 14.475 49.1539 15.7439C38.8877 20.0887 35.7348 46.85 50.1152 46.85C61.5349 46.85 65.9567 30.6625 66.1874 23.5108C68.033 22.1266 70.0709 21.05 71.2244 21.0115H71.2628C71.8011 21.0115 71.9934 21.2422 71.878 21.8574C71.2244 26.7406 69.571 34.9689 69.571 39.4292C69.571 43.9663 70.8399 46.85 74.7618 46.85C78.453 46.85 82.0673 43.5818 84.5281 39.4676C85.8354 43.7356 88.9884 46.85 94.4098 46.85C99.7929 46.85 104.061 42.5436 107.022 38.3526C108.06 43.1973 111.097 46.85 116.519 46.85C124.055 46.85 129.553 40.8518 132.745 35.2381C132.552 36.6992 132.36 38.2372 132.168 39.7752C131.091 48.3496 130.284 51.8486 128.9 54.9246C128.323 56.1934 127.708 57.4238 127.016 58.6158C126.477 59.577 127.131 60 127.977 60C129.861 60 132.937 58.8465 134.859 55.6551C136.667 52.6945 138.474 49.7338 140.358 32.7004C140.781 29.0476 141.358 23.7799 142.165 18.743H144.28C146.202 18.743 147.971 15.1286 145.741 14.9364C145.356 14.8979 144.28 14.8595 142.857 14.8595C144.049 8.86127 145.702 4.05499 147.971 4.05499C150.086 4.05499 150.509 7.32326 149.547 12.6294C147.971 20.8962 146.471 31.2393 145.856 37.1606C145.126 44.1585 147.433 46.8885 151.355 46.8885C154.431 46.8885 157.853 44.0816 160.467 40.4289C161.813 44.197 164.581 46.8885 169.234 46.8885C179.692 46.8885 184.306 33.6616 185.152 26.1638C186.69 25.664 188.151 25.0488 189.613 24.3567C188.613 29.5859 187.844 35.315 187.844 38.6602C187.844 43.5433 190.266 46.8116 193.996 46.8116C199.456 46.8116 203.186 41.6593 205.454 37.3913C205.454 43.005 207.607 46.9269 212.721 46.9269C223.833 46.9269 231.639 24.3951 231.639 17.205C231.639 9.16887 222.257 9.47647 221.296 15.5131ZM121.633 18.8968C126.093 18.8968 122.786 30.3934 115.019 31.1239C116.019 25.1257 118.787 18.8968 121.633 18.8968ZM77.0303 11.7066C83.2593 11.7066 84.6435 0.902081 78.107 0.902081C71.9549 0.902081 70.6861 11.7066 77.0303 11.7066ZM29.1983 1.67108C31.1977 2.82459 34.1584 6.97721 33.0048 15.8592C31.0823 30.0473 23.4692 41.6593 20.9315 41.6593C19.4704 41.6593 19.5473 39.4292 21.4698 31.2008C24.0075 20.3963 27.5065 5.09315 13.7413 5.09315C-0.8698 5.09315 -2.63851 20.7424 6.74334 22.6649C5.35913 15.3593 9.70401 8.47676 13.8182 8.47676C18.2784 8.47676 16.3559 17.0512 14.5487 26.2408C12.434 36.9299 10.0116 49.0802 18.4707 49.0802C30.198 49.0802 39.0031 27.3943 40.5795 15.8592C42.6558 1.24814 33.7354 -2.67378 29.1983 1.67108Z" fill="#F4F4F4"/>
</svg>
