<svg width="315" height="40" viewBox="0 0 315 40" fill="none" xmlns="http://www.w3.org/2000/svg">
<path d="M79.2023 8.19334L69.4788 32.1027H66.2987L56.5752 8.19334H59.4057C59.7165 8.19334 59.9662 8.27104 60.1549 8.42644C60.3547 8.58184 60.5046 8.78164 60.6045 9.02584L67.0646 25.2762C67.22 25.6758 67.3698 26.1143 67.5141 26.5916C67.6695 27.0689 67.8083 27.5684 67.9304 28.0901C68.0414 27.5684 68.1635 27.0689 68.2967 26.5916C68.4299 26.1143 68.5742 25.6758 68.7296 25.2762L75.1731 9.02584C75.2508 8.80384 75.3895 8.60959 75.5893 8.44309C75.8002 8.27659 76.0555 8.19334 76.3552 8.19334H79.2023Z" fill="#F4F4F4"/>
<path d="M83.401 15.1863V32.1027H80.1543V15.1863H83.401ZM84.017 9.95824C84.017 10.2579 83.956 10.5465 83.8339 10.824C83.7118 11.0904 83.5453 11.3291 83.3344 11.54C83.1346 11.7398 82.896 11.9007 82.6185 12.0228C82.341 12.1338 82.0524 12.1893 81.7527 12.1893C81.453 12.1893 81.1699 12.1338 80.9035 12.0228C80.6371 11.9007 80.3985 11.7398 80.1876 11.54C79.9878 11.3291 79.8269 11.0904 79.7048 10.824C79.5938 10.5465 79.5383 10.2579 79.5383 9.95824C79.5383 9.64744 79.5938 9.35884 79.7048 9.09244C79.8269 8.81494 79.9878 8.57629 80.1876 8.37649C80.3985 8.16559 80.6371 8.00464 80.9035 7.89364C81.1699 7.77154 81.453 7.71049 81.7527 7.71049C82.0524 7.71049 82.341 7.77154 82.6185 7.89364C82.896 8.00464 83.1346 8.16559 83.3344 8.37649C83.5453 8.57629 83.7118 8.81494 83.8339 9.09244C83.956 9.35884 84.017 9.64744 84.017 9.95824Z" fill="#F4F4F4"/>
<path d="M96.8219 18.1001C96.7331 18.2444 96.6387 18.3498 96.5388 18.4164C96.4389 18.4719 96.3113 18.4997 96.1559 18.4997C95.9783 18.4997 95.7785 18.4386 95.5565 18.3165C95.3456 18.1944 95.0847 18.0612 94.7739 17.9169C94.4743 17.7726 94.1191 17.6394 93.7084 17.5173C93.2977 17.3952 92.8093 17.3342 92.2432 17.3342C91.777 17.3342 91.3496 17.3952 90.9611 17.5173C90.5837 17.6283 90.2618 17.7893 89.9954 18.0002C89.729 18.2 89.5237 18.4442 89.3794 18.7328C89.2351 19.0103 89.163 19.31 89.163 19.6319C89.163 20.0537 89.2851 20.4033 89.5293 20.6808C89.7845 20.9583 90.112 21.197 90.5116 21.3968C90.9223 21.5966 91.3829 21.7797 91.8935 21.9462C92.4152 22.1016 92.9425 22.2681 93.4753 22.4457C94.0192 22.6233 94.5464 22.8287 95.057 23.0618C95.5787 23.2838 96.0393 23.5668 96.4389 23.9109C96.8496 24.2439 97.1771 24.6491 97.4213 25.1264C97.6766 25.6037 97.8042 26.1864 97.8042 26.8746C97.8042 27.6627 97.6599 28.3953 97.3713 29.0724C97.0938 29.7384 96.6776 30.3156 96.1226 30.804C95.5787 31.2924 94.9016 31.6754 94.0913 31.9529C93.281 32.2304 92.3542 32.3691 91.3108 32.3691C90.1453 32.3691 89.0686 32.1749 88.0807 31.7864C87.0928 31.3979 86.2659 30.9039 85.5999 30.3045L86.3658 29.0558C86.4546 28.9004 86.5656 28.7838 86.6988 28.7061C86.832 28.6173 87.0096 28.5729 87.2316 28.5729C87.4425 28.5729 87.6589 28.6506 87.8809 28.806C88.1029 28.9614 88.3693 29.1335 88.6801 29.3222C88.9909 29.4998 89.3683 29.6663 89.8123 29.8217C90.2563 29.966 90.8113 30.0381 91.4773 30.0381C92.0323 30.0381 92.5151 29.9715 92.9258 29.8383C93.3365 29.694 93.6751 29.5053 93.9415 29.2722C94.219 29.028 94.4243 28.7505 94.5575 28.4397C94.6907 28.1289 94.7573 27.8015 94.7573 27.4574C94.7573 27.0134 94.6296 26.6471 94.3744 26.3585C94.1302 26.0588 93.8027 25.8035 93.392 25.5926C92.9924 25.3817 92.5318 25.1985 92.0101 25.0431C91.4884 24.8877 90.9556 24.7212 90.4117 24.5436C89.8678 24.366 89.335 24.1607 88.8133 23.9276C88.2916 23.6945 87.8254 23.4003 87.4147 23.0451C87.0151 22.6899 86.6877 22.257 86.4324 21.7464C86.1882 21.2358 86.0661 20.6142 86.0661 19.8816C86.0661 19.2267 86.1993 18.5996 86.4657 18.0002C86.7432 17.4008 87.1372 16.8735 87.6478 16.4184C88.1695 15.9633 88.8078 15.6026 89.5626 15.3362C90.3284 15.0587 91.1998 14.9199 92.1766 14.9199C93.2977 14.9199 94.3078 15.0975 95.2068 15.4527C96.117 15.8079 96.894 16.2963 97.5378 16.9179L96.8219 18.1001Z" fill="#F4F4F4"/>
<path d="M113.6 15.1863V32.1027H111.652C111.208 32.1027 110.919 31.8863 110.786 31.4534L110.553 29.7551C110.186 30.1436 109.803 30.4988 109.404 30.8207C109.004 31.1426 108.577 31.4201 108.122 31.6532C107.667 31.8752 107.184 32.0472 106.673 32.1693C106.163 32.3025 105.613 32.3691 105.025 32.3691C104.093 32.3691 103.271 32.2137 102.561 31.9029C101.861 31.5921 101.273 31.1592 100.796 30.6042C100.319 30.0381 99.9578 29.361 99.7136 28.5729C99.4694 27.7848 99.3474 26.9135 99.3474 25.9589V15.1863H102.611V25.9589C102.611 27.1688 102.888 28.1123 103.443 28.7894C103.998 29.4554 104.847 29.7884 105.991 29.7884C106.823 29.7884 107.6 29.5941 108.322 29.2056C109.043 28.806 109.72 28.2621 110.353 27.5739V15.1863H113.6Z" fill="#F4F4F4"/>
<path d="M126.419 24.5936C125.098 24.638 123.977 24.7434 123.056 24.9099C122.135 25.0653 121.386 25.2762 120.808 25.5426C120.231 25.809 119.815 26.1254 119.56 26.4917C119.304 26.8469 119.177 27.2465 119.177 27.6905C119.177 28.1123 119.243 28.4786 119.376 28.7894C119.521 29.0891 119.709 29.3388 119.943 29.5386C120.187 29.7273 120.47 29.8661 120.792 29.9549C121.114 30.0437 121.463 30.0881 121.841 30.0881C122.34 30.0881 122.795 30.0381 123.206 29.9382C123.628 29.8383 124.022 29.6996 124.388 29.522C124.754 29.3333 125.104 29.1057 125.437 28.8393C125.77 28.5729 126.097 28.2677 126.419 27.9236V24.5936ZM116.896 17.5506C117.839 16.6515 118.86 15.98 119.959 15.536C121.069 15.092 122.285 14.87 123.605 14.87C124.571 14.87 125.426 15.0309 126.17 15.3528C126.913 15.6636 127.54 16.1021 128.051 16.6682C128.562 17.2343 128.945 17.9114 129.2 18.6995C129.466 19.4876 129.599 20.3589 129.599 21.3135V32.1027H128.151C127.829 32.1027 127.585 32.0528 127.418 31.9529C127.252 31.8419 127.119 31.6421 127.019 31.3535L126.669 29.8716C126.236 30.2712 125.809 30.6264 125.387 30.9372C124.965 31.2369 124.521 31.4978 124.055 31.7198C123.6 31.9307 123.112 32.0916 122.59 32.2026C122.068 32.3136 121.491 32.3691 120.858 32.3691C120.192 32.3691 119.565 32.2803 118.977 32.1027C118.4 31.914 117.895 31.631 117.462 31.2536C117.029 30.8762 116.685 30.4044 116.429 29.8383C116.185 29.2722 116.063 28.6118 116.063 27.857C116.063 27.191 116.241 26.5527 116.596 25.9422C116.962 25.3206 117.551 24.7656 118.361 24.2772C119.182 23.7888 120.248 23.3892 121.558 23.0784C122.878 22.7676 124.499 22.59 126.419 22.5456V21.3135C126.419 20.037 126.147 19.0824 125.603 18.4497C125.06 17.817 124.26 17.5007 123.206 17.5007C122.496 17.5007 121.896 17.5895 121.408 17.7671C120.93 17.9447 120.514 18.1445 120.159 18.3665C119.815 18.5774 119.51 18.7716 119.243 18.9492C118.988 19.1268 118.722 19.2156 118.444 19.2156C118.222 19.2156 118.028 19.1546 117.861 19.0325C117.706 18.9104 117.578 18.7661 117.478 18.5996L116.896 17.5506Z" fill="#F4F4F4"/>
<path d="M136.063 7.52734V32.1027H132.799V7.52734H136.063Z" fill="#F4F4F4"/>
<path d="M160.702 12.0894C160.591 12.2781 160.474 12.4169 160.352 12.5057C160.23 12.5945 160.074 12.6389 159.886 12.6389C159.686 12.6389 159.458 12.5501 159.203 12.3725C158.948 12.1838 158.626 11.9784 158.237 11.7564C157.86 11.5233 157.405 11.318 156.872 11.1404C156.339 10.9517 155.701 10.8573 154.957 10.8573C154.258 10.8573 153.642 10.9517 153.109 11.1404C152.587 11.318 152.149 11.5677 151.794 11.8896C151.439 12.2004 151.167 12.5723 150.978 13.0052C150.8 13.427 150.712 13.8876 150.712 14.3871C150.712 15.0309 150.873 15.5637 151.194 15.9855C151.527 16.4073 151.96 16.7681 152.493 17.0678C153.026 17.3675 153.631 17.6283 154.308 17.8503C154.985 18.0723 155.679 18.3054 156.389 18.5496C157.1 18.7827 157.793 19.0547 158.47 19.3655C159.148 19.6763 159.752 20.0703 160.285 20.5476C160.818 21.0138 161.245 21.591 161.567 22.2792C161.9 22.9563 162.067 23.7888 162.067 24.7767C162.067 25.8312 161.884 26.8191 161.517 27.7404C161.162 28.6617 160.64 29.4665 159.952 30.1547C159.264 30.8429 158.415 31.3868 157.405 31.7864C156.406 32.1749 155.268 32.3691 153.992 32.3691C153.226 32.3691 152.482 32.2914 151.761 32.136C151.039 31.9917 150.356 31.7864 149.713 31.52C149.069 31.2425 148.464 30.915 147.898 30.5376C147.343 30.1491 146.843 29.7162 146.399 29.2389L147.415 27.5406C147.515 27.4074 147.631 27.2964 147.765 27.2076C147.909 27.1188 148.07 27.0744 148.247 27.0744C148.48 27.0744 148.747 27.1965 149.047 27.4407C149.357 27.6849 149.735 27.9569 150.179 28.2566C150.634 28.5452 151.172 28.8116 151.794 29.0558C152.426 29.3 153.192 29.4221 154.091 29.4221C154.824 29.4221 155.479 29.3277 156.056 29.139C156.633 28.9392 157.116 28.6617 157.505 28.3065C157.904 27.9402 158.21 27.5018 158.42 26.9912C158.631 26.4806 158.737 25.9145 158.737 25.2929C158.737 24.5936 158.576 24.0219 158.254 23.5779C157.932 23.1339 157.505 22.7621 156.972 22.4624C156.439 22.1627 155.834 21.9074 155.157 21.6965C154.48 21.4856 153.786 21.2691 153.076 21.0471C152.365 20.814 151.672 20.5476 150.995 20.2479C150.318 19.9482 149.713 19.5597 149.18 19.0824C148.647 18.594 148.22 17.9891 147.898 17.2676C147.576 16.535 147.415 15.6359 147.415 14.5703C147.415 13.7156 147.581 12.8886 147.914 12.0894C148.247 11.2902 148.73 10.5854 149.363 9.97489C150.007 9.35329 150.795 8.85934 151.727 8.49304C152.66 8.11564 153.725 7.92694 154.924 7.92694C156.267 7.92694 157.499 8.14339 158.62 8.57629C159.752 8.99809 160.735 9.60859 161.567 10.4078L160.702 12.0894Z" fill="#F4F4F4"/>
<path d="M169.292 32.3691C167.927 32.3691 166.872 31.9862 166.129 31.2203C165.396 30.4544 165.03 29.361 165.03 27.9402V17.817H163.065C162.876 17.817 162.715 17.7615 162.582 17.6505C162.46 17.5284 162.399 17.3508 162.399 17.1177V15.8024L165.146 15.4194L165.879 10.3745C165.923 10.1858 166.007 10.0415 166.129 9.94159C166.262 9.83059 166.428 9.77509 166.628 9.77509H168.276V15.4527H173.072V17.817H168.276V27.7238C168.276 28.3898 168.437 28.8893 168.759 29.2223C169.092 29.5442 169.514 29.7051 170.025 29.7051C170.324 29.7051 170.58 29.6663 170.791 29.5886C171.013 29.5109 171.201 29.4276 171.357 29.3388C171.512 29.2389 171.645 29.1501 171.756 29.0724C171.867 28.9947 171.967 28.9559 172.056 28.9559C172.167 28.9559 172.25 28.9836 172.306 29.0391C172.372 29.0835 172.439 29.1612 172.506 29.2722L173.471 30.8373C172.938 31.3257 172.306 31.7031 171.573 31.9695C170.841 32.2359 170.08 32.3691 169.292 32.3691Z" fill="#F4F4F4"/>
<path d="M188.799 15.1863V32.1027H186.851C186.407 32.1027 186.118 31.8863 185.985 31.4534L185.752 29.7551C185.386 30.1436 185.003 30.4988 184.603 30.8207C184.203 31.1426 183.776 31.4201 183.321 31.6532C182.866 31.8752 182.383 32.0472 181.872 32.1693C181.362 32.3025 180.812 32.3691 180.224 32.3691C179.292 32.3691 178.47 32.2137 177.76 31.9029C177.061 31.5921 176.472 31.1592 175.995 30.6042C175.518 30.0381 175.157 29.361 174.913 28.5729C174.669 27.7848 174.547 26.9135 174.547 25.9589V15.1863H177.81V25.9589C177.81 27.1688 178.087 28.1123 178.642 28.7894C179.197 29.4554 180.047 29.7884 181.19 29.7884C182.022 29.7884 182.799 29.5941 183.521 29.2056C184.242 28.806 184.919 28.2621 185.552 27.5739V15.1863H188.799Z" fill="#F4F4F4"/>
<path d="M203.135 19.2822C202.602 18.5829 202.025 18.0945 201.404 17.817C200.793 17.5395 200.105 17.4008 199.339 17.4008C197.852 17.4008 196.697 17.9391 195.876 19.0158C195.066 20.0814 194.661 21.641 194.661 23.6945C194.661 24.7712 194.749 25.6925 194.927 26.4584C195.116 27.2132 195.382 27.8348 195.726 28.3232C196.081 28.8005 196.514 29.1557 197.025 29.3888C197.535 29.6108 198.113 29.7218 198.756 29.7218C199.7 29.7218 200.516 29.5109 201.204 29.0891C201.892 28.6673 202.536 28.0734 203.135 27.3075V19.2822ZM206.399 7.52734V32.1027H204.434C203.979 32.1027 203.696 31.8863 203.585 31.4534L203.302 29.5053C202.58 30.36 201.759 31.0482 200.838 31.5699C199.927 32.0805 198.873 32.3358 197.674 32.3358C196.708 32.3358 195.832 32.1471 195.043 31.7697C194.266 31.3923 193.6 30.8429 193.045 30.1214C192.49 29.3888 192.063 28.4841 191.763 27.4074C191.464 26.3307 191.314 25.0931 191.314 23.6945C191.314 22.4402 191.48 21.2747 191.813 20.198C192.146 19.1213 192.629 18.1889 193.262 17.4008C193.895 16.6127 194.661 15.9966 195.56 15.5526C196.459 15.0975 197.474 14.87 198.607 14.87C199.628 14.87 200.493 15.0365 201.204 15.3695C201.925 15.7025 202.569 16.1742 203.135 16.7847V7.52734H206.399Z" fill="#F4F4F4"/>
<path d="M214.317 15.1863V32.1027H211.07V15.1863H214.317ZM214.933 9.95824C214.933 10.2579 214.872 10.5465 214.75 10.824C214.628 11.0904 214.461 11.3291 214.25 11.54C214.05 11.7398 213.812 11.9007 213.534 12.0228C213.257 12.1338 212.968 12.1893 212.668 12.1893C212.369 12.1893 212.086 12.1338 211.819 12.0228C211.553 11.9007 211.314 11.7398 211.103 11.54C210.904 11.3291 210.743 11.0904 210.621 10.824C210.51 10.5465 210.454 10.2579 210.454 9.95824C210.454 9.64744 210.51 9.35884 210.621 9.09244C210.743 8.81494 210.904 8.57629 211.103 8.37649C211.314 8.16559 211.553 8.00464 211.819 7.89364C212.086 7.77154 212.369 7.71049 212.668 7.71049C212.968 7.71049 213.257 7.77154 213.534 7.89364C213.812 8.00464 214.05 8.16559 214.25 8.37649C214.461 8.57629 214.628 8.81494 214.75 9.09244C214.872 9.35884 214.933 9.64744 214.933 9.95824Z" fill="#F4F4F4"/>
<path d="M225.228 14.9199C226.471 14.9199 227.592 15.1253 228.591 15.536C229.601 15.9356 230.456 16.5183 231.155 17.2842C231.866 18.039 232.41 18.9548 232.787 20.0315C233.164 21.0971 233.353 22.2959 233.353 23.6279C233.353 24.9599 233.164 26.1642 232.787 27.2409C232.41 28.3176 231.866 29.2334 231.155 29.9882C230.456 30.743 229.601 31.3257 228.591 31.7364C227.592 32.136 226.471 32.3358 225.228 32.3358C223.974 32.3358 222.841 32.136 221.831 31.7364C220.832 31.3257 219.978 30.743 219.267 29.9882C218.557 29.2334 218.007 28.3176 217.619 27.2409C217.242 26.1642 217.053 24.9599 217.053 23.6279C217.053 22.2959 217.242 21.0971 217.619 20.0315C218.007 18.9548 218.557 18.039 219.267 17.2842C219.978 16.5183 220.832 15.9356 221.831 15.536C222.841 15.1253 223.974 14.9199 225.228 14.9199ZM225.228 29.805C226.826 29.805 228.02 29.2667 228.808 28.19C229.596 27.1133 229.99 25.5981 229.99 23.6445C229.99 21.6909 229.596 20.1758 228.808 19.0991C228.02 18.0113 226.826 17.4674 225.228 17.4674C223.607 17.4674 222.397 18.0113 221.598 19.0991C220.81 20.1758 220.416 21.6909 220.416 23.6445C220.416 25.5981 220.81 27.1133 221.598 28.19C222.397 29.2667 223.607 29.805 225.228 29.805Z" fill="#F4F4F4"/>
<path d="M260.768 26.9745C260.967 26.9745 261.139 27.0522 261.284 27.2076L262.682 28.7394C261.705 29.8938 260.512 30.7874 259.103 31.4201C257.704 32.0528 256.017 32.3691 254.041 32.3691C252.309 32.3691 250.739 32.0694 249.329 31.47C247.93 30.8706 246.732 30.0326 245.733 28.9559C244.745 27.8792 243.979 26.5916 243.435 25.0931C242.891 23.5946 242.619 21.9462 242.619 20.148C242.619 18.3498 242.902 16.7015 243.468 15.203C244.046 13.7045 244.85 12.4169 245.883 11.3402C246.915 10.2635 248.147 9.42544 249.579 8.82604C251.022 8.22664 252.615 7.92694 254.357 7.92694C256.056 7.92694 257.565 8.20444 258.886 8.75944C260.207 9.31444 261.356 10.0526 262.332 10.9739L261.167 12.6222C261.089 12.7443 260.99 12.8442 260.867 12.9219C260.756 12.9996 260.607 13.0385 260.418 13.0385C260.207 13.0385 259.957 12.933 259.669 12.7221C259.391 12.5112 259.019 12.2781 258.553 12.0228C258.098 11.7564 257.532 11.5178 256.855 11.3069C256.178 11.096 255.334 10.9905 254.324 10.9905C253.136 10.9905 252.049 11.2014 251.061 11.6232C250.073 12.0339 249.218 12.6333 248.497 13.4214C247.786 14.1984 247.231 15.1586 246.832 16.3019C246.443 17.4341 246.249 18.7161 246.249 20.148C246.249 21.6021 246.454 22.8953 246.865 24.0275C247.276 25.1597 247.842 26.1198 248.563 26.9079C249.285 27.696 250.134 28.2954 251.111 28.7061C252.087 29.1168 253.142 29.3222 254.274 29.3222C254.962 29.3222 255.578 29.2833 256.122 29.2056C256.677 29.1168 257.182 28.9892 257.637 28.8227C258.104 28.6562 258.542 28.4453 258.953 28.19C259.363 27.9236 259.769 27.6072 260.168 27.2409C260.257 27.1632 260.351 27.1022 260.451 27.0578C260.551 27.0023 260.657 26.9745 260.768 26.9745Z" fill="#F4F4F4"/>
<path d="M270.573 14.9199C271.816 14.9199 272.937 15.1253 273.936 15.536C274.946 15.9356 275.801 16.5183 276.5 17.2842C277.211 18.039 277.755 18.9548 278.132 20.0315C278.51 21.0971 278.698 22.2959 278.698 23.6279C278.698 24.9599 278.51 26.1642 278.132 27.2409C277.755 28.3176 277.211 29.2334 276.5 29.9882C275.801 30.743 274.946 31.3257 273.936 31.7364C272.937 32.136 271.816 32.3358 270.573 32.3358C269.319 32.3358 268.187 32.136 267.177 31.7364C266.178 31.3257 265.323 30.743 264.612 29.9882C263.902 29.2334 263.353 28.3176 262.964 27.2409C262.587 26.1642 262.398 24.9599 262.398 23.6279C262.398 22.2959 262.587 21.0971 262.964 20.0315C263.353 18.9548 263.902 18.039 264.612 17.2842C265.323 16.5183 266.178 15.9356 267.177 15.536C268.187 15.1253 269.319 14.9199 270.573 14.9199ZM270.573 29.805C272.171 29.805 273.365 29.2667 274.153 28.19C274.941 27.1133 275.335 25.5981 275.335 23.6445C275.335 21.6909 274.941 20.1758 274.153 19.0991C273.365 18.0113 272.171 17.4674 270.573 17.4674C268.953 17.4674 267.743 18.0113 266.943 19.0991C266.155 20.1758 265.761 21.6909 265.761 23.6445C265.761 25.5981 266.155 27.1133 266.943 28.19C267.743 29.2667 268.953 29.805 270.573 29.805Z" fill="#F4F4F4"/>
<path d="M292.079 19.2822C291.547 18.5829 290.969 18.0945 290.348 17.817C289.737 17.5395 289.049 17.4008 288.283 17.4008C286.796 17.4008 285.641 17.9391 284.82 19.0158C284.01 20.0814 283.605 21.641 283.605 23.6945C283.605 24.7712 283.693 25.6925 283.871 26.4584C284.06 27.2132 284.326 27.8348 284.67 28.3232C285.025 28.8005 285.458 29.1557 285.969 29.3888C286.479 29.6108 287.057 29.7218 287.7 29.7218C288.644 29.7218 289.46 29.5109 290.148 29.0891C290.836 28.6673 291.48 28.0734 292.079 27.3075V19.2822ZM295.343 7.52734V32.1027H293.378C292.923 32.1027 292.64 31.8863 292.529 31.4534L292.246 29.5053C291.524 30.36 290.703 31.0482 289.782 31.5699C288.871 32.0805 287.817 32.3358 286.618 32.3358C285.652 32.3358 284.776 32.1471 283.988 31.7697C283.211 31.3923 282.545 30.8429 281.99 30.1214C281.435 29.3888 281.007 28.4841 280.707 27.4074C280.408 26.3307 280.258 25.0931 280.258 23.6945C280.258 22.4402 280.424 21.2747 280.757 20.198C281.09 19.1213 281.573 18.1889 282.206 17.4008C282.839 16.6127 283.605 15.9966 284.504 15.5526C285.403 15.0975 286.418 14.87 287.551 14.87C288.572 14.87 289.438 15.0365 290.148 15.3695C290.869 15.7025 291.513 16.1742 292.079 16.7847V7.52734H295.343Z" fill="#F4F4F4"/>
<path d="M311.12 21.7631C311.12 21.1193 311.026 20.5254 310.837 19.9815C310.659 19.4376 310.393 18.9659 310.038 18.5663C309.683 18.1667 309.25 17.8559 308.739 17.6339C308.229 17.4119 307.64 17.3009 306.974 17.3009C305.609 17.3009 304.532 17.6949 303.744 18.483C302.967 19.2711 302.473 20.3645 302.262 21.7631H311.12ZM313.801 29.6885C313.401 30.1547 312.94 30.5598 312.419 30.9039C311.897 31.2369 311.342 31.5089 310.754 31.7198C310.165 31.9307 309.555 32.0861 308.922 32.186C308.301 32.2859 307.685 32.3358 307.074 32.3358C305.909 32.3358 304.826 32.1416 303.827 31.7531C302.84 31.3535 301.979 30.7763 301.247 30.0215C300.525 29.2556 299.959 28.3121 299.548 27.191C299.149 26.0588 298.949 24.7601 298.949 23.2949C298.949 22.1183 299.132 21.0249 299.498 20.0148C299.865 18.9936 300.387 18.1056 301.064 17.3508C301.752 16.596 302.59 16.0022 303.578 15.5693C304.566 15.1364 305.676 14.9199 306.908 14.9199C307.94 14.9199 308.889 15.092 309.755 15.4361C310.632 15.7691 311.386 16.2575 312.019 16.9013C312.652 17.5451 313.146 18.3387 313.501 19.2822C313.867 20.2257 314.05 21.3024 314.05 22.5123C314.05 23.0118 313.995 23.3504 313.884 23.528C313.773 23.6945 313.568 23.7777 313.268 23.7777H302.179C302.212 24.7878 302.357 25.6703 302.612 26.4251C302.867 27.1688 303.217 27.7904 303.661 28.2899C304.116 28.7894 304.654 29.1612 305.276 29.4054C305.898 29.6496 306.591 29.7717 307.357 29.7717C308.079 29.7717 308.7 29.6885 309.222 29.522C309.755 29.3555 310.21 29.1779 310.587 28.9892C310.976 28.7894 311.298 28.6062 311.553 28.4397C311.819 28.2732 312.052 28.19 312.252 28.19C312.519 28.19 312.724 28.2899 312.868 28.4897L313.801 29.6885Z" fill="#F4F4F4"/>
<mask id="mask0_656_935" style="mask-type:alpha" maskUnits="userSpaceOnUse" x="0" y="0" width="40" height="40">
<path fill-rule="evenodd" clip-rule="evenodd" d="M28.3648 39.6239C28.9948 39.8693 29.7131 39.8536 30.349 39.5476L38.5843 35.5849C39.4497 35.1685 40 34.2927 40 33.3319V6.4622C40 5.50139 39.4497 4.62559 38.5844 4.20919L30.349 0.246354C29.5145 -0.155202 28.5378 -0.0568459 27.8054 0.475632C27.7008 0.551697 27.6011 0.636625 27.5076 0.730217L11.742 15.1135L4.87488 9.90073C4.2356 9.41549 3.34145 9.45525 2.74773 9.99533L0.545212 11.9989C-0.181021 12.6595 -0.181853 13.802 0.543412 14.4637L6.49884 19.897L0.543412 25.3302C-0.181853 25.9919 -0.181021 27.1345 0.545212 27.7951L2.74773 29.7986C3.34145 30.3387 4.2356 30.3785 4.87488 29.8932L11.742 24.6804L27.5076 39.0637C27.757 39.3133 28.0498 39.5012 28.3648 39.6239ZM30.0061 10.8165L18.0436 19.897L30.0061 28.9774V10.8165Z" fill="white"/>
</mask>
<g mask="url(#mask0_656_935)">
<path d="M38.5835 4.21502L30.3417 0.246739C29.3877 -0.212589 28.2476 -0.0188346 27.4989 0.729856L0.518354 25.3299C-0.207355 25.9915 -0.206521 27.1341 0.520154 27.7947L2.72401 29.7982C3.31809 30.3383 4.2128 30.3781 4.85244 29.8928L37.3433 5.2445C38.4333 4.41758 39.9989 5.19502 39.9989 6.56323V6.46755C39.9989 5.50714 39.4488 4.63166 38.5835 4.21502Z" fill="#F4F4F4"/>
<g filter="url(#filter0_d_656_935)">
<path d="M38.5825 35.5792L30.3407 39.5475C29.3867 40.0069 28.2466 39.813 27.4979 39.0643L0.517377 14.4643C-0.208332 13.8026 -0.207498 12.6601 0.519177 11.9995L2.72303 9.99595C3.31712 9.45586 4.21183 9.4161 4.85147 9.90135L37.3423 34.5497C38.4323 35.3766 39.9979 34.5992 39.9979 33.231V33.3267C39.9979 34.287 39.4478 35.1625 38.5825 35.5792Z" fill="#F4F4F4"/>
</g>
<g filter="url(#filter1_d_656_935)">
<path d="M30.3441 39.5476C29.3898 40.0067 28.2497 39.8125 27.501 39.0637C28.4235 39.9863 30.001 39.3329 30.001 38.0282V1.76576C30.001 0.461058 28.4235 -0.192344 27.501 0.730219C28.2497 -0.0185397 29.3898 -0.212568 30.3441 0.246354L38.5845 4.2092C39.4503 4.6256 40.001 5.5014 40.001 6.46221V33.3319C40.001 34.2927 39.4503 35.1685 38.5844 35.5849L30.3441 39.5476Z" fill="#F4F4F4"/>
</g>
<g style="mix-blend-mode:overlay" opacity="0.25">
<path fill-rule="evenodd" clip-rule="evenodd" d="M28.3384 39.6239C28.9684 39.8693 29.6868 39.8536 30.3226 39.5476L38.5579 35.5849C39.4233 35.1685 39.9736 34.2927 39.9736 33.3318V6.46222C39.9736 5.50138 39.4233 4.62557 38.558 4.20917L30.3226 0.246354C29.4881 -0.155202 28.5115 -0.0568457 27.779 0.475629C27.6744 0.551697 27.5747 0.636626 27.4812 0.730218L11.7157 15.1135L4.84851 9.90075C4.20927 9.41547 3.31509 9.45527 2.72137 9.99532L0.518846 11.9988C-0.207388 12.6595 -0.20822 13.802 0.517046 14.4637L6.47247 19.897L0.517046 25.3303C-0.20822 25.9919 -0.207388 27.1345 0.518846 27.7951L2.72137 29.7986C3.31509 30.3387 4.20927 30.3784 4.84851 29.8932L11.7157 24.6804L27.4812 39.0637C27.7306 39.3132 28.0235 39.5012 28.3384 39.6239ZM29.9797 10.8165L18.0173 19.897L29.9797 28.9775V10.8165Z" fill="url(#paint0_linear_656_935)"/>
</g>
</g>
<defs>
<filter id="filter0_d_656_935" x="-3.35971" y="6.22916" width="46.6911" height="36.8991" filterUnits="userSpaceOnUse" color-interpolation-filters="sRGB">
<feFlood flood-opacity="0" result="BackgroundImageFix"/>
<feColorMatrix in="SourceAlpha" type="matrix" values="0 0 0 0 0 0 0 0 0 0 0 0 0 0 0 0 0 0 127 0" result="hardAlpha"/>
<feOffset/>
<feGaussianBlur stdDeviation="1.66667"/>
<feColorMatrix type="matrix" values="0 0 0 0 0 0 0 0 0 0 0 0 0 0 0 0 0 0 0.25 0"/>
<feBlend mode="overlay" in2="BackgroundImageFix" result="effect1_dropShadow_656_935"/>
<feBlend mode="normal" in="SourceGraphic" in2="effect1_dropShadow_656_935" result="shape"/>
</filter>
<filter id="filter1_d_656_935" x="24.1676" y="-3.33334" width="19.1667" height="46.4616" filterUnits="userSpaceOnUse" color-interpolation-filters="sRGB">
<feFlood flood-opacity="0" result="BackgroundImageFix"/>
<feColorMatrix in="SourceAlpha" type="matrix" values="0 0 0 0 0 0 0 0 0 0 0 0 0 0 0 0 0 0 127 0" result="hardAlpha"/>
<feOffset/>
<feGaussianBlur stdDeviation="1.66667"/>
<feColorMatrix type="matrix" values="0 0 0 0 0 0 0 0 0 0 0 0 0 0 0 0 0 0 0.25 0"/>
<feBlend mode="overlay" in2="BackgroundImageFix" result="effect1_dropShadow_656_935"/>
<feBlend mode="normal" in="SourceGraphic" in2="effect1_dropShadow_656_935" result="shape"/>
</filter>
<linearGradient id="paint0_linear_656_935" x1="19.9736" y1="-2.26812e-07" x2="19.9736" y2="39.794" gradientUnits="userSpaceOnUse">
<stop stop-color="white"/>
<stop offset="1" stop-color="white" stop-opacity="0"/>
</linearGradient>
</defs>
</svg>
