<svg width="191" height="48" viewBox="0 0 191 48" fill="none" xmlns="http://www.w3.org/2000/svg">
<path d="M61.7894 18.7703C61.7894 15.3468 58.4603 11.7108 52.6993 11.7108C46.23 11.7108 39.1233 16.4565 38.0372 25.9243C36.9275 35.4865 42.8774 39.7364 48.8744 39.7364C54.8715 39.7364 58.0117 37.3989 61.2227 34.2823C58.4603 30.8116 54.8951 32.4171 54.2104 32.7713C53.4549 33.149 52.4868 33.6685 50.5035 33.6685C48.1897 33.6685 45.8287 32.6296 45.8287 28.3089C60.656 26.8451 61.7894 22.1938 61.7894 18.7703ZM54.4465 19.3369C54.3521 20.3994 53.9271 22.2174 46.4189 23.2327C48.0008 17.6134 51.023 17.1884 52.416 17.1884C53.7146 17.1884 54.5409 18.2036 54.4465 19.3369ZM29.325 20.2577C29.325 20.2577 26.1375 30.2686 25.8778 31.0949C25.7834 30.245 23.4459 12.2774 23.4459 12.2774C18.0155 12.2774 15.1114 16.1495 13.5768 20.2341C13.5768 20.2341 9.70465 30.2686 9.3741 31.1185C9.35049 30.3394 8.78384 20.3522 8.78384 20.3522C8.45329 15.3468 3.87286 12.301 0.166016 12.301L4.65201 39.5239C10.3421 39.5002 13.4115 35.6517 15.017 31.5671C15.017 31.5671 18.4405 22.7132 18.5822 22.3119C18.6058 22.6896 21.0377 39.5239 21.0377 39.5239C26.7514 39.5239 29.8208 35.9115 31.4735 31.9685L39.4775 12.301C33.8346 12.301 30.8596 16.1495 29.325 20.2577ZM82.7555 11.6636C79.2375 11.6636 76.5459 13.576 74.2793 16.3856V16.362L76.3098 0C71.6349 0 67.8336 4.06099 67.1017 10.1053L63.5601 39.3114C66.2517 39.3114 69.1086 38.5322 70.6433 36.5489C72.0127 38.3197 74.0668 39.7364 77.1125 39.7364C84.9985 39.7364 90.4053 30.5755 90.4053 21.9813C90.358 14.1426 86.5567 11.6636 82.7555 11.6636ZM82.0235 25.7118C81.1972 30.5047 78.5292 33.7629 75.9556 33.7629C73.3585 33.7629 72.2488 32.606 72.2488 32.606C72.7446 28.4033 73.0516 25.8298 73.996 23.6104C74.9404 21.391 77.1834 17.8495 79.5208 17.8495C81.811 17.8495 82.8499 20.8952 82.0235 25.7118ZM110.096 12.301H104.595L104.619 12.0177C104.997 8.42892 105.846 6.54009 108.656 6.23315C110.569 6.04427 111.419 5.05263 111.631 3.96655C111.796 3.11658 112.316 0.165273 112.316 0.165273C101.266 0.0944417 97.7953 4.86375 96.8981 12.1358L96.8745 12.301H96.7565C94.9621 12.301 92.9788 14.3315 92.6482 16.9051L92.5302 17.8495H96.2134L93.1205 43.396L92.176 47.9764C92.2941 47.9764 92.4357 48 92.5538 48C97.7245 47.8111 101.03 43.7265 101.762 37.8003L104.17 17.8495H105.894C107.594 17.8495 109.577 16.1495 109.931 13.3163L110.096 12.301ZM138.712 11.8288C132.361 11.8288 126.364 16.5037 124.522 23.8465C122.681 31.1894 125.467 39.878 134.817 39.878C144.143 39.878 149.526 30.8352 149.526 23.3035C149.526 15.819 144.45 11.8288 138.712 11.8288ZM141.286 25.4757C140.955 28.8047 139.491 33.8574 135.478 33.8574C131.44 33.8574 132.007 27.9547 132.408 25.1451C132.833 22.1466 134.51 17.8731 138.122 17.8731C141.357 17.8731 141.664 21.7216 141.286 25.4757ZM180.904 20.2577C180.904 20.2577 177.717 30.2686 177.457 31.0949C177.363 30.245 175.025 12.2774 175.025 12.2774C169.595 12.2774 166.691 16.1495 165.156 20.2341C165.156 20.2341 161.284 30.2686 160.953 31.1185C160.93 30.3394 160.363 20.3522 160.363 20.3522C160.033 15.3468 155.452 12.301 151.745 12.301L156.208 39.5239C161.898 39.5002 164.967 35.6517 166.573 31.5671C166.573 31.5671 169.996 22.7132 170.114 22.3119C170.138 22.6896 172.57 39.5239 172.57 39.5239C178.283 39.5239 181.353 35.9115 183.006 31.9685L191.009 12.301C185.39 12.301 182.415 16.1495 180.904 20.2577ZM115.291 0.165273L110.663 37.4934L109.719 42.0974C109.837 42.0974 109.978 42.121 110.096 42.121C115.078 42.0502 118.62 37.6822 119.281 32.181L121.949 10.7664C122.752 4.22627 118.856 0.165273 115.291 0.165273Z" fill="#F4F4F4"/>
</svg>
