<svg width="246" height="50" viewBox="0 0 246 50" fill="none" xmlns="http://www.w3.org/2000/svg">
<path d="M139.544 35.3314H139.155C137.155 35.3314 136.877 34.8314 136.877 32.276V20.2214H139.544C145.321 20.2214 146.376 24.4428 146.376 27.7207C146.376 31.1095 145.321 35.3314 139.544 35.3314ZM116.101 27.6092V20.2214H118.379C120.878 20.2214 121.99 21.9431 121.99 23.9429C121.99 25.8875 120.878 27.6092 118.379 27.6092H116.101ZM139.377 18.555H129.433V19.6099C132.544 19.6099 133.044 20.2766 133.044 24.2211V31.3319C133.044 35.2757 132.544 35.998 129.433 35.998C127.045 35.6648 125.434 34.3867 123.211 31.9426L120.657 29.1654C124.1 28.5539 125.934 26.3875 125.934 23.9429C125.934 20.8881 123.323 18.555 118.434 18.555H108.657V19.6099C111.768 19.6099 112.268 20.2766 112.268 24.2211V31.3319C112.268 35.2757 111.768 35.998 108.657 35.998V37.0531H119.712V35.998C116.601 35.998 116.101 35.2757 116.101 31.3319V29.332H117.045L123.211 37.0531H139.377C147.321 37.0531 150.765 32.8317 150.765 27.7758C150.765 22.7211 147.321 18.555 139.377 18.555Z" fill="#F4F4F4"/>
<path d="M77.7138 29.6652L81.5469 18.3317C82.6582 15.0546 82.1582 14.1104 78.6029 14.1104V12.999H89.0467V14.1104C85.547 14.1104 84.7138 14.9437 83.3249 18.999L76.9914 37.9977H76.2697L70.6031 20.6098L64.8261 37.9977H64.1037L57.9378 18.999C56.6044 14.9437 55.7155 14.1104 52.4934 14.1104V12.999H64.8261V14.1104C61.5482 14.1104 60.6593 14.8879 61.8264 18.3317L65.5478 29.6652L71.1587 12.999H72.2144L77.7138 29.6652Z" fill="#F4F4F4"/>
<path d="M96.601 19.5558C91.4907 19.5558 89.7127 24.1663 89.7127 27.7768C89.7127 31.4438 91.4907 35.9991 96.601 35.9991C101.768 35.9991 103.545 31.4438 103.545 27.7768C103.545 24.1663 101.768 19.5558 96.601 19.5558ZM96.601 37.7765C90.4908 37.7765 85.4907 33.2769 85.4907 27.7768C85.4907 22.3331 90.4908 17.833 96.601 17.833C102.712 17.833 107.711 22.3331 107.711 27.7768C107.711 33.2769 102.712 37.7765 96.601 37.7765Z" fill="#F4F4F4"/>
<path d="M163.262 14.999H160.095V24.6654H163.262C166.373 24.6654 167.817 22.4989 167.817 19.8882C167.817 17.2219 166.373 14.999 163.262 14.999ZM164.484 35.9424V37.0531H151.763V35.9424C155.485 35.9424 156.151 34.9983 156.151 29.4424V20.5548C156.151 14.999 155.485 14.1107 151.763 14.1107V12.9992H163.262C168.983 12.9992 172.15 15.9438 172.15 19.8882C172.15 23.7213 168.983 26.721 163.262 26.721H160.095V29.4424C160.095 34.9983 160.762 35.9424 164.484 35.9424Z" fill="#F4F4F4"/>
<path d="M180.872 27.6098V20.222H183.149C185.649 20.222 186.761 21.9437 186.761 23.9435C186.761 25.8881 185.649 27.6098 183.149 27.6098H180.872ZM210.313 31.8325L210.036 32.8323C209.536 34.6655 208.924 35.332 204.98 35.332H204.202C201.314 35.332 200.814 34.6655 200.814 30.721V28.1661C205.147 28.1661 205.48 28.5545 205.48 31.4434H206.536V23.166H205.48C205.48 26.0548 205.147 26.4432 200.814 26.4432V20.222H203.869C207.813 20.222 208.424 20.8887 208.924 22.7217L209.202 23.7767H210.091L209.702 18.5556H193.37V19.6107C196.481 19.6107 196.981 20.2772 196.981 24.2217V31.3325C196.981 34.9404 196.556 35.8493 194.103 35.9788C191.772 35.623 190.172 34.3514 187.982 31.9432L185.427 29.166C188.871 28.5545 190.704 26.3881 190.704 23.9435C190.704 20.8887 188.094 18.5556 183.205 18.5556H173.428V19.6107C176.538 19.6107 177.038 20.2772 177.038 24.2217V31.3325C177.038 35.2763 176.538 35.9986 173.428 35.9986V37.0537H184.483V35.9986C181.372 35.9986 180.872 35.2763 180.872 31.3325V29.3326H181.816L187.982 37.0537H210.813L211.146 31.8325H210.313Z" fill="#F4F4F4"/>
<path d="M221.592 37.7765C219.37 37.7765 217.425 36.61 216.592 35.8876C216.314 36.1657 215.814 36.9991 215.704 37.7765H214.648V30.1106H215.759C216.204 33.7769 218.758 35.9433 222.036 35.9433C223.814 35.9433 225.258 34.9435 225.258 33.2769C225.258 31.8328 223.98 30.7213 221.703 29.6663L218.537 28.1665C216.314 27.1103 214.648 25.2771 214.648 22.8331C214.648 20.1668 217.148 17.8893 220.592 17.8893C222.425 17.8893 223.98 18.556 224.925 19.3334C225.202 19.111 225.48 18.4995 225.647 17.833H226.702V24.3887H225.536C225.147 21.7775 223.703 19.611 220.759 19.611C219.203 19.611 217.758 20.5001 217.758 21.889C217.758 23.3331 218.925 24.1106 221.592 25.3328L224.647 26.8327C227.314 28.1101 228.369 30.1663 228.369 31.8328C228.369 35.3325 225.314 37.7765 221.592 37.7765Z" fill="#F4F4F4"/>
<path d="M238.392 37.7765C236.169 37.7765 234.225 36.61 233.391 35.8876C233.114 36.1657 232.614 36.9991 232.503 37.7765H231.447V30.1106H232.558C233.003 33.7769 235.558 35.9433 238.836 35.9433C240.613 35.9433 242.058 34.9435 242.058 33.2769C242.058 31.8328 240.78 30.7213 238.503 29.6663L235.336 28.1665C233.114 27.1103 231.447 25.2771 231.447 22.8331C231.447 20.1668 233.947 17.8893 237.392 17.8893C239.225 17.8893 240.78 18.556 241.725 19.3334C242.002 19.111 242.28 18.4995 242.446 17.833H243.502V24.3887H242.335C241.946 21.7775 240.502 19.611 237.558 19.611C236.003 19.611 234.558 20.5001 234.558 21.889C234.558 23.3331 235.725 24.1106 238.392 25.3328L241.446 26.8327C244.113 28.1101 245.168 30.1663 245.168 31.8328C245.168 35.3325 242.113 37.7765 238.392 37.7765Z" fill="#F4F4F4"/>
<path d="M24.9988 0C11.1923 0 0 11.1923 0 24.9988C0 38.8052 11.1923 49.9975 24.9988 49.9975C38.8053 49.9975 49.9976 38.8052 49.9976 24.9988C49.9976 11.1923 38.8053 0 24.9988 0ZM24.9988 1.49985C28.1718 1.49985 31.2491 2.12109 34.1451 3.34602C35.5373 3.93481 36.88 4.66357 38.1361 5.51224C39.3808 6.3531 40.5513 7.31888 41.615 8.3826C42.6787 9.44631 43.6443 10.6168 44.4852 11.8614C45.3339 13.1176 46.0628 14.4603 46.6516 15.8524C47.8765 18.7485 48.4976 21.8258 48.4976 24.9988C48.4976 28.1717 47.8765 31.249 46.6516 34.1451C46.0628 35.5372 45.3339 36.8799 44.4852 38.1361C43.6443 39.3807 42.6787 40.5512 41.615 41.6149C40.5513 42.6786 39.3808 43.6444 38.1361 44.4852C36.88 45.3339 35.5373 46.0627 34.1451 46.6515C31.2491 47.8764 28.1718 48.4976 24.9988 48.4976C21.8258 48.4976 18.7485 47.8764 15.8525 46.6515C14.4605 46.0627 13.1175 45.3339 11.8615 44.4852C10.6168 43.6444 9.4463 42.6786 8.38259 41.6149C7.31887 40.5512 6.35324 39.3807 5.51238 38.1361C4.66371 36.8799 3.9348 35.5372 3.34601 34.1451C2.12109 31.249 1.5 28.1717 1.5 24.9988C1.5 21.8258 2.12109 18.7485 3.34601 15.8524C3.9348 14.4603 4.66371 13.1176 5.51238 11.8614C6.35324 10.6168 7.31887 9.44631 8.38259 8.3826C9.4463 7.31888 10.6168 6.3531 11.8615 5.51224C13.1175 4.66357 14.4605 3.93481 15.8525 3.34602C18.7485 2.12109 21.8258 1.49985 24.9988 1.49985Z" fill="#F4F4F4"/>
<path d="M43.2784 15.0039C43.3678 15.6673 43.4186 16.3791 43.4186 17.1459C43.4186 19.2591 43.0225 21.6355 41.8339 24.6073L35.4712 43.0036C41.6647 39.3928 45.8298 32.6831 45.8298 24.9977C45.8298 21.3757 44.9041 17.9709 43.2784 15.0039ZM25.3634 26.8198L19.1121 44.9819C20.9791 45.5312 22.9527 45.8307 24.9975 45.8307C27.4234 45.8307 29.7506 45.412 31.9158 44.6496C31.86 44.5605 31.8087 44.4659 31.7662 44.3626L25.3634 26.8198ZM39.0609 23.9471C39.0609 21.3716 38.1358 19.5892 37.3436 18.202C36.2874 16.4852 35.2972 15.0327 35.2972 13.316C35.2972 11.4013 36.7492 9.6188 38.7956 9.6188C38.888 9.6188 38.9755 9.62987 39.0653 9.63562C35.359 6.2396 30.4208 4.16615 24.9975 4.16615C17.7192 4.16615 11.3165 7.90066 7.59146 13.5555C8.0807 13.571 8.54146 13.5808 8.93217 13.5808C11.1108 13.5808 14.4845 13.316 14.4845 13.316C15.6069 13.2502 15.7397 14.9001 14.6177 15.0327C14.6177 15.0327 13.4888 15.165 12.2336 15.2306L19.8195 37.7958L24.3791 24.1232L21.1336 15.2306C20.0112 15.165 18.9487 15.0327 18.9487 15.0327C17.8257 14.9664 17.9572 13.2502 19.0808 13.316C19.0808 13.316 22.5204 13.5808 24.5673 13.5808C26.7457 13.5808 30.1202 13.316 30.1202 13.316C31.2431 13.2502 31.3752 14.9001 30.2528 15.0327C30.2528 15.0327 29.1229 15.165 27.8687 15.2306L35.3973 37.624L37.5464 30.8142C38.5012 27.8381 39.0609 25.7296 39.0609 23.9471ZM4.16521 24.9977C4.16521 33.2431 8.95665 40.3695 15.9066 43.7459L5.96905 16.5197C4.81315 19.1104 4.16521 21.9775 4.16521 24.9977Z" fill="#F4F4F4"/>
</svg>
